<?xml version="1.0" encoding="UTF-8" standalone="no"?>
<!DOCTYPE svg PUBLIC "-//W3C//DTD SVG 1.1//EN"
 "http://www.w3.org/Graphics/SVG/1.1/DTD/svg11.dtd">
<!-- Generated by graphviz version 2.40.1 (20161225.0304)
 -->
<!-- Title: dependencies Pages: 1 -->
<svg width="1367pt" height="211pt"
 viewBox="0.00 0.00 1367.00 211.00" xmlns="http://www.w3.org/2000/svg" xmlns:xlink="http://www.w3.org/1999/xlink">
<g id="graph0" class="graph" transform="scale(1 1) rotate(0) translate(4 207)">
<title>dependencies</title>
<polygon fill="#ffffff" stroke="transparent" points="-4,4 -4,-207 1363,-207 1363,4 -4,4"/>
<text text-anchor="start" x="658.5091" y="-42.4" font-family="sans-serif" font-weight="bold" font-size="14.00" fill="#000000">Legend</text>
<polygon fill="#ffffb3" stroke="transparent" points="445.5,-10 445.5,-30 465.5,-30 465.5,-10 445.5,-10"/>
<text text-anchor="start" x="469.129" y="-15.4" font-family="sans-serif" font-size="14.00" fill="#000000"> &#160;Declarations</text>
<polygon fill="#8dd3c7" stroke="transparent" points="558.5,-10 558.5,-30 578.5,-30 578.5,-10 558.5,-10"/>
<text text-anchor="start" x="582.2251" y="-15.4" font-family="sans-serif" font-size="14.00" fill="#000000"> &#160;Module</text>
<polygon fill="#80b1d3" stroke="transparent" points="644.5,-10 644.5,-30 664.5,-30 664.5,-10 644.5,-10"/>
<text text-anchor="start" x="668.2812" y="-15.4" font-family="sans-serif" font-size="14.00" fill="#000000"> &#160;Bootstrap</text>
<polygon fill="#fdb462" stroke="transparent" points="741.5,-10 741.5,-30 761.5,-30 761.5,-10 741.5,-10"/>
<text text-anchor="start" x="765.1732" y="-15.4" font-family="sans-serif" font-size="14.00" fill="#000000"> &#160;Providers</text>
<polygon fill="#fb8072" stroke="transparent" points="837.5,-10 837.5,-30 857.5,-30 857.5,-10 837.5,-10"/>
<text text-anchor="start" x="861.2258" y="-15.4" font-family="sans-serif" font-size="14.00" fill="#000000"> &#160;Exports</text>
<g id="clust1" class="cluster">
<title>cluster_DownloadOrderModalModule</title>
<polygon fill="none" stroke="#000000" stroke-dasharray="1,5" points="8,-70 8,-195 1351,-195 1351,-70 8,-70"/>
</g>
<g id="clust2" class="cluster">
<title>cluster_DownloadOrderModalModule_declarations</title>
<polygon fill="none" stroke="#000000" points="1119,-78 1119,-130 1343,-130 1343,-78 1119,-78"/>
</g>
<g id="clust4" class="cluster">
<title>cluster_DownloadOrderModalModule_imports</title>
<polygon fill="none" stroke="#000000" points="989,-78 989,-130 1111,-130 1111,-78 989,-78"/>
</g>
<g id="clust7" class="cluster">
<title>cluster_DownloadOrderModalModule_providers</title>
<polygon fill="none" stroke="#000000" points="16,-78 16,-130 981,-130 981,-78 16,-78"/>
</g>
<!-- DownloadOrderModalComponent -->
<g id="node1" class="node">
<title>DownloadOrderModalComponent</title>
<polygon fill="#ffffb3" stroke="#000000" points="1335.3431,-122 1126.6569,-122 1126.6569,-86 1335.3431,-86 1335.3431,-122"/>
<text text-anchor="middle" x="1231" y="-99.8" font-family="Times,serif" font-size="14.00" fill="#000000">DownloadOrderModalComponent</text>
</g>
<!-- DownloadOrderModalModule -->
<g id="node2" class="node">
<title>DownloadOrderModalModule</title>
<polygon fill="#8dd3c7" stroke="#000000" points="729.5604,-187 726.5604,-191 705.5604,-191 702.5604,-187 542.4396,-187 542.4396,-151 729.5604,-151 729.5604,-187"/>
<text text-anchor="middle" x="636" y="-164.8" font-family="Times,serif" font-size="14.00" fill="#000000">DownloadOrderModalModule</text>
</g>
<!-- DownloadOrderModalComponent&#45;&gt;DownloadOrderModalModule -->
<g id="edge1" class="edge">
<title>DownloadOrderModalComponent&#45;&gt;DownloadOrderModalModule</title>
<path fill="none" stroke="#000000" d="M1231,-122.2921C1231,-144.2057 1231,-178 1231,-178 1231,-178 739.6233,-178 739.6233,-178"/>
<polygon fill="#000000" stroke="#000000" points="739.6233,-174.5001 729.6233,-178 739.6233,-181.5001 739.6233,-174.5001"/>
</g>
<!-- MaterialModule -->
<g id="node3" class="node">
<title>MaterialModule</title>
<polygon fill="#8dd3c7" stroke="#000000" points="1103.4706,-122 1100.4706,-126 1079.4706,-126 1076.4706,-122 996.5294,-122 996.5294,-86 1103.4706,-86 1103.4706,-122"/>
<text text-anchor="middle" x="1050" y="-99.8" font-family="Times,serif" font-size="14.00" fill="#000000">MaterialModule</text>
</g>
<!-- MaterialModule&#45;&gt;DownloadOrderModalModule -->
<g id="edge2" class="edge">
<title>MaterialModule&#45;&gt;DownloadOrderModalModule</title>
<path fill="none" stroke="#000000" d="M1050,-122.1061C1050,-141.3391 1050,-169 1050,-169 1050,-169 739.6843,-169 739.6843,-169"/>
<polygon fill="#000000" stroke="#000000" points="739.6844,-165.5001 729.6843,-169 739.6843,-172.5001 739.6844,-165.5001"/>
</g>
<!-- DownloadOrderService -->
<g id="node4" class="node">
<title>DownloadOrderService</title>
<ellipse fill="#fdb462" stroke="#000000" cx="870" cy="-104" rx="102.9705" ry="18"/>
<text text-anchor="middle" x="870" y="-99.8" font-family="Times,serif" font-size="14.00" fill="#000000">DownloadOrderService</text>
</g>
<!-- DownloadOrderService&#45;&gt;DownloadOrderModalModule -->
<g id="edge3" class="edge">
<title>DownloadOrderService&#45;&gt;DownloadOrderModalModule</title>
<path fill="none" stroke="#000000" d="M870,-122.027C870,-138.3976 870,-160 870,-160 870,-160 739.8285,-160 739.8285,-160"/>
<polygon fill="#000000" stroke="#000000" points="739.8285,-156.5001 729.8285,-160 739.8284,-163.5001 739.8285,-156.5001"/>
</g>
<!-- HttpErrorHandlingService -->
<g id="node5" class="node">
<title>HttpErrorHandlingService</title>
<ellipse fill="#fdb462" stroke="#000000" cx="636" cy="-104" rx="113.4412" ry="18"/>
<text text-anchor="middle" x="636" y="-99.8" font-family="Times,serif" font-size="14.00" fill="#000000">HttpErrorHandlingService</text>
</g>
<!-- HttpErrorHandlingService&#45;&gt;DownloadOrderModalModule -->
<g id="edge4" class="edge">
<title>HttpErrorHandlingService&#45;&gt;DownloadOrderModalModule</title>
<path fill="none" stroke="#000000" d="M636,-122.1061C636,-122.1061 636,-140.991 636,-140.991"/>
<polygon fill="#000000" stroke="#000000" points="632.5001,-140.9909 636,-150.991 639.5001,-140.991 632.5001,-140.9909"/>
</g>
<!-- ComponentsService -->
<g id="node6" class="node">
<title>ComponentsService</title>
<ellipse fill="#fdb462" stroke="#000000" cx="416" cy="-104" rx="88.6255" ry="18"/>
<text text-anchor="middle" x="416" y="-99.8" font-family="Times,serif" font-size="14.00" fill="#000000">ComponentsService</text>
</g>
<!-- ComponentsService&#45;&gt;DownloadOrderModalModule -->
<g id="edge5" class="edge">
<title>ComponentsService&#45;&gt;DownloadOrderModalModule</title>
<path fill="none" stroke="#000000" d="M416,-122.027C416,-138.3976 416,-160 416,-160 416,-160 532.3812,-160 532.3812,-160"/>
<polygon fill="#000000" stroke="#000000" points="532.3812,-163.5001 542.3812,-160 532.3812,-156.5001 532.3812,-163.5001"/>
</g>
<!-- UserService -->
<g id="node7" class="node">
<title>UserService</title>
<ellipse fill="#fdb462" stroke="#000000" cx="251" cy="-104" rx="58.4415" ry="18"/>
<text text-anchor="middle" x="251" y="-99.8" font-family="Times,serif" font-size="14.00" fill="#000000">UserService</text>
</g>
<!-- UserService&#45;&gt;DownloadOrderModalModule -->
<g id="edge6" class="edge">
<title>UserService&#45;&gt;DownloadOrderModalModule</title>
<path fill="none" stroke="#000000" d="M251,-122.1061C251,-141.3391 251,-169 251,-169 251,-169 532.3107,-169 532.3107,-169"/>
<polygon fill="#000000" stroke="#000000" points="532.3108,-172.5001 542.3107,-169 532.3107,-165.5001 532.3108,-172.5001"/>
</g>
<!-- EndpointService -->
<g id="node8" class="node">
<title>EndpointService</title>
<ellipse fill="#fdb462" stroke="#000000" cx="99" cy="-104" rx="75.3021" ry="18"/>
<text text-anchor="middle" x="99" y="-99.8" font-family="Times,serif" font-size="14.00" fill="#000000">EndpointService</text>
</g>
<!-- EndpointService&#45;&gt;DownloadOrderModalModule -->
<g id="edge7" class="edge">
<title>EndpointService&#45;&gt;DownloadOrderModalModule</title>
<path fill="none" stroke="#000000" d="M99,-122.2921C99,-144.2057 99,-178 99,-178 99,-178 532.4617,-178 532.4617,-178"/>
<polygon fill="#000000" stroke="#000000" points="532.4618,-181.5001 542.4617,-178 532.4617,-174.5001 532.4618,-181.5001"/>
</g>
</g>
</svg>
