<?xml version="1.0" encoding="UTF-8" standalone="no"?>
<!DOCTYPE svg PUBLIC "-//W3C//DTD SVG 1.1//EN"
 "http://www.w3.org/Graphics/SVG/1.1/DTD/svg11.dtd">
<!-- Generated by graphviz version 2.40.1 (20161225.0304)
 -->
<!-- Title: dependencies Pages: 1 -->
<svg width="1749pt" height="284pt"
 viewBox="0.00 0.00 1749.00 284.00" xmlns="http://www.w3.org/2000/svg" xmlns:xlink="http://www.w3.org/1999/xlink">
<g id="graph0" class="graph" transform="scale(1 1) rotate(0) translate(4 280)">
<title>dependencies</title>
<polygon fill="#ffffff" stroke="transparent" points="-4,4 -4,-280 1745,-280 1745,4 -4,4"/>
<text text-anchor="start" x="849.5091" y="-42.4" font-family="sans-serif" font-weight="bold" font-size="14.00" fill="#000000">Legend</text>
<polygon fill="#ffffb3" stroke="transparent" points="636.5,-10 636.5,-30 656.5,-30 656.5,-10 636.5,-10"/>
<text text-anchor="start" x="660.129" y="-15.4" font-family="sans-serif" font-size="14.00" fill="#000000"> &#160;Declarations</text>
<polygon fill="#8dd3c7" stroke="transparent" points="749.5,-10 749.5,-30 769.5,-30 769.5,-10 749.5,-10"/>
<text text-anchor="start" x="773.2251" y="-15.4" font-family="sans-serif" font-size="14.00" fill="#000000"> &#160;Module</text>
<polygon fill="#80b1d3" stroke="transparent" points="835.5,-10 835.5,-30 855.5,-30 855.5,-10 835.5,-10"/>
<text text-anchor="start" x="859.2812" y="-15.4" font-family="sans-serif" font-size="14.00" fill="#000000"> &#160;Bootstrap</text>
<polygon fill="#fdb462" stroke="transparent" points="932.5,-10 932.5,-30 952.5,-30 952.5,-10 932.5,-10"/>
<text text-anchor="start" x="956.1732" y="-15.4" font-family="sans-serif" font-size="14.00" fill="#000000"> &#160;Providers</text>
<polygon fill="#fb8072" stroke="transparent" points="1028.5,-10 1028.5,-30 1048.5,-30 1048.5,-10 1028.5,-10"/>
<text text-anchor="start" x="1052.2258" y="-15.4" font-family="sans-serif" font-size="14.00" fill="#000000"> &#160;Exports</text>
<g id="clust1" class="cluster">
<title>cluster_ProfileModule</title>
<polygon fill="none" stroke="#000000" stroke-dasharray="1,5" points="8,-70 8,-268 1733,-268 1733,-70 8,-70"/>
</g>
<g id="clust2" class="cluster">
<title>cluster_ProfileModule_declarations</title>
<polygon fill="none" stroke="#000000" points="1252,-78 1252,-130 1725,-130 1725,-78 1252,-78"/>
</g>
<g id="clust6" class="cluster">
<title>cluster_ProfileModule_imports</title>
<polygon fill="none" stroke="#000000" points="961,-78 961,-130 1244,-130 1244,-78 961,-78"/>
</g>
<g id="clust7" class="cluster">
<title>cluster_ProfileModule_exports</title>
<polygon fill="none" stroke="#000000" points="678,-208 678,-260 1161,-260 1161,-208 678,-208"/>
</g>
<g id="clust9" class="cluster">
<title>cluster_ProfileModule_providers</title>
<polygon fill="none" stroke="#000000" points="16,-78 16,-130 953,-130 953,-78 16,-78"/>
</g>
<!-- ProfileComponent -->
<g id="node1" class="node">
<title>ProfileComponent</title>
<polygon fill="#ffffb3" stroke="#000000" points="1716.9328,-122 1597.0672,-122 1597.0672,-86 1716.9328,-86 1716.9328,-122"/>
<text text-anchor="middle" x="1657" y="-99.8" font-family="Times,serif" font-size="14.00" fill="#000000">ProfileComponent</text>
</g>
<!-- ProfileModule -->
<g id="node4" class="node">
<title>ProfileModule</title>
<polygon fill="#8dd3c7" stroke="#000000" points="987.65,-187 984.65,-191 963.65,-191 960.65,-187 890.35,-187 890.35,-151 987.65,-151 987.65,-187"/>
<text text-anchor="middle" x="939" y="-164.8" font-family="Times,serif" font-size="14.00" fill="#000000">ProfileModule</text>
</g>
<!-- ProfileComponent&#45;&gt;ProfileModule -->
<g id="edge1" class="edge">
<title>ProfileComponent&#45;&gt;ProfileModule</title>
<path fill="none" stroke="#000000" d="M1657,-122.2843C1657,-143.3211 1657,-175 1657,-175 1657,-175 997.7866,-175 997.7866,-175"/>
<polygon fill="#000000" stroke="#000000" points="997.7866,-171.5001 987.7866,-175 997.7865,-178.5001 997.7866,-171.5001"/>
</g>
<!-- EditProfileComponent -->
<g id="node2" class="node">
<title>EditProfileComponent</title>
<polygon fill="#ffffb3" stroke="#000000" points="1579.266,-122 1436.734,-122 1436.734,-86 1579.266,-86 1579.266,-122"/>
<text text-anchor="middle" x="1508" y="-99.8" font-family="Times,serif" font-size="14.00" fill="#000000">EditProfileComponent</text>
</g>
<!-- EditProfileComponent&#45;&gt;ProfileModule -->
<g id="edge2" class="edge">
<title>EditProfileComponent&#45;&gt;ProfileModule</title>
<path fill="none" stroke="#000000" d="M1508,-122.1061C1508,-141.3391 1508,-169 1508,-169 1508,-169 998.0051,-169 998.0051,-169"/>
<polygon fill="#000000" stroke="#000000" points="998.0051,-165.5001 988.0051,-169 998.0051,-172.5001 998.0051,-165.5001"/>
</g>
<!-- EditPasswordComponent -->
<g id="node3" class="node">
<title>EditPasswordComponent</title>
<polygon fill="#ffffb3" stroke="#000000" points="1418.3201,-122 1259.6799,-122 1259.6799,-86 1418.3201,-86 1418.3201,-122"/>
<text text-anchor="middle" x="1339" y="-99.8" font-family="Times,serif" font-size="14.00" fill="#000000">EditPasswordComponent</text>
</g>
<!-- EditPasswordComponent&#45;&gt;ProfileModule -->
<g id="edge3" class="edge">
<title>EditPasswordComponent&#45;&gt;ProfileModule</title>
<path fill="none" stroke="#000000" d="M1339,-122.0225C1339,-139.3734 1339,-163 1339,-163 1339,-163 998.0479,-163 998.0479,-163"/>
<polygon fill="#000000" stroke="#000000" points="998.0479,-159.5001 988.0479,-163 998.0478,-166.5001 998.0479,-159.5001"/>
</g>
<!-- ProfileComponent  -->
<g id="node7" class="node">
<title>ProfileComponent </title>
<polygon fill="#fb8072" stroke="#000000" points="1153.432,-252 1030.568,-252 1030.568,-216 1153.432,-216 1153.432,-252"/>
<text text-anchor="middle" x="1092" y="-229.8" font-family="Times,serif" font-size="14.00" fill="#000000">ProfileComponent </text>
</g>
<!-- ProfileModule&#45;&gt;ProfileComponent  -->
<g id="edge6" class="edge">
<title>ProfileModule&#45;&gt;ProfileComponent </title>
<path fill="none" stroke="#000000" stroke-dasharray="5,2" d="M987.6811,-181C1018.6685,-181 1053.0097,-181 1053.0097,-181 1053.0097,-181 1053.0097,-205.7604 1053.0097,-205.7604"/>
<polygon fill="#000000" stroke="#000000" points="1049.5097,-205.7604 1053.0097,-215.7604 1056.5097,-205.7604 1049.5097,-205.7604"/>
</g>
<!-- EditProfileComponent  -->
<g id="node8" class="node">
<title>EditProfileComponent </title>
<polygon fill="#fb8072" stroke="#000000" points="1012.266,-252 865.734,-252 865.734,-216 1012.266,-216 1012.266,-252"/>
<text text-anchor="middle" x="939" y="-229.8" font-family="Times,serif" font-size="14.00" fill="#000000">EditProfileComponent </text>
</g>
<!-- ProfileModule&#45;&gt;EditProfileComponent  -->
<g id="edge7" class="edge">
<title>ProfileModule&#45;&gt;EditProfileComponent </title>
<path fill="none" stroke="#000000" stroke-dasharray="5,2" d="M939,-187.1061C939,-187.1061 939,-205.991 939,-205.991"/>
<polygon fill="#000000" stroke="#000000" points="935.5001,-205.9909 939,-215.991 942.5001,-205.991 935.5001,-205.9909"/>
</g>
<!-- EditPasswordComponent  -->
<g id="node9" class="node">
<title>EditPasswordComponent </title>
<polygon fill="#fb8072" stroke="#000000" points="847.8199,-252 686.1801,-252 686.1801,-216 847.8199,-216 847.8199,-252"/>
<text text-anchor="middle" x="767" y="-229.8" font-family="Times,serif" font-size="14.00" fill="#000000">EditPasswordComponent </text>
</g>
<!-- ProfileModule&#45;&gt;EditPasswordComponent  -->
<g id="edge8" class="edge">
<title>ProfileModule&#45;&gt;EditPasswordComponent </title>
<path fill="none" stroke="#000000" stroke-dasharray="5,2" d="M890.0524,-181C852.6789,-181 807.5487,-181 807.5487,-181 807.5487,-181 807.5487,-205.7604 807.5487,-205.7604"/>
<polygon fill="#000000" stroke="#000000" points="804.0488,-205.7604 807.5487,-215.7604 811.0488,-205.7604 804.0488,-205.7604"/>
</g>
<!-- ProfileRoutingModule -->
<g id="node5" class="node">
<title>ProfileRoutingModule</title>
<polygon fill="#8dd3c7" stroke="#000000" points="1236.2674,-122 1233.2674,-126 1212.2674,-126 1209.2674,-122 1093.7326,-122 1093.7326,-86 1236.2674,-86 1236.2674,-122"/>
<text text-anchor="middle" x="1165" y="-99.8" font-family="Times,serif" font-size="14.00" fill="#000000">ProfileRoutingModule</text>
</g>
<!-- ProfileRoutingModule&#45;&gt;ProfileModule -->
<g id="edge4" class="edge">
<title>ProfileRoutingModule&#45;&gt;ProfileModule</title>
<path fill="none" stroke="#000000" d="M1123.5412,-122.2396C1123.5412,-137.5706 1123.5412,-157 1123.5412,-157 1123.5412,-157 997.9692,-157 997.9692,-157"/>
<polygon fill="#000000" stroke="#000000" points="997.9692,-153.5001 987.9692,-157 997.9691,-160.5001 997.9692,-153.5001"/>
</g>
<!-- MaterialModule -->
<g id="node6" class="node">
<title>MaterialModule</title>
<polygon fill="#8dd3c7" stroke="#000000" points="1075.4706,-122 1072.4706,-126 1051.4706,-126 1048.4706,-122 968.5294,-122 968.5294,-86 1075.4706,-86 1075.4706,-122"/>
<text text-anchor="middle" x="1022" y="-99.8" font-family="Times,serif" font-size="14.00" fill="#000000">MaterialModule</text>
</g>
<!-- MaterialModule&#45;&gt;ProfileModule -->
<g id="edge5" class="edge">
<title>MaterialModule&#45;&gt;ProfileModule</title>
<path fill="none" stroke="#000000" d="M978.1697,-122.1061C978.1697,-122.1061 978.1697,-140.991 978.1697,-140.991"/>
<polygon fill="#000000" stroke="#000000" points="974.6698,-140.9909 978.1697,-150.991 981.6698,-140.991 974.6698,-140.9909"/>
</g>
<!-- ComponentsService -->
<g id="node10" class="node">
<title>ComponentsService</title>
<ellipse fill="#fdb462" stroke="#000000" cx="856" cy="-104" rx="88.6255" ry="18"/>
<text text-anchor="middle" x="856" y="-99.8" font-family="Times,serif" font-size="14.00" fill="#000000">ComponentsService</text>
</g>
<!-- ComponentsService&#45;&gt;ProfileModule -->
<g id="edge9" class="edge">
<title>ComponentsService&#45;&gt;ProfileModule</title>
<path fill="none" stroke="#000000" d="M917.4939,-117.1537C917.4939,-117.1537 917.4939,-140.6938 917.4939,-140.6938"/>
<polygon fill="#000000" stroke="#000000" points="913.994,-140.6938 917.4939,-150.6938 920.994,-140.6939 913.994,-140.6938"/>
</g>
<!-- UserService -->
<g id="node11" class="node">
<title>UserService</title>
<ellipse fill="#fdb462" stroke="#000000" cx="691" cy="-104" rx="58.4415" ry="18"/>
<text text-anchor="middle" x="691" y="-99.8" font-family="Times,serif" font-size="14.00" fill="#000000">UserService</text>
</g>
<!-- UserService&#45;&gt;ProfileModule -->
<g id="edge10" class="edge">
<title>UserService&#45;&gt;ProfileModule</title>
<path fill="none" stroke="#000000" d="M717.6552,-120.1897C717.6552,-135.7761 717.6552,-157 717.6552,-157 717.6552,-157 880.1509,-157 880.1509,-157"/>
<polygon fill="#000000" stroke="#000000" points="880.151,-160.5001 890.1509,-157 880.1509,-153.5001 880.151,-160.5001"/>
</g>
<!-- EventEmitterOrders -->
<g id="node12" class="node">
<title>EventEmitterOrders</title>
<ellipse fill="#fdb462" stroke="#000000" cx="526" cy="-104" rx="88.5986" ry="18"/>
<text text-anchor="middle" x="526" y="-99.8" font-family="Times,serif" font-size="14.00" fill="#000000">EventEmitterOrders</text>
</g>
<!-- EventEmitterOrders&#45;&gt;ProfileModule -->
<g id="edge11" class="edge">
<title>EventEmitterOrders&#45;&gt;ProfileModule</title>
<path fill="none" stroke="#000000" d="M526,-122.0225C526,-139.3734 526,-163 526,-163 526,-163 880.0017,-163 880.0017,-163"/>
<polygon fill="#000000" stroke="#000000" points="880.0017,-166.5001 890.0017,-163 880.0016,-159.5001 880.0017,-166.5001"/>
</g>
<!-- EndpointService -->
<g id="node13" class="node">
<title>EndpointService</title>
<ellipse fill="#fdb462" stroke="#000000" cx="344" cy="-104" rx="75.3021" ry="18"/>
<text text-anchor="middle" x="344" y="-99.8" font-family="Times,serif" font-size="14.00" fill="#000000">EndpointService</text>
</g>
<!-- EndpointService&#45;&gt;ProfileModule -->
<g id="edge12" class="edge">
<title>EndpointService&#45;&gt;ProfileModule</title>
<path fill="none" stroke="#000000" d="M344,-122.1061C344,-141.3391 344,-169 344,-169 344,-169 880.3087,-169 880.3087,-169"/>
<polygon fill="#000000" stroke="#000000" points="880.3087,-172.5001 890.3087,-169 880.3086,-165.5001 880.3087,-172.5001"/>
</g>
<!-- HttpErrorHandlingService -->
<g id="node14" class="node">
<title>HttpErrorHandlingService</title>
<ellipse fill="#fdb462" stroke="#000000" cx="137" cy="-104" rx="113.4412" ry="18"/>
<text text-anchor="middle" x="137" y="-99.8" font-family="Times,serif" font-size="14.00" fill="#000000">HttpErrorHandlingService</text>
</g>
<!-- HttpErrorHandlingService&#45;&gt;ProfileModule -->
<g id="edge13" class="edge">
<title>HttpErrorHandlingService&#45;&gt;ProfileModule</title>
<path fill="none" stroke="#000000" d="M137,-122.2843C137,-143.3211 137,-175 137,-175 137,-175 880.3384,-175 880.3384,-175"/>
<polygon fill="#000000" stroke="#000000" points="880.3384,-178.5001 890.3384,-175 880.3384,-171.5001 880.3384,-178.5001"/>
</g>
</g>
</svg>
