<?xml version="1.0" encoding="UTF-8" standalone="no"?>
<!DOCTYPE svg PUBLIC "-//W3C//DTD SVG 1.1//EN"
 "http://www.w3.org/Graphics/SVG/1.1/DTD/svg11.dtd">
<!-- Generated by graphviz version 2.40.1 (20161225.0304)
 -->
<!-- Title: dependencies Pages: 1 -->
<svg width="2422pt" height="284pt"
 viewBox="0.00 0.00 2422.00 284.00" xmlns="http://www.w3.org/2000/svg" xmlns:xlink="http://www.w3.org/1999/xlink">
<g id="graph0" class="graph" transform="scale(1 1) rotate(0) translate(4 280)">
<title>dependencies</title>
<polygon fill="#ffffff" stroke="transparent" points="-4,4 -4,-280 2418,-280 2418,4 -4,4"/>
<text text-anchor="start" x="1186.0091" y="-42.4" font-family="sans-serif" font-weight="bold" font-size="14.00" fill="#000000">Legend</text>
<polygon fill="#ffffb3" stroke="transparent" points="973,-10 973,-30 993,-30 993,-10 973,-10"/>
<text text-anchor="start" x="996.629" y="-15.4" font-family="sans-serif" font-size="14.00" fill="#000000"> &#160;Declarations</text>
<polygon fill="#8dd3c7" stroke="transparent" points="1086,-10 1086,-30 1106,-30 1106,-10 1086,-10"/>
<text text-anchor="start" x="1109.7251" y="-15.4" font-family="sans-serif" font-size="14.00" fill="#000000"> &#160;Module</text>
<polygon fill="#80b1d3" stroke="transparent" points="1172,-10 1172,-30 1192,-30 1192,-10 1172,-10"/>
<text text-anchor="start" x="1195.7812" y="-15.4" font-family="sans-serif" font-size="14.00" fill="#000000"> &#160;Bootstrap</text>
<polygon fill="#fdb462" stroke="transparent" points="1269,-10 1269,-30 1289,-30 1289,-10 1269,-10"/>
<text text-anchor="start" x="1292.6732" y="-15.4" font-family="sans-serif" font-size="14.00" fill="#000000"> &#160;Providers</text>
<polygon fill="#fb8072" stroke="transparent" points="1365,-10 1365,-30 1385,-30 1385,-10 1365,-10"/>
<text text-anchor="start" x="1388.7258" y="-15.4" font-family="sans-serif" font-size="14.00" fill="#000000"> &#160;Exports</text>
<g id="clust1" class="cluster">
<title>cluster_AppModule</title>
<polygon fill="none" stroke="#000000" stroke-dasharray="1,5" points="8,-70 8,-268 2406,-268 2406,-70 8,-70"/>
</g>
<g id="clust2" class="cluster">
<title>cluster_AppModule_declarations</title>
<polygon fill="none" stroke="#000000" points="2276,-78 2276,-130 2398,-130 2398,-78 2276,-78"/>
</g>
<g id="clust4" class="cluster">
<title>cluster_AppModule_imports</title>
<polygon fill="none" stroke="#000000" points="16,-78 16,-130 2268,-130 2268,-78 16,-78"/>
</g>
<g id="clust6" class="cluster">
<title>cluster_AppModule_bootstrap</title>
<polygon fill="none" stroke="#000000" points="1175,-208 1175,-260 1299,-260 1299,-208 1175,-208"/>
</g>
<!-- AppComponent -->
<g id="node1" class="node">
<title>AppComponent</title>
<polygon fill="#ffffb3" stroke="#000000" points="2389.9399,-122 2284.0601,-122 2284.0601,-86 2389.9399,-86 2389.9399,-122"/>
<text text-anchor="middle" x="2337" y="-99.8" font-family="Times,serif" font-size="14.00" fill="#000000">AppComponent</text>
</g>
<!-- AppModule -->
<g id="node2" class="node">
<title>AppModule</title>
<polygon fill="#8dd3c7" stroke="#000000" points="1278.6571,-187 1275.6571,-191 1254.6571,-191 1251.6571,-187 1195.3429,-187 1195.3429,-151 1278.6571,-151 1278.6571,-187"/>
<text text-anchor="middle" x="1237" y="-164.8" font-family="Times,serif" font-size="14.00" fill="#000000">AppModule</text>
</g>
<!-- AppComponent&#45;&gt;AppModule -->
<g id="edge1" class="edge">
<title>AppComponent&#45;&gt;AppModule</title>
<path fill="none" stroke="#000000" d="M2337,-122.3228C2337,-145.6602 2337,-183 2337,-183 2337,-183 1288.7781,-183 1288.7781,-183"/>
<polygon fill="#000000" stroke="#000000" points="1288.7781,-179.5001 1278.7781,-183 1288.7781,-186.5001 1288.7781,-179.5001"/>
</g>
<!-- AppComponent  -->
<g id="node20" class="node">
<title>AppComponent </title>
<polygon fill="#80b1d3" stroke="#000000" points="1291.439,-252 1182.561,-252 1182.561,-216 1291.439,-216 1291.439,-252"/>
<text text-anchor="middle" x="1237" y="-229.8" font-family="Times,serif" font-size="14.00" fill="#000000">AppComponent </text>
</g>
<!-- AppModule&#45;&gt;AppComponent  -->
<g id="edge19" class="edge">
<title>AppModule&#45;&gt;AppComponent </title>
<path fill="none" stroke="#000000" stroke-dasharray="1,5" d="M1237,-187.1061C1237,-187.1061 1237,-205.991 1237,-205.991"/>
<polygon fill="#000000" stroke="#000000" points="1233.5001,-205.9909 1237,-215.991 1240.5001,-205.991 1233.5001,-205.9909"/>
</g>
<!-- MaterialModule -->
<g id="node3" class="node">
<title>MaterialModule</title>
<polygon fill="#8dd3c7" stroke="#000000" points="2260.4706,-122 2257.4706,-126 2236.4706,-126 2233.4706,-122 2153.5294,-122 2153.5294,-86 2260.4706,-86 2260.4706,-122"/>
<text text-anchor="middle" x="2207" y="-99.8" font-family="Times,serif" font-size="14.00" fill="#000000">MaterialModule</text>
</g>
<!-- MaterialModule&#45;&gt;AppModule -->
<g id="edge2" class="edge">
<title>MaterialModule&#45;&gt;AppModule</title>
<path fill="none" stroke="#000000" d="M2207,-122.1554C2207,-144.3519 2207,-179 2207,-179 2207,-179 1288.6797,-179 1288.6797,-179"/>
<polygon fill="#000000" stroke="#000000" points="1288.6797,-175.5001 1278.6797,-179 1288.6797,-182.5001 1288.6797,-175.5001"/>
</g>
<!-- ShellModule -->
<g id="node4" class="node">
<title>ShellModule</title>
<polygon fill="#8dd3c7" stroke="#000000" points="2135.3288,-122 2132.3288,-126 2111.3288,-126 2108.3288,-122 2046.6712,-122 2046.6712,-86 2135.3288,-86 2135.3288,-122"/>
<text text-anchor="middle" x="2091" y="-99.8" font-family="Times,serif" font-size="14.00" fill="#000000">ShellModule</text>
</g>
<!-- ShellModule&#45;&gt;AppModule -->
<g id="edge3" class="edge">
<title>ShellModule&#45;&gt;AppModule</title>
<path fill="none" stroke="#000000" d="M2091,-122.2843C2091,-143.3211 2091,-175 2091,-175 2091,-175 1288.7683,-175 1288.7683,-175"/>
<polygon fill="#000000" stroke="#000000" points="1288.7683,-171.5001 1278.7683,-175 1288.7683,-178.5001 1288.7683,-171.5001"/>
</g>
<!-- HomeModule -->
<g id="node5" class="node">
<title>HomeModule</title>
<polygon fill="#8dd3c7" stroke="#000000" points="2028.7619,-122 2025.7619,-126 2004.7619,-126 2001.7619,-122 1935.2381,-122 1935.2381,-86 2028.7619,-86 2028.7619,-122"/>
<text text-anchor="middle" x="1982" y="-99.8" font-family="Times,serif" font-size="14.00" fill="#000000">HomeModule</text>
</g>
<!-- HomeModule&#45;&gt;AppModule -->
<g id="edge4" class="edge">
<title>HomeModule&#45;&gt;AppModule</title>
<path fill="none" stroke="#000000" d="M1982,-122.308C1982,-142.1455 1982,-171 1982,-171 1982,-171 1288.9195,-171 1288.9195,-171"/>
<polygon fill="#000000" stroke="#000000" points="1288.9196,-167.5001 1278.9195,-171 1288.9195,-174.5001 1288.9196,-167.5001"/>
</g>
<!-- ErrroModule -->
<g id="node6" class="node">
<title>ErrroModule</title>
<polygon fill="#8dd3c7" stroke="#000000" points="1917.5842,-122 1914.5842,-126 1893.5842,-126 1890.5842,-122 1828.4158,-122 1828.4158,-86 1917.5842,-86 1917.5842,-122"/>
<text text-anchor="middle" x="1873" y="-99.8" font-family="Times,serif" font-size="14.00" fill="#000000">ErrroModule</text>
</g>
<!-- ErrroModule&#45;&gt;AppModule -->
<g id="edge5" class="edge">
<title>ErrroModule&#45;&gt;AppModule</title>
<path fill="none" stroke="#000000" d="M1873,-122.2222C1873,-140.8285 1873,-167 1873,-167 1873,-167 1288.7297,-167 1288.7297,-167"/>
<polygon fill="#000000" stroke="#000000" points="1288.7298,-163.5001 1278.7297,-167 1288.7297,-170.5001 1288.7298,-163.5001"/>
</g>
<!-- LoadGuideModule -->
<g id="node7" class="node">
<title>LoadGuideModule</title>
<polygon fill="#8dd3c7" stroke="#000000" points="1810.0297,-122 1807.0297,-126 1786.0297,-126 1783.0297,-122 1687.9703,-122 1687.9703,-86 1810.0297,-86 1810.0297,-122"/>
<text text-anchor="middle" x="1749" y="-99.8" font-family="Times,serif" font-size="14.00" fill="#000000">LoadGuideModule</text>
</g>
<!-- LoadGuideModule&#45;&gt;AppModule -->
<g id="edge6" class="edge">
<title>LoadGuideModule&#45;&gt;AppModule</title>
<path fill="none" stroke="#000000" d="M1749,-122.0225C1749,-139.3734 1749,-163 1749,-163 1749,-163 1288.8991,-163 1288.8991,-163"/>
<polygon fill="#000000" stroke="#000000" points="1288.8991,-159.5001 1278.8991,-163 1288.8991,-166.5001 1288.8991,-159.5001"/>
</g>
<!-- OrdersModule -->
<g id="node8" class="node">
<title>OrdersModule</title>
<polygon fill="#8dd3c7" stroke="#000000" points="1669.6375,-122 1666.6375,-126 1645.6375,-126 1642.6375,-122 1572.3625,-122 1572.3625,-86 1669.6375,-86 1669.6375,-122"/>
<text text-anchor="middle" x="1621" y="-99.8" font-family="Times,serif" font-size="14.00" fill="#000000">OrdersModule</text>
</g>
<!-- OrdersModule&#45;&gt;AppModule -->
<g id="edge7" class="edge">
<title>OrdersModule&#45;&gt;AppModule</title>
<path fill="none" stroke="#000000" d="M1621,-122.0091C1621,-138.0494 1621,-159 1621,-159 1621,-159 1288.8257,-159 1288.8257,-159"/>
<polygon fill="#000000" stroke="#000000" points="1288.8258,-155.5001 1278.8257,-159 1288.8257,-162.5001 1288.8258,-155.5001"/>
</g>
<!-- InValidationModule -->
<g id="node9" class="node">
<title>InValidationModule</title>
<polygon fill="#8dd3c7" stroke="#000000" points="1554.309,-122 1551.309,-126 1530.309,-126 1527.309,-122 1423.691,-122 1423.691,-86 1554.309,-86 1554.309,-122"/>
<text text-anchor="middle" x="1489" y="-99.8" font-family="Times,serif" font-size="14.00" fill="#000000">InValidationModule</text>
</g>
<!-- InValidationModule&#45;&gt;AppModule -->
<g id="edge8" class="edge">
<title>InValidationModule&#45;&gt;AppModule</title>
<path fill="none" stroke="#000000" d="M1489,-122.1243C1489,-136.7832 1489,-155 1489,-155 1489,-155 1288.8956,-155 1288.8956,-155"/>
<polygon fill="#000000" stroke="#000000" points="1288.8956,-151.5001 1278.8956,-155 1288.8955,-158.5001 1288.8956,-151.5001"/>
</g>
<!-- PendingDevolutionModule -->
<g id="node10" class="node">
<title>PendingDevolutionModule</title>
<polygon fill="#8dd3c7" stroke="#000000" points="1406.4312,-122 1403.4312,-126 1382.4312,-126 1379.4312,-122 1237.5688,-122 1237.5688,-86 1406.4312,-86 1406.4312,-122"/>
<text text-anchor="middle" x="1322" y="-99.8" font-family="Times,serif" font-size="14.00" fill="#000000">PendingDevolutionModule</text>
</g>
<!-- PendingDevolutionModule&#45;&gt;AppModule -->
<g id="edge9" class="edge">
<title>PendingDevolutionModule&#45;&gt;AppModule</title>
<path fill="none" stroke="#000000" d="M1258.3065,-122.1061C1258.3065,-122.1061 1258.3065,-140.991 1258.3065,-140.991"/>
<polygon fill="#000000" stroke="#000000" points="1254.8065,-140.9909 1258.3065,-150.991 1261.8065,-140.991 1254.8065,-140.9909"/>
</g>
<!-- InDevolutionModule -->
<g id="node11" class="node">
<title>InDevolutionModule</title>
<polygon fill="#8dd3c7" stroke="#000000" points="1220.2036,-122 1217.2036,-126 1196.2036,-126 1193.2036,-122 1085.7964,-122 1085.7964,-86 1220.2036,-86 1220.2036,-122"/>
<text text-anchor="middle" x="1153" y="-99.8" font-family="Times,serif" font-size="14.00" fill="#000000">InDevolutionModule</text>
</g>
<!-- InDevolutionModule&#45;&gt;AppModule -->
<g id="edge10" class="edge">
<title>InDevolutionModule&#45;&gt;AppModule</title>
<path fill="none" stroke="#000000" d="M1207.6368,-122.1061C1207.6368,-122.1061 1207.6368,-140.991 1207.6368,-140.991"/>
<polygon fill="#000000" stroke="#000000" points="1204.1368,-140.9909 1207.6368,-150.991 1211.1368,-140.991 1204.1368,-140.9909"/>
</g>
<!-- ToolbarOptionsModule -->
<g id="node12" class="node">
<title>ToolbarOptionsModule</title>
<polygon fill="#8dd3c7" stroke="#000000" points="1068.2007,-122 1065.2007,-126 1044.2007,-126 1041.2007,-122 919.7993,-122 919.7993,-86 1068.2007,-86 1068.2007,-122"/>
<text text-anchor="middle" x="994" y="-99.8" font-family="Times,serif" font-size="14.00" fill="#000000">ToolbarOptionsModule</text>
</g>
<!-- ToolbarOptionsModule&#45;&gt;AppModule -->
<g id="edge11" class="edge">
<title>ToolbarOptionsModule&#45;&gt;AppModule</title>
<path fill="none" stroke="#000000" d="M994,-122.1243C994,-136.7832 994,-155 994,-155 994,-155 1185.2268,-155 1185.2268,-155"/>
<polygon fill="#000000" stroke="#000000" points="1185.2268,-158.5001 1195.2268,-155 1185.2268,-151.5001 1185.2268,-158.5001"/>
</g>
<!-- ToolbarLinkModule -->
<g id="node13" class="node">
<title>ToolbarLinkModule</title>
<polygon fill="#8dd3c7" stroke="#000000" points="902.3118,-122 899.3118,-126 878.3118,-126 875.3118,-122 771.6882,-122 771.6882,-86 902.3118,-86 902.3118,-122"/>
<text text-anchor="middle" x="837" y="-99.8" font-family="Times,serif" font-size="14.00" fill="#000000">ToolbarLinkModule</text>
</g>
<!-- ToolbarLinkModule&#45;&gt;AppModule -->
<g id="edge12" class="edge">
<title>ToolbarLinkModule&#45;&gt;AppModule</title>
<path fill="none" stroke="#000000" d="M837,-122.0091C837,-138.0494 837,-159 837,-159 837,-159 1185.325,-159 1185.325,-159"/>
<polygon fill="#000000" stroke="#000000" points="1185.325,-162.5001 1195.325,-159 1185.3249,-155.5001 1185.325,-162.5001"/>
</g>
<!-- BillingModule -->
<g id="node14" class="node">
<title>BillingModule</title>
<polygon fill="#8dd3c7" stroke="#000000" points="754.4498,-122 751.4498,-126 730.4498,-126 727.4498,-122 655.5502,-122 655.5502,-86 754.4498,-86 754.4498,-122"/>
<text text-anchor="middle" x="705" y="-99.8" font-family="Times,serif" font-size="14.00" fill="#000000">BillingModule</text>
</g>
<!-- BillingModule&#45;&gt;AppModule -->
<g id="edge13" class="edge">
<title>BillingModule&#45;&gt;AppModule</title>
<path fill="none" stroke="#000000" d="M705,-122.0225C705,-139.3734 705,-163 705,-163 705,-163 1185.2549,-163 1185.2549,-163"/>
<polygon fill="#000000" stroke="#000000" points="1185.2549,-166.5001 1195.2549,-163 1185.2548,-159.5001 1185.2549,-166.5001"/>
</g>
<!-- PendingModule -->
<g id="node15" class="node">
<title>PendingModule</title>
<polygon fill="#8dd3c7" stroke="#000000" points="637.9385,-122 634.9385,-126 613.9385,-126 610.9385,-122 532.0615,-122 532.0615,-86 637.9385,-86 637.9385,-122"/>
<text text-anchor="middle" x="585" y="-99.8" font-family="Times,serif" font-size="14.00" fill="#000000">PendingModule</text>
</g>
<!-- PendingModule&#45;&gt;AppModule -->
<g id="edge14" class="edge">
<title>PendingModule&#45;&gt;AppModule</title>
<path fill="none" stroke="#000000" d="M585,-122.2222C585,-140.8285 585,-167 585,-167 585,-167 1185.2226,-167 1185.2226,-167"/>
<polygon fill="#000000" stroke="#000000" points="1185.2227,-170.5001 1195.2226,-167 1185.2226,-163.5001 1185.2227,-170.5001"/>
</g>
<!-- HistoricModule -->
<g id="node16" class="node">
<title>HistoricModule</title>
<polygon fill="#8dd3c7" stroke="#000000" points="514.1486,-122 511.1486,-126 490.1486,-126 487.1486,-122 409.8514,-122 409.8514,-86 514.1486,-86 514.1486,-122"/>
<text text-anchor="middle" x="462" y="-99.8" font-family="Times,serif" font-size="14.00" fill="#000000">HistoricModule</text>
</g>
<!-- HistoricModule&#45;&gt;AppModule -->
<g id="edge15" class="edge">
<title>HistoricModule&#45;&gt;AppModule</title>
<path fill="none" stroke="#000000" d="M462,-122.308C462,-142.1455 462,-171 462,-171 462,-171 1185.3326,-171 1185.3326,-171"/>
<polygon fill="#000000" stroke="#000000" points="1185.3327,-174.5001 1195.3326,-171 1185.3326,-167.5001 1185.3327,-174.5001"/>
</g>
<!-- DispatchModule -->
<g id="node17" class="node">
<title>DispatchModule</title>
<polygon fill="#8dd3c7" stroke="#000000" points="391.8118,-122 388.8118,-126 367.8118,-126 364.8118,-122 282.1882,-122 282.1882,-86 391.8118,-86 391.8118,-122"/>
<text text-anchor="middle" x="337" y="-99.8" font-family="Times,serif" font-size="14.00" fill="#000000">DispatchModule</text>
</g>
<!-- DispatchModule&#45;&gt;AppModule -->
<g id="edge16" class="edge">
<title>DispatchModule&#45;&gt;AppModule</title>
<path fill="none" stroke="#000000" d="M337,-122.2843C337,-143.3211 337,-175 337,-175 337,-175 1185.0977,-175 1185.0977,-175"/>
<polygon fill="#000000" stroke="#000000" points="1185.0977,-178.5001 1195.0977,-175 1185.0976,-171.5001 1185.0977,-178.5001"/>
</g>
<!-- DetailModule -->
<g id="node18" class="node">
<title>DetailModule</title>
<polygon fill="#8dd3c7" stroke="#000000" points="263.7577,-122 260.7577,-126 239.7577,-126 236.7577,-122 170.2423,-122 170.2423,-86 263.7577,-86 263.7577,-122"/>
<text text-anchor="middle" x="217" y="-99.8" font-family="Times,serif" font-size="14.00" fill="#000000">DetailModule</text>
</g>
<!-- DetailModule&#45;&gt;AppModule -->
<g id="edge17" class="edge">
<title>DetailModule&#45;&gt;AppModule</title>
<path fill="none" stroke="#000000" d="M217,-122.1554C217,-144.3519 217,-179 217,-179 217,-179 1185.1132,-179 1185.1132,-179"/>
<polygon fill="#000000" stroke="#000000" points="1185.1132,-182.5001 1195.1132,-179 1185.1132,-175.5001 1185.1132,-182.5001"/>
</g>
<!-- AppRoutingModule -->
<g id="node19" class="node">
<title>AppRoutingModule</title>
<polygon fill="#8dd3c7" stroke="#000000" points="152.2744,-122 149.2744,-126 128.2744,-126 125.2744,-122 23.7256,-122 23.7256,-86 152.2744,-86 152.2744,-122"/>
<text text-anchor="middle" x="88" y="-99.8" font-family="Times,serif" font-size="14.00" fill="#000000">AppRoutingModule</text>
</g>
<!-- AppRoutingModule&#45;&gt;AppModule -->
<g id="edge18" class="edge">
<title>AppRoutingModule&#45;&gt;AppModule</title>
<path fill="none" stroke="#000000" d="M88,-122.3228C88,-145.6602 88,-183 88,-183 88,-183 1185.0864,-183 1185.0864,-183"/>
<polygon fill="#000000" stroke="#000000" points="1185.0864,-186.5001 1195.0864,-183 1185.0863,-179.5001 1185.0864,-186.5001"/>
</g>
</g>
</svg>
