<?xml version="1.0" encoding="UTF-8" standalone="no"?>
<!DOCTYPE svg PUBLIC "-//W3C//DTD SVG 1.1//EN"
 "http://www.w3.org/Graphics/SVG/1.1/DTD/svg11.dtd">
<!-- Generated by graphviz version 2.40.1 (20161225.0304)
 -->
<!-- Title: dependencies Pages: 1 -->
<svg width="1115pt" height="284pt"
 viewBox="0.00 0.00 1115.00 284.00" xmlns="http://www.w3.org/2000/svg" xmlns:xlink="http://www.w3.org/1999/xlink">
<g id="graph0" class="graph" transform="scale(1 1) rotate(0) translate(4 280)">
<title>dependencies</title>
<polygon fill="#ffffff" stroke="transparent" points="-4,4 -4,-280 1111,-280 1111,4 -4,4"/>
<text text-anchor="start" x="532.5091" y="-42.4" font-family="sans-serif" font-weight="bold" font-size="14.00" fill="#000000">Legend</text>
<polygon fill="#ffffb3" stroke="transparent" points="319.5,-10 319.5,-30 339.5,-30 339.5,-10 319.5,-10"/>
<text text-anchor="start" x="343.129" y="-15.4" font-family="sans-serif" font-size="14.00" fill="#000000"> &#160;Declarations</text>
<polygon fill="#8dd3c7" stroke="transparent" points="432.5,-10 432.5,-30 452.5,-30 452.5,-10 432.5,-10"/>
<text text-anchor="start" x="456.2251" y="-15.4" font-family="sans-serif" font-size="14.00" fill="#000000"> &#160;Module</text>
<polygon fill="#80b1d3" stroke="transparent" points="518.5,-10 518.5,-30 538.5,-30 538.5,-10 518.5,-10"/>
<text text-anchor="start" x="542.2812" y="-15.4" font-family="sans-serif" font-size="14.00" fill="#000000"> &#160;Bootstrap</text>
<polygon fill="#fdb462" stroke="transparent" points="615.5,-10 615.5,-30 635.5,-30 635.5,-10 615.5,-10"/>
<text text-anchor="start" x="639.1732" y="-15.4" font-family="sans-serif" font-size="14.00" fill="#000000"> &#160;Providers</text>
<polygon fill="#fb8072" stroke="transparent" points="711.5,-10 711.5,-30 731.5,-30 731.5,-10 711.5,-10"/>
<text text-anchor="start" x="735.2258" y="-15.4" font-family="sans-serif" font-size="14.00" fill="#000000"> &#160;Exports</text>
<g id="clust1" class="cluster">
<title>cluster_HistoricModule</title>
<polygon fill="none" stroke="#000000" stroke-dasharray="1,5" points="8,-70 8,-268 1099,-268 1099,-70 8,-70"/>
</g>
<g id="clust2" class="cluster">
<title>cluster_HistoricModule_declarations</title>
<polygon fill="none" stroke="#000000" points="949,-78 949,-130 1091,-130 1091,-78 949,-78"/>
</g>
<g id="clust4" class="cluster">
<title>cluster_HistoricModule_imports</title>
<polygon fill="none" stroke="#000000" points="336,-78 336,-130 941,-130 941,-78 336,-78"/>
</g>
<g id="clust5" class="cluster">
<title>cluster_HistoricModule_exports</title>
<polygon fill="none" stroke="#000000" points="512,-208 512,-260 658,-260 658,-208 512,-208"/>
</g>
<g id="clust7" class="cluster">
<title>cluster_HistoricModule_providers</title>
<polygon fill="none" stroke="#000000" points="16,-78 16,-130 328,-130 328,-78 16,-78"/>
</g>
<!-- HistoricComponent -->
<g id="node1" class="node">
<title>HistoricComponent</title>
<polygon fill="#ffffb3" stroke="#000000" points="1083.4313,-122 956.5687,-122 956.5687,-86 1083.4313,-86 1083.4313,-122"/>
<text text-anchor="middle" x="1020" y="-99.8" font-family="Times,serif" font-size="14.00" fill="#000000">HistoricComponent</text>
</g>
<!-- HistoricModule -->
<g id="node2" class="node">
<title>HistoricModule</title>
<polygon fill="#8dd3c7" stroke="#000000" points="637.1486,-187 634.1486,-191 613.1486,-191 610.1486,-187 532.8514,-187 532.8514,-151 637.1486,-151 637.1486,-187"/>
<text text-anchor="middle" x="585" y="-164.8" font-family="Times,serif" font-size="14.00" fill="#000000">HistoricModule</text>
</g>
<!-- HistoricComponent&#45;&gt;HistoricModule -->
<g id="edge1" class="edge">
<title>HistoricComponent&#45;&gt;HistoricModule</title>
<path fill="none" stroke="#000000" d="M1020,-122.2921C1020,-144.2057 1020,-178 1020,-178 1020,-178 647.4712,-178 647.4712,-178"/>
<polygon fill="#000000" stroke="#000000" points="647.4712,-174.5001 637.4712,-178 647.4711,-181.5001 647.4712,-174.5001"/>
</g>
<!-- HistoricComponent  -->
<g id="node7" class="node">
<title>HistoricComponent </title>
<polygon fill="#fb8072" stroke="#000000" points="649.9306,-252 520.0694,-252 520.0694,-216 649.9306,-216 649.9306,-252"/>
<text text-anchor="middle" x="585" y="-229.8" font-family="Times,serif" font-size="14.00" fill="#000000">HistoricComponent </text>
</g>
<!-- HistoricModule&#45;&gt;HistoricComponent  -->
<g id="edge6" class="edge">
<title>HistoricModule&#45;&gt;HistoricComponent </title>
<path fill="none" stroke="#000000" stroke-dasharray="5,2" d="M585,-187.1061C585,-187.1061 585,-205.991 585,-205.991"/>
<polygon fill="#000000" stroke="#000000" points="581.5001,-205.9909 585,-215.991 588.5001,-205.991 581.5001,-205.9909"/>
</g>
<!-- MaterialModule -->
<g id="node3" class="node">
<title>MaterialModule</title>
<polygon fill="#8dd3c7" stroke="#000000" points="933.4706,-122 930.4706,-126 909.4706,-126 906.4706,-122 826.5294,-122 826.5294,-86 933.4706,-86 933.4706,-122"/>
<text text-anchor="middle" x="880" y="-99.8" font-family="Times,serif" font-size="14.00" fill="#000000">MaterialModule</text>
</g>
<!-- MaterialModule&#45;&gt;HistoricModule -->
<g id="edge2" class="edge">
<title>MaterialModule&#45;&gt;HistoricModule</title>
<path fill="none" stroke="#000000" d="M880,-122.1061C880,-141.3391 880,-169 880,-169 880,-169 647.4002,-169 647.4002,-169"/>
<polygon fill="#000000" stroke="#000000" points="647.4002,-165.5001 637.4002,-169 647.4001,-172.5001 647.4002,-165.5001"/>
</g>
<!-- ToolbarLinkModule -->
<g id="node4" class="node">
<title>ToolbarLinkModule</title>
<polygon fill="#8dd3c7" stroke="#000000" points="808.3118,-122 805.3118,-126 784.3118,-126 781.3118,-122 677.6882,-122 677.6882,-86 808.3118,-86 808.3118,-122"/>
<text text-anchor="middle" x="743" y="-99.8" font-family="Times,serif" font-size="14.00" fill="#000000">ToolbarLinkModule</text>
</g>
<!-- ToolbarLinkModule&#45;&gt;HistoricModule -->
<g id="edge3" class="edge">
<title>ToolbarLinkModule&#45;&gt;HistoricModule</title>
<path fill="none" stroke="#000000" d="M743,-122.027C743,-138.3976 743,-160 743,-160 743,-160 647.173,-160 647.173,-160"/>
<polygon fill="#000000" stroke="#000000" points="647.173,-156.5001 637.173,-160 647.173,-163.5001 647.173,-156.5001"/>
</g>
<!-- HistoricRoutingModule -->
<g id="node5" class="node">
<title>HistoricRoutingModule</title>
<polygon fill="#8dd3c7" stroke="#000000" points="659.766,-122 656.766,-126 635.766,-126 632.766,-122 510.234,-122 510.234,-86 659.766,-86 659.766,-122"/>
<text text-anchor="middle" x="585" y="-99.8" font-family="Times,serif" font-size="14.00" fill="#000000">HistoricRoutingModule</text>
</g>
<!-- HistoricRoutingModule&#45;&gt;HistoricModule -->
<g id="edge4" class="edge">
<title>HistoricRoutingModule&#45;&gt;HistoricModule</title>
<path fill="none" stroke="#000000" d="M585,-122.1061C585,-122.1061 585,-140.991 585,-140.991"/>
<polygon fill="#000000" stroke="#000000" points="581.5001,-140.9909 585,-150.991 588.5001,-140.991 581.5001,-140.9909"/>
</g>
<!-- ToolbarOptionsModule -->
<g id="node6" class="node">
<title>ToolbarOptionsModule</title>
<polygon fill="#8dd3c7" stroke="#000000" points="492.2007,-122 489.2007,-126 468.2007,-126 465.2007,-122 343.7993,-122 343.7993,-86 492.2007,-86 492.2007,-122"/>
<text text-anchor="middle" x="418" y="-99.8" font-family="Times,serif" font-size="14.00" fill="#000000">ToolbarOptionsModule</text>
</g>
<!-- ToolbarOptionsModule&#45;&gt;HistoricModule -->
<g id="edge5" class="edge">
<title>ToolbarOptionsModule&#45;&gt;HistoricModule</title>
<path fill="none" stroke="#000000" d="M418,-122.027C418,-138.3976 418,-160 418,-160 418,-160 522.6184,-160 522.6184,-160"/>
<polygon fill="#000000" stroke="#000000" points="522.6184,-163.5001 532.6184,-160 522.6183,-156.5001 522.6184,-163.5001"/>
</g>
<!-- ShipmentsService -->
<g id="node8" class="node">
<title>ShipmentsService</title>
<ellipse fill="#fdb462" stroke="#000000" cx="239" cy="-104" rx="80.5354" ry="18"/>
<text text-anchor="middle" x="239" y="-99.8" font-family="Times,serif" font-size="14.00" fill="#000000">ShipmentsService</text>
</g>
<!-- ShipmentsService&#45;&gt;HistoricModule -->
<g id="edge7" class="edge">
<title>ShipmentsService&#45;&gt;HistoricModule</title>
<path fill="none" stroke="#000000" d="M239,-122.1061C239,-141.3391 239,-169 239,-169 239,-169 522.8257,-169 522.8257,-169"/>
<polygon fill="#000000" stroke="#000000" points="522.8257,-172.5001 532.8257,-169 522.8256,-165.5001 522.8257,-172.5001"/>
</g>
<!-- UserService -->
<g id="node9" class="node">
<title>UserService</title>
<ellipse fill="#fdb462" stroke="#000000" cx="82" cy="-104" rx="58.4415" ry="18"/>
<text text-anchor="middle" x="82" y="-99.8" font-family="Times,serif" font-size="14.00" fill="#000000">UserService</text>
</g>
<!-- UserService&#45;&gt;HistoricModule -->
<g id="edge8" class="edge">
<title>UserService&#45;&gt;HistoricModule</title>
<path fill="none" stroke="#000000" d="M82,-122.2921C82,-144.2057 82,-178 82,-178 82,-178 522.5937,-178 522.5937,-178"/>
<polygon fill="#000000" stroke="#000000" points="522.5937,-181.5001 532.5937,-178 522.5936,-174.5001 522.5937,-181.5001"/>
</g>
</g>
</svg>
