<?xml version="1.0" encoding="UTF-8" standalone="no"?>
<!DOCTYPE svg PUBLIC "-//W3C//DTD SVG 1.1//EN"
 "http://www.w3.org/Graphics/SVG/1.1/DTD/svg11.dtd">
<!-- Generated by graphviz version 2.40.1 (20161225.0304)
 -->
<!-- Title: dependencies Pages: 1 -->
<svg width="2630pt" height="284pt"
 viewBox="0.00 0.00 2630.00 284.00" xmlns="http://www.w3.org/2000/svg" xmlns:xlink="http://www.w3.org/1999/xlink">
<g id="graph0" class="graph" transform="scale(1 1) rotate(0) translate(4 280)">
<title>dependencies</title>
<polygon fill="#ffffff" stroke="transparent" points="-4,4 -4,-280 2626,-280 2626,4 -4,4"/>
<text text-anchor="start" x="1290.0091" y="-42.4" font-family="sans-serif" font-weight="bold" font-size="14.00" fill="#000000">Legend</text>
<polygon fill="#ffffb3" stroke="transparent" points="1077,-10 1077,-30 1097,-30 1097,-10 1077,-10"/>
<text text-anchor="start" x="1100.629" y="-15.4" font-family="sans-serif" font-size="14.00" fill="#000000"> &#160;Declarations</text>
<polygon fill="#8dd3c7" stroke="transparent" points="1190,-10 1190,-30 1210,-30 1210,-10 1190,-10"/>
<text text-anchor="start" x="1213.7251" y="-15.4" font-family="sans-serif" font-size="14.00" fill="#000000"> &#160;Module</text>
<polygon fill="#80b1d3" stroke="transparent" points="1276,-10 1276,-30 1296,-30 1296,-10 1276,-10"/>
<text text-anchor="start" x="1299.7812" y="-15.4" font-family="sans-serif" font-size="14.00" fill="#000000"> &#160;Bootstrap</text>
<polygon fill="#fdb462" stroke="transparent" points="1373,-10 1373,-30 1393,-30 1393,-10 1373,-10"/>
<text text-anchor="start" x="1396.6732" y="-15.4" font-family="sans-serif" font-size="14.00" fill="#000000"> &#160;Providers</text>
<polygon fill="#fb8072" stroke="transparent" points="1469,-10 1469,-30 1489,-30 1489,-10 1469,-10"/>
<text text-anchor="start" x="1492.7258" y="-15.4" font-family="sans-serif" font-size="14.00" fill="#000000"> &#160;Exports</text>
<g id="clust1" class="cluster">
<title>cluster_SearchOrderMenuModule</title>
<polygon fill="none" stroke="#000000" stroke-dasharray="1,5" points="8,-70 8,-268 2614,-268 2614,-70 8,-70"/>
</g>
<g id="clust2" class="cluster">
<title>cluster_SearchOrderMenuModule_declarations</title>
<polygon fill="none" stroke="#000000" points="1484,-78 1484,-130 2606,-130 2606,-78 1484,-78"/>
</g>
<g id="clust8" class="cluster">
<title>cluster_SearchOrderMenuModule_imports</title>
<polygon fill="none" stroke="#000000" points="1354,-78 1354,-130 1476,-130 1476,-78 1354,-78"/>
</g>
<g id="clust9" class="cluster">
<title>cluster_SearchOrderMenuModule_exports</title>
<polygon fill="none" stroke="#000000" points="1161,-208 1161,-260 1365,-260 1365,-208 1161,-208"/>
</g>
<g id="clust11" class="cluster">
<title>cluster_SearchOrderMenuModule_providers</title>
<polygon fill="none" stroke="#000000" points="16,-78 16,-130 1346,-130 1346,-78 16,-78"/>
</g>
<!-- SearchOrderMenuComponent -->
<g id="node1" class="node">
<title>SearchOrderMenuComponent</title>
<polygon fill="#ffffb3" stroke="#000000" points="2598.2212,-122 2413.7788,-122 2413.7788,-86 2598.2212,-86 2598.2212,-122"/>
<text text-anchor="middle" x="2506" y="-99.8" font-family="Times,serif" font-size="14.00" fill="#000000">SearchOrderMenuComponent</text>
</g>
<!-- SearchOrderMenuModule -->
<g id="node6" class="node">
<title>SearchOrderMenuModule</title>
<polygon fill="#8dd3c7" stroke="#000000" points="1344.4384,-187 1341.4384,-191 1320.4384,-191 1317.4384,-187 1181.5616,-187 1181.5616,-151 1344.4384,-151 1344.4384,-187"/>
<text text-anchor="middle" x="1263" y="-164.8" font-family="Times,serif" font-size="14.00" fill="#000000">SearchOrderMenuModule</text>
</g>
<!-- SearchOrderMenuComponent&#45;&gt;SearchOrderMenuModule -->
<g id="edge1" class="edge">
<title>SearchOrderMenuComponent&#45;&gt;SearchOrderMenuModule</title>
<path fill="none" stroke="#000000" d="M2506,-122.0908C2506,-145.1328 2506,-182 2506,-182 2506,-182 1354.5567,-182 1354.5567,-182"/>
<polygon fill="#000000" stroke="#000000" points="1354.5567,-178.5001 1344.5567,-182 1354.5567,-185.5001 1354.5567,-178.5001"/>
</g>
<!-- SearchOrderFormComponent -->
<g id="node2" class="node">
<title>SearchOrderFormComponent</title>
<polygon fill="#ffffb3" stroke="#000000" points="2395.396,-122 2212.604,-122 2212.604,-86 2395.396,-86 2395.396,-122"/>
<text text-anchor="middle" x="2304" y="-99.8" font-family="Times,serif" font-size="14.00" fill="#000000">SearchOrderFormComponent</text>
</g>
<!-- SearchOrderFormComponent&#45;&gt;SearchOrderMenuModule -->
<g id="edge2" class="edge">
<title>SearchOrderFormComponent&#45;&gt;SearchOrderMenuModule</title>
<path fill="none" stroke="#000000" d="M2304,-122.0449C2304,-143.6623 2304,-177 2304,-177 2304,-177 1354.6855,-177 1354.6855,-177"/>
<polygon fill="#000000" stroke="#000000" points="1354.6856,-173.5001 1344.6855,-177 1354.6855,-180.5001 1354.6856,-173.5001"/>
</g>
<!-- SearchBillingFormComponent -->
<g id="node3" class="node">
<title>SearchBillingFormComponent</title>
<polygon fill="#ffffb3" stroke="#000000" points="2194.1525,-122 2005.8475,-122 2005.8475,-86 2194.1525,-86 2194.1525,-122"/>
<text text-anchor="middle" x="2100" y="-99.8" font-family="Times,serif" font-size="14.00" fill="#000000">SearchBillingFormComponent</text>
</g>
<!-- SearchBillingFormComponent&#45;&gt;SearchOrderMenuModule -->
<g id="edge3" class="edge">
<title>SearchBillingFormComponent&#45;&gt;SearchOrderMenuModule</title>
<path fill="none" stroke="#000000" d="M2100,-122.2228C2100,-142.3652 2100,-172 2100,-172 2100,-172 1354.7791,-172 1354.7791,-172"/>
<polygon fill="#000000" stroke="#000000" points="1354.7791,-168.5001 1344.7791,-172 1354.779,-175.5001 1354.7791,-168.5001"/>
</g>
<!-- SearchPendingDevolutionFormComponent -->
<g id="node4" class="node">
<title>SearchPendingDevolutionFormComponent</title>
<polygon fill="#ffffb3" stroke="#000000" points="1987.1343,-122 1728.8657,-122 1728.8657,-86 1987.1343,-86 1987.1343,-122"/>
<text text-anchor="middle" x="1858" y="-99.8" font-family="Times,serif" font-size="14.00" fill="#000000">SearchPendingDevolutionFormComponent</text>
</g>
<!-- SearchPendingDevolutionFormComponent&#45;&gt;SearchOrderMenuModule -->
<g id="edge4" class="edge">
<title>SearchPendingDevolutionFormComponent&#45;&gt;SearchOrderMenuModule</title>
<path fill="none" stroke="#000000" d="M1858,-122.2222C1858,-140.8285 1858,-167 1858,-167 1858,-167 1354.4846,-167 1354.4846,-167"/>
<polygon fill="#000000" stroke="#000000" points="1354.4847,-163.5001 1344.4846,-167 1354.4846,-170.5001 1354.4847,-163.5001"/>
</g>
<!-- SearchEnviosExitoFormComponent -->
<g id="node5" class="node">
<title>SearchEnviosExitoFormComponent</title>
<polygon fill="#ffffb3" stroke="#000000" points="1710.4748,-122 1491.5252,-122 1491.5252,-86 1710.4748,-86 1710.4748,-122"/>
<text text-anchor="middle" x="1601" y="-99.8" font-family="Times,serif" font-size="14.00" fill="#000000">SearchEnviosExitoFormComponent</text>
</g>
<!-- SearchEnviosExitoFormComponent&#45;&gt;SearchOrderMenuModule -->
<g id="edge5" class="edge">
<title>SearchEnviosExitoFormComponent&#45;&gt;SearchOrderMenuModule</title>
<path fill="none" stroke="#000000" d="M1601,-122.0336C1601,-139.0597 1601,-162 1601,-162 1601,-162 1354.8204,-162 1354.8204,-162"/>
<polygon fill="#000000" stroke="#000000" points="1354.8204,-158.5001 1344.8204,-162 1354.8203,-165.5001 1354.8204,-158.5001"/>
</g>
<!-- SearchOrderMenuComponent  -->
<g id="node8" class="node">
<title>SearchOrderMenuComponent </title>
<polygon fill="#fb8072" stroke="#000000" points="1357.2211,-252 1168.7789,-252 1168.7789,-216 1357.2211,-216 1357.2211,-252"/>
<text text-anchor="middle" x="1263" y="-229.8" font-family="Times,serif" font-size="14.00" fill="#000000">SearchOrderMenuComponent </text>
</g>
<!-- SearchOrderMenuModule&#45;&gt;SearchOrderMenuComponent  -->
<g id="edge7" class="edge">
<title>SearchOrderMenuModule&#45;&gt;SearchOrderMenuComponent </title>
<path fill="none" stroke="#000000" stroke-dasharray="5,2" d="M1263,-187.1061C1263,-187.1061 1263,-205.991 1263,-205.991"/>
<polygon fill="#000000" stroke="#000000" points="1259.5001,-205.9909 1263,-215.991 1266.5001,-205.991 1259.5001,-205.9909"/>
</g>
<!-- MaterialModule -->
<g id="node7" class="node">
<title>MaterialModule</title>
<polygon fill="#8dd3c7" stroke="#000000" points="1468.4706,-122 1465.4706,-126 1444.4706,-126 1441.4706,-122 1361.5294,-122 1361.5294,-86 1468.4706,-86 1468.4706,-122"/>
<text text-anchor="middle" x="1415" y="-99.8" font-family="Times,serif" font-size="14.00" fill="#000000">MaterialModule</text>
</g>
<!-- MaterialModule&#45;&gt;SearchOrderMenuModule -->
<g id="edge6" class="edge">
<title>MaterialModule&#45;&gt;SearchOrderMenuModule</title>
<path fill="none" stroke="#000000" d="M1415,-122.2396C1415,-137.5706 1415,-157 1415,-157 1415,-157 1354.7841,-157 1354.7841,-157"/>
<polygon fill="#000000" stroke="#000000" points="1354.7841,-153.5001 1344.7841,-157 1354.7841,-160.5001 1354.7841,-153.5001"/>
</g>
<!-- EndpointService -->
<g id="node9" class="node">
<title>EndpointService</title>
<ellipse fill="#fdb462" stroke="#000000" cx="1263" cy="-104" rx="75.3021" ry="18"/>
<text text-anchor="middle" x="1263" y="-99.8" font-family="Times,serif" font-size="14.00" fill="#000000">EndpointService</text>
</g>
<!-- EndpointService&#45;&gt;SearchOrderMenuModule -->
<g id="edge8" class="edge">
<title>EndpointService&#45;&gt;SearchOrderMenuModule</title>
<path fill="none" stroke="#000000" d="M1263,-122.1061C1263,-122.1061 1263,-140.991 1263,-140.991"/>
<polygon fill="#000000" stroke="#000000" points="1259.5001,-140.9909 1263,-150.991 1266.5001,-140.991 1259.5001,-140.9909"/>
</g>
<!-- UserService -->
<g id="node10" class="node">
<title>UserService</title>
<ellipse fill="#fdb462" stroke="#000000" cx="1111" cy="-104" rx="58.4415" ry="18"/>
<text text-anchor="middle" x="1111" y="-99.8" font-family="Times,serif" font-size="14.00" fill="#000000">UserService</text>
</g>
<!-- UserService&#45;&gt;SearchOrderMenuModule -->
<g id="edge9" class="edge">
<title>UserService&#45;&gt;SearchOrderMenuModule</title>
<path fill="none" stroke="#000000" d="M1110.8346,-122.2396C1110.8346,-137.5706 1110.8346,-157 1110.8346,-157 1110.8346,-157 1171.1269,-157 1171.1269,-157"/>
<polygon fill="#000000" stroke="#000000" points="1171.1269,-160.5001 1181.1269,-157 1171.1269,-153.5001 1171.1269,-160.5001"/>
</g>
<!-- SearchOrderMenuService -->
<g id="node11" class="node">
<title>SearchOrderMenuService</title>
<ellipse fill="#fdb462" stroke="#000000" cx="923" cy="-104" rx="111.1153" ry="18"/>
<text text-anchor="middle" x="923" y="-99.8" font-family="Times,serif" font-size="14.00" fill="#000000">SearchOrderMenuService</text>
</g>
<!-- SearchOrderMenuService&#45;&gt;SearchOrderMenuModule -->
<g id="edge10" class="edge">
<title>SearchOrderMenuService&#45;&gt;SearchOrderMenuModule</title>
<path fill="none" stroke="#000000" d="M923,-122.0336C923,-139.0597 923,-162 923,-162 923,-162 1171.5615,-162 1171.5615,-162"/>
<polygon fill="#000000" stroke="#000000" points="1171.5616,-165.5001 1181.5615,-162 1171.5615,-158.5001 1171.5616,-165.5001"/>
</g>
<!-- EventEmitterOrders -->
<g id="node12" class="node">
<title>EventEmitterOrders</title>
<ellipse fill="#fdb462" stroke="#000000" cx="705" cy="-104" rx="88.5986" ry="18"/>
<text text-anchor="middle" x="705" y="-99.8" font-family="Times,serif" font-size="14.00" fill="#000000">EventEmitterOrders</text>
</g>
<!-- EventEmitterOrders&#45;&gt;SearchOrderMenuModule -->
<g id="edge11" class="edge">
<title>EventEmitterOrders&#45;&gt;SearchOrderMenuModule</title>
<path fill="none" stroke="#000000" d="M705,-122.2222C705,-140.8285 705,-167 705,-167 705,-167 1171.2644,-167 1171.2644,-167"/>
<polygon fill="#000000" stroke="#000000" points="1171.2645,-170.5001 1181.2644,-167 1171.2644,-163.5001 1171.2645,-170.5001"/>
</g>
<!-- ComponentsService -->
<g id="node13" class="node">
<title>ComponentsService</title>
<ellipse fill="#fdb462" stroke="#000000" cx="509" cy="-104" rx="88.6255" ry="18"/>
<text text-anchor="middle" x="509" y="-99.8" font-family="Times,serif" font-size="14.00" fill="#000000">ComponentsService</text>
</g>
<!-- ComponentsService&#45;&gt;SearchOrderMenuModule -->
<g id="edge12" class="edge">
<title>ComponentsService&#45;&gt;SearchOrderMenuModule</title>
<path fill="none" stroke="#000000" d="M509,-122.2228C509,-142.3652 509,-172 509,-172 509,-172 1171.2332,-172 1171.2332,-172"/>
<polygon fill="#000000" stroke="#000000" points="1171.2333,-175.5001 1181.2332,-172 1171.2332,-168.5001 1171.2333,-175.5001"/>
</g>
<!-- BillingService -->
<g id="node14" class="node">
<title>BillingService</title>
<ellipse fill="#fdb462" stroke="#000000" cx="335" cy="-104" rx="66.6479" ry="18"/>
<text text-anchor="middle" x="335" y="-99.8" font-family="Times,serif" font-size="14.00" fill="#000000">BillingService</text>
</g>
<!-- BillingService&#45;&gt;SearchOrderMenuModule -->
<g id="edge13" class="edge">
<title>BillingService&#45;&gt;SearchOrderMenuModule</title>
<path fill="none" stroke="#000000" d="M335,-122.0449C335,-143.6623 335,-177 335,-177 335,-177 1171.4595,-177 1171.4595,-177"/>
<polygon fill="#000000" stroke="#000000" points="1171.4596,-180.5001 1181.4595,-177 1171.4595,-173.5001 1171.4596,-180.5001"/>
</g>
<!-- HttpErrorHandlingService -->
<g id="node15" class="node">
<title>HttpErrorHandlingService</title>
<ellipse fill="#fdb462" stroke="#000000" cx="137" cy="-104" rx="113.4412" ry="18"/>
<text text-anchor="middle" x="137" y="-99.8" font-family="Times,serif" font-size="14.00" fill="#000000">HttpErrorHandlingService</text>
</g>
<!-- HttpErrorHandlingService&#45;&gt;SearchOrderMenuModule -->
<g id="edge14" class="edge">
<title>HttpErrorHandlingService&#45;&gt;SearchOrderMenuModule</title>
<path fill="none" stroke="#000000" d="M137,-122.0908C137,-145.1328 137,-182 137,-182 137,-182 1171.1139,-182 1171.1139,-182"/>
<polygon fill="#000000" stroke="#000000" points="1171.1139,-185.5001 1181.1139,-182 1171.1138,-178.5001 1171.1139,-185.5001"/>
</g>
</g>
</svg>
