<?xml version="1.0" encoding="UTF-8" standalone="no"?>
<!DOCTYPE svg PUBLIC "-//W3C//DTD SVG 1.1//EN"
 "http://www.w3.org/Graphics/SVG/1.1/DTD/svg11.dtd">
<!-- Generated by graphviz version 2.40.1 (20161225.0304)
 -->
<!-- Title: dependencies Pages: 1 -->
<svg width="2807pt" height="284pt"
 viewBox="0.00 0.00 2807.00 284.00" xmlns="http://www.w3.org/2000/svg" xmlns:xlink="http://www.w3.org/1999/xlink">
<g id="graph0" class="graph" transform="scale(1 1) rotate(0) translate(4 280)">
<title>dependencies</title>
<polygon fill="#ffffff" stroke="transparent" points="-4,4 -4,-280 2803,-280 2803,4 -4,4"/>
<text text-anchor="start" x="1378.5091" y="-42.4" font-family="sans-serif" font-weight="bold" font-size="14.00" fill="#000000">Legend</text>
<polygon fill="#ffffb3" stroke="transparent" points="1165.5,-10 1165.5,-30 1185.5,-30 1185.5,-10 1165.5,-10"/>
<text text-anchor="start" x="1189.129" y="-15.4" font-family="sans-serif" font-size="14.00" fill="#000000"> &#160;Declarations</text>
<polygon fill="#8dd3c7" stroke="transparent" points="1278.5,-10 1278.5,-30 1298.5,-30 1298.5,-10 1278.5,-10"/>
<text text-anchor="start" x="1302.2251" y="-15.4" font-family="sans-serif" font-size="14.00" fill="#000000"> &#160;Module</text>
<polygon fill="#80b1d3" stroke="transparent" points="1364.5,-10 1364.5,-30 1384.5,-30 1384.5,-10 1364.5,-10"/>
<text text-anchor="start" x="1388.2812" y="-15.4" font-family="sans-serif" font-size="14.00" fill="#000000"> &#160;Bootstrap</text>
<polygon fill="#fdb462" stroke="transparent" points="1461.5,-10 1461.5,-30 1481.5,-30 1481.5,-10 1461.5,-10"/>
<text text-anchor="start" x="1485.1732" y="-15.4" font-family="sans-serif" font-size="14.00" fill="#000000"> &#160;Providers</text>
<polygon fill="#fb8072" stroke="transparent" points="1557.5,-10 1557.5,-30 1577.5,-30 1577.5,-10 1557.5,-10"/>
<text text-anchor="start" x="1581.2258" y="-15.4" font-family="sans-serif" font-size="14.00" fill="#000000"> &#160;Exports</text>
<g id="clust1" class="cluster">
<title>cluster_BillingModule</title>
<polygon fill="none" stroke="#000000" stroke-dasharray="1,5" points="8,-70 8,-268 2791,-268 2791,-70 8,-70"/>
</g>
<g id="clust2" class="cluster">
<title>cluster_BillingModule_declarations</title>
<polygon fill="none" stroke="#000000" points="1933,-78 1933,-130 2783,-130 2783,-78 1933,-78"/>
</g>
<g id="clust7" class="cluster">
<title>cluster_BillingModule_imports</title>
<polygon fill="none" stroke="#000000" points="1113,-78 1113,-130 1925,-130 1925,-78 1113,-78"/>
</g>
<g id="clust8" class="cluster">
<title>cluster_BillingModule_exports</title>
<polygon fill="none" stroke="#000000" points="848,-208 848,-260 1713,-260 1713,-208 848,-208"/>
</g>
<g id="clust10" class="cluster">
<title>cluster_BillingModule_providers</title>
<polygon fill="none" stroke="#000000" points="16,-78 16,-130 1105,-130 1105,-78 16,-78"/>
</g>
<!-- BillingComponent -->
<g id="node1" class="node">
<title>BillingComponent</title>
<polygon fill="#ffffb3" stroke="#000000" points="2775.2316,-122 2654.7684,-122 2654.7684,-86 2775.2316,-86 2775.2316,-122"/>
<text text-anchor="middle" x="2715" y="-99.8" font-family="Times,serif" font-size="14.00" fill="#000000">BillingComponent</text>
</g>
<!-- BillingModule -->
<g id="node5" class="node">
<title>BillingModule</title>
<polygon fill="#8dd3c7" stroke="#000000" points="1392.4498,-187 1389.4498,-191 1368.4498,-191 1365.4498,-187 1293.5502,-187 1293.5502,-151 1392.4498,-151 1392.4498,-187"/>
<text text-anchor="middle" x="1343" y="-164.8" font-family="Times,serif" font-size="14.00" fill="#000000">BillingModule</text>
</g>
<!-- BillingComponent&#45;&gt;BillingModule -->
<g id="edge1" class="edge">
<title>BillingComponent&#45;&gt;BillingModule</title>
<path fill="none" stroke="#000000" d="M2715,-122.1554C2715,-144.3519 2715,-179 2715,-179 2715,-179 1402.2347,-179 1402.2347,-179"/>
<polygon fill="#000000" stroke="#000000" points="1402.2348,-175.5001 1392.2347,-179 1402.2347,-182.5001 1402.2348,-175.5001"/>
</g>
<!-- BillingProductsOrderComponent -->
<g id="node2" class="node">
<title>BillingProductsOrderComponent</title>
<polygon fill="#ffffb3" stroke="#000000" points="2636.8668,-122 2435.1332,-122 2435.1332,-86 2636.8668,-86 2636.8668,-122"/>
<text text-anchor="middle" x="2536" y="-99.8" font-family="Times,serif" font-size="14.00" fill="#000000">BillingProductsOrderComponent</text>
</g>
<!-- BillingProductsOrderComponent&#45;&gt;BillingModule -->
<g id="edge2" class="edge">
<title>BillingProductsOrderComponent&#45;&gt;BillingModule</title>
<path fill="none" stroke="#000000" d="M2536,-122.2843C2536,-143.3211 2536,-175 2536,-175 2536,-175 1402.3664,-175 1402.3664,-175"/>
<polygon fill="#000000" stroke="#000000" points="1402.3664,-171.5001 1392.3664,-175 1402.3663,-178.5001 1402.3664,-171.5001"/>
</g>
<!-- OrderBillingDetailModalComponent -->
<g id="node3" class="node">
<title>OrderBillingDetailModalComponent</title>
<polygon fill="#ffffb3" stroke="#000000" points="2416.6315,-122 2193.3685,-122 2193.3685,-86 2416.6315,-86 2416.6315,-122"/>
<text text-anchor="middle" x="2305" y="-99.8" font-family="Times,serif" font-size="14.00" fill="#000000">OrderBillingDetailModalComponent</text>
</g>
<!-- OrderBillingDetailModalComponent&#45;&gt;BillingModule -->
<g id="edge3" class="edge">
<title>OrderBillingDetailModalComponent&#45;&gt;BillingModule</title>
<path fill="none" stroke="#000000" d="M2305,-122.308C2305,-142.1455 2305,-171 2305,-171 2305,-171 1402.3614,-171 1402.3614,-171"/>
<polygon fill="#000000" stroke="#000000" points="1402.3615,-167.5001 1392.3614,-171 1402.3614,-174.5001 1402.3615,-167.5001"/>
</g>
<!-- ProductDetailBillingModalComponent -->
<g id="node4" class="node">
<title>ProductDetailBillingModalComponent</title>
<polygon fill="#ffffb3" stroke="#000000" points="2175.0377,-122 1940.9623,-122 1940.9623,-86 2175.0377,-86 2175.0377,-122"/>
<text text-anchor="middle" x="2058" y="-99.8" font-family="Times,serif" font-size="14.00" fill="#000000">ProductDetailBillingModalComponent</text>
</g>
<!-- ProductDetailBillingModalComponent&#45;&gt;BillingModule -->
<g id="edge4" class="edge">
<title>ProductDetailBillingModalComponent&#45;&gt;BillingModule</title>
<path fill="none" stroke="#000000" d="M2058,-122.2222C2058,-140.8285 2058,-167 2058,-167 2058,-167 1402.4269,-167 1402.4269,-167"/>
<polygon fill="#000000" stroke="#000000" points="1402.427,-163.5001 1392.4269,-167 1402.4269,-170.5001 1402.427,-163.5001"/>
</g>
<!-- BillingComponent  -->
<g id="node11" class="node">
<title>BillingComponent </title>
<polygon fill="#fb8072" stroke="#000000" points="1704.7317,-252 1581.2683,-252 1581.2683,-216 1704.7317,-216 1704.7317,-252"/>
<text text-anchor="middle" x="1643" y="-229.8" font-family="Times,serif" font-size="14.00" fill="#000000">BillingComponent </text>
</g>
<!-- BillingModule&#45;&gt;BillingComponent  -->
<g id="edge10" class="edge">
<title>BillingModule&#45;&gt;BillingComponent </title>
<path fill="none" stroke="#000000" stroke-dasharray="5,2" d="M1392.2935,-183C1463.0931,-183 1585.145,-183 1585.145,-183 1585.145,-183 1585.145,-205.8757 1585.145,-205.8757"/>
<polygon fill="#000000" stroke="#000000" points="1581.6451,-205.8757 1585.145,-215.8757 1588.6451,-205.8757 1581.6451,-205.8757"/>
</g>
<!-- BillingProductsOrderComponent  -->
<g id="node12" class="node">
<title>BillingProductsOrderComponent </title>
<polygon fill="#fb8072" stroke="#000000" points="1562.8671,-252 1357.1329,-252 1357.1329,-216 1562.8671,-216 1562.8671,-252"/>
<text text-anchor="middle" x="1460" y="-229.8" font-family="Times,serif" font-size="14.00" fill="#000000">BillingProductsOrderComponent </text>
</g>
<!-- BillingModule&#45;&gt;BillingProductsOrderComponent  -->
<g id="edge11" class="edge">
<title>BillingModule&#45;&gt;BillingProductsOrderComponent </title>
<path fill="none" stroke="#000000" stroke-dasharray="5,2" d="M1374.7705,-187.1061C1374.7705,-187.1061 1374.7705,-205.991 1374.7705,-205.991"/>
<polygon fill="#000000" stroke="#000000" points="1371.2706,-205.9909 1374.7705,-215.991 1378.2706,-205.991 1371.2706,-205.9909"/>
</g>
<!-- OrderBillingDetailModalComponent  -->
<g id="node13" class="node">
<title>OrderBillingDetailModalComponent </title>
<polygon fill="#fb8072" stroke="#000000" points="1339.6312,-252 1112.3688,-252 1112.3688,-216 1339.6312,-216 1339.6312,-252"/>
<text text-anchor="middle" x="1226" y="-229.8" font-family="Times,serif" font-size="14.00" fill="#000000">OrderBillingDetailModalComponent </text>
</g>
<!-- BillingModule&#45;&gt;OrderBillingDetailModalComponent  -->
<g id="edge12" class="edge">
<title>BillingModule&#45;&gt;OrderBillingDetailModalComponent </title>
<path fill="none" stroke="#000000" stroke-dasharray="5,2" d="M1316.6706,-187.1061C1316.6706,-187.1061 1316.6706,-205.991 1316.6706,-205.991"/>
<polygon fill="#000000" stroke="#000000" points="1313.1707,-205.9909 1316.6706,-215.991 1320.1707,-205.991 1313.1707,-205.9909"/>
</g>
<!-- ProductDetailBillingModalComponent  -->
<g id="node14" class="node">
<title>ProductDetailBillingModalComponent </title>
<polygon fill="#fb8072" stroke="#000000" points="1094.0372,-252 855.9628,-252 855.9628,-216 1094.0372,-216 1094.0372,-252"/>
<text text-anchor="middle" x="975" y="-229.8" font-family="Times,serif" font-size="14.00" fill="#000000">ProductDetailBillingModalComponent </text>
</g>
<!-- BillingModule&#45;&gt;ProductDetailBillingModalComponent  -->
<g id="edge13" class="edge">
<title>BillingModule&#45;&gt;ProductDetailBillingModalComponent </title>
<path fill="none" stroke="#000000" stroke-dasharray="5,2" d="M1293.7522,-183C1200.3667,-183 1006.7904,-183 1006.7904,-183 1006.7904,-183 1006.7904,-205.8757 1006.7904,-205.8757"/>
<polygon fill="#000000" stroke="#000000" points="1003.2905,-205.8757 1006.7904,-215.8757 1010.2905,-205.8757 1003.2905,-205.8757"/>
</g>
<!-- BillingRoutingModule -->
<g id="node6" class="node">
<title>BillingRoutingModule</title>
<polygon fill="#8dd3c7" stroke="#000000" points="1916.5673,-122 1913.5673,-126 1892.5673,-126 1889.5673,-122 1773.4327,-122 1773.4327,-86 1916.5673,-86 1916.5673,-122"/>
<text text-anchor="middle" x="1845" y="-99.8" font-family="Times,serif" font-size="14.00" fill="#000000">BillingRoutingModule</text>
</g>
<!-- BillingRoutingModule&#45;&gt;BillingModule -->
<g id="edge5" class="edge">
<title>BillingRoutingModule&#45;&gt;BillingModule</title>
<path fill="none" stroke="#000000" d="M1845,-122.0225C1845,-139.3734 1845,-163 1845,-163 1845,-163 1402.5075,-163 1402.5075,-163"/>
<polygon fill="#000000" stroke="#000000" points="1402.5076,-159.5001 1392.5075,-163 1402.5075,-166.5001 1402.5076,-159.5001"/>
</g>
<!-- ToolbarOptionsModule -->
<g id="node7" class="node">
<title>ToolbarOptionsModule</title>
<polygon fill="#8dd3c7" stroke="#000000" points="1755.2007,-122 1752.2007,-126 1731.2007,-126 1728.2007,-122 1606.7993,-122 1606.7993,-86 1755.2007,-86 1755.2007,-122"/>
<text text-anchor="middle" x="1681" y="-99.8" font-family="Times,serif" font-size="14.00" fill="#000000">ToolbarOptionsModule</text>
</g>
<!-- ToolbarOptionsModule&#45;&gt;BillingModule -->
<g id="edge6" class="edge">
<title>ToolbarOptionsModule&#45;&gt;BillingModule</title>
<path fill="none" stroke="#000000" d="M1655.8827,-122.0091C1655.8827,-138.0494 1655.8827,-159 1655.8827,-159 1655.8827,-159 1402.2321,-159 1402.2321,-159"/>
<polygon fill="#000000" stroke="#000000" points="1402.2321,-155.5001 1392.2321,-159 1402.2321,-162.5001 1402.2321,-155.5001"/>
</g>
<!-- ToolbarLinkModule -->
<g id="node8" class="node">
<title>ToolbarLinkModule</title>
<polygon fill="#8dd3c7" stroke="#000000" points="1589.3118,-122 1586.3118,-126 1565.3118,-126 1562.3118,-122 1458.6882,-122 1458.6882,-86 1589.3118,-86 1589.3118,-122"/>
<text text-anchor="middle" x="1524" y="-99.8" font-family="Times,serif" font-size="14.00" fill="#000000">ToolbarLinkModule</text>
</g>
<!-- ToolbarLinkModule&#45;&gt;BillingModule -->
<g id="edge7" class="edge">
<title>ToolbarLinkModule&#45;&gt;BillingModule</title>
<path fill="none" stroke="#000000" d="M1510.7638,-122.1243C1510.7638,-136.7832 1510.7638,-155 1510.7638,-155 1510.7638,-155 1402.4273,-155 1402.4273,-155"/>
<polygon fill="#000000" stroke="#000000" points="1402.4273,-151.5001 1392.4273,-155 1402.4273,-158.5001 1402.4273,-151.5001"/>
</g>
<!-- CdkDetailRowDirectiveModule -->
<g id="node9" class="node">
<title>CdkDetailRowDirectiveModule</title>
<polygon fill="#8dd3c7" stroke="#000000" points="1440.6204,-122 1437.6204,-126 1416.6204,-126 1413.6204,-122 1245.3796,-122 1245.3796,-86 1440.6204,-86 1440.6204,-122"/>
<text text-anchor="middle" x="1343" y="-99.8" font-family="Times,serif" font-size="14.00" fill="#000000">CdkDetailRowDirectiveModule</text>
</g>
<!-- CdkDetailRowDirectiveModule&#45;&gt;BillingModule -->
<g id="edge8" class="edge">
<title>CdkDetailRowDirectiveModule&#45;&gt;BillingModule</title>
<path fill="none" stroke="#000000" d="M1343,-122.1061C1343,-122.1061 1343,-140.991 1343,-140.991"/>
<polygon fill="#000000" stroke="#000000" points="1339.5001,-140.9909 1343,-150.991 1346.5001,-140.991 1339.5001,-140.9909"/>
</g>
<!-- MaterialModule -->
<g id="node10" class="node">
<title>MaterialModule</title>
<polygon fill="#8dd3c7" stroke="#000000" points="1227.4706,-122 1224.4706,-126 1203.4706,-126 1200.4706,-122 1120.5294,-122 1120.5294,-86 1227.4706,-86 1227.4706,-122"/>
<text text-anchor="middle" x="1174" y="-99.8" font-family="Times,serif" font-size="14.00" fill="#000000">MaterialModule</text>
</g>
<!-- MaterialModule&#45;&gt;BillingModule -->
<g id="edge9" class="edge">
<title>MaterialModule&#45;&gt;BillingModule</title>
<path fill="none" stroke="#000000" d="M1174,-122.1243C1174,-136.7832 1174,-155 1174,-155 1174,-155 1283.6639,-155 1283.6639,-155"/>
<polygon fill="#000000" stroke="#000000" points="1283.6639,-158.5001 1293.6639,-155 1283.6639,-151.5001 1283.6639,-158.5001"/>
</g>
<!-- BillingService -->
<g id="node15" class="node">
<title>BillingService</title>
<ellipse fill="#fdb462" stroke="#000000" cx="1030" cy="-104" rx="66.6479" ry="18"/>
<text text-anchor="middle" x="1030" y="-99.8" font-family="Times,serif" font-size="14.00" fill="#000000">BillingService</text>
</g>
<!-- BillingService&#45;&gt;BillingModule -->
<g id="edge14" class="edge">
<title>BillingService&#45;&gt;BillingModule</title>
<path fill="none" stroke="#000000" d="M1050.4045,-121.4023C1050.4045,-137.5156 1050.4045,-159 1050.4045,-159 1050.4045,-159 1283.696,-159 1283.696,-159"/>
<polygon fill="#000000" stroke="#000000" points="1283.6961,-162.5001 1293.696,-159 1283.696,-155.5001 1283.6961,-162.5001"/>
</g>
<!-- EndpointService -->
<g id="node16" class="node">
<title>EndpointService</title>
<ellipse fill="#fdb462" stroke="#000000" cx="870" cy="-104" rx="75.3021" ry="18"/>
<text text-anchor="middle" x="870" y="-99.8" font-family="Times,serif" font-size="14.00" fill="#000000">EndpointService</text>
</g>
<!-- EndpointService&#45;&gt;BillingModule -->
<g id="edge15" class="edge">
<title>EndpointService&#45;&gt;BillingModule</title>
<path fill="none" stroke="#000000" d="M900.6912,-120.7492C900.6912,-138.1922 900.6912,-163 900.6912,-163 900.6912,-163 1283.549,-163 1283.549,-163"/>
<polygon fill="#000000" stroke="#000000" points="1283.5491,-166.5001 1293.549,-163 1283.549,-159.5001 1283.5491,-166.5001"/>
</g>
<!-- UserService -->
<g id="node17" class="node">
<title>UserService</title>
<ellipse fill="#fdb462" stroke="#000000" cx="718" cy="-104" rx="58.4415" ry="18"/>
<text text-anchor="middle" x="718" y="-99.8" font-family="Times,serif" font-size="14.00" fill="#000000">UserService</text>
</g>
<!-- UserService&#45;&gt;BillingModule -->
<g id="edge16" class="edge">
<title>UserService&#45;&gt;BillingModule</title>
<path fill="none" stroke="#000000" d="M718,-122.2222C718,-140.8285 718,-167 718,-167 718,-167 1283.6964,-167 1283.6964,-167"/>
<polygon fill="#000000" stroke="#000000" points="1283.6964,-170.5001 1293.6964,-167 1283.6963,-163.5001 1283.6964,-170.5001"/>
</g>
<!-- ComponentsService -->
<g id="node18" class="node">
<title>ComponentsService</title>
<ellipse fill="#fdb462" stroke="#000000" cx="553" cy="-104" rx="88.6255" ry="18"/>
<text text-anchor="middle" x="553" y="-99.8" font-family="Times,serif" font-size="14.00" fill="#000000">ComponentsService</text>
</g>
<!-- ComponentsService&#45;&gt;BillingModule -->
<g id="edge17" class="edge">
<title>ComponentsService&#45;&gt;BillingModule</title>
<path fill="none" stroke="#000000" d="M553,-122.308C553,-142.1455 553,-171 553,-171 553,-171 1283.582,-171 1283.582,-171"/>
<polygon fill="#000000" stroke="#000000" points="1283.582,-174.5001 1293.582,-171 1283.5819,-167.5001 1283.582,-174.5001"/>
</g>
<!-- EventEmitterOrders -->
<g id="node19" class="node">
<title>EventEmitterOrders</title>
<ellipse fill="#fdb462" stroke="#000000" cx="357" cy="-104" rx="88.5986" ry="18"/>
<text text-anchor="middle" x="357" y="-99.8" font-family="Times,serif" font-size="14.00" fill="#000000">EventEmitterOrders</text>
</g>
<!-- EventEmitterOrders&#45;&gt;BillingModule -->
<g id="edge18" class="edge">
<title>EventEmitterOrders&#45;&gt;BillingModule</title>
<path fill="none" stroke="#000000" d="M357,-122.2843C357,-143.3211 357,-175 357,-175 357,-175 1283.7668,-175 1283.7668,-175"/>
<polygon fill="#000000" stroke="#000000" points="1283.7668,-178.5001 1293.7668,-175 1283.7667,-171.5001 1283.7668,-178.5001"/>
</g>
<!-- HttpErrorHandlingService -->
<g id="node20" class="node">
<title>HttpErrorHandlingService</title>
<ellipse fill="#fdb462" stroke="#000000" cx="137" cy="-104" rx="113.4412" ry="18"/>
<text text-anchor="middle" x="137" y="-99.8" font-family="Times,serif" font-size="14.00" fill="#000000">HttpErrorHandlingService</text>
</g>
<!-- HttpErrorHandlingService&#45;&gt;BillingModule -->
<g id="edge19" class="edge">
<title>HttpErrorHandlingService&#45;&gt;BillingModule</title>
<path fill="none" stroke="#000000" d="M137,-122.1554C137,-144.3519 137,-179 137,-179 137,-179 1283.475,-179 1283.475,-179"/>
<polygon fill="#000000" stroke="#000000" points="1283.475,-182.5001 1293.475,-179 1283.475,-175.5001 1283.475,-182.5001"/>
</g>
</g>
</svg>
