<?xml version="1.0" encoding="UTF-8" standalone="no"?>
<!DOCTYPE svg PUBLIC "-//W3C//DTD SVG 1.1//EN"
 "http://www.w3.org/Graphics/SVG/1.1/DTD/svg11.dtd">
<!-- Generated by graphviz version 2.40.1 (20161225.0304)
 -->
<!-- Title: dependencies Pages: 1 -->
<svg width="1269pt" height="211pt"
 viewBox="0.00 0.00 1269.00 211.00" xmlns="http://www.w3.org/2000/svg" xmlns:xlink="http://www.w3.org/1999/xlink">
<g id="graph0" class="graph" transform="scale(1 1) rotate(0) translate(4 207)">
<title>dependencies</title>
<polygon fill="#ffffff" stroke="transparent" points="-4,4 -4,-207 1265,-207 1265,4 -4,4"/>
<text text-anchor="start" x="609.5091" y="-42.4" font-family="sans-serif" font-weight="bold" font-size="14.00" fill="#000000">Legend</text>
<polygon fill="#ffffb3" stroke="transparent" points="396.5,-10 396.5,-30 416.5,-30 416.5,-10 396.5,-10"/>
<text text-anchor="start" x="420.129" y="-15.4" font-family="sans-serif" font-size="14.00" fill="#000000"> &#160;Declarations</text>
<polygon fill="#8dd3c7" stroke="transparent" points="509.5,-10 509.5,-30 529.5,-30 529.5,-10 509.5,-10"/>
<text text-anchor="start" x="533.2251" y="-15.4" font-family="sans-serif" font-size="14.00" fill="#000000"> &#160;Module</text>
<polygon fill="#80b1d3" stroke="transparent" points="595.5,-10 595.5,-30 615.5,-30 615.5,-10 595.5,-10"/>
<text text-anchor="start" x="619.2812" y="-15.4" font-family="sans-serif" font-size="14.00" fill="#000000"> &#160;Bootstrap</text>
<polygon fill="#fdb462" stroke="transparent" points="692.5,-10 692.5,-30 712.5,-30 712.5,-10 692.5,-10"/>
<text text-anchor="start" x="716.1732" y="-15.4" font-family="sans-serif" font-size="14.00" fill="#000000"> &#160;Providers</text>
<polygon fill="#fb8072" stroke="transparent" points="788.5,-10 788.5,-30 808.5,-30 808.5,-10 788.5,-10"/>
<text text-anchor="start" x="812.2258" y="-15.4" font-family="sans-serif" font-size="14.00" fill="#000000"> &#160;Exports</text>
<g id="clust1" class="cluster">
<title>cluster_ErrroModule</title>
<polygon fill="none" stroke="#000000" stroke-dasharray="1,5" points="8,-70 8,-195 1253,-195 1253,-70 8,-70"/>
</g>
<g id="clust2" class="cluster">
<title>cluster_ErrroModule_declarations</title>
<polygon fill="none" stroke="#000000" points="1091,-78 1091,-130 1245,-130 1245,-78 1091,-78"/>
</g>
<g id="clust4" class="cluster">
<title>cluster_ErrroModule_imports</title>
<polygon fill="none" stroke="#000000" points="961,-78 961,-130 1083,-130 1083,-78 961,-78"/>
</g>
<g id="clust7" class="cluster">
<title>cluster_ErrroModule_providers</title>
<polygon fill="none" stroke="#000000" points="16,-78 16,-130 953,-130 953,-78 16,-78"/>
</g>
<!-- ErrorPageComponent -->
<g id="node1" class="node">
<title>ErrorPageComponent</title>
<polygon fill="#ffffb3" stroke="#000000" points="1237.0786,-122 1098.9214,-122 1098.9214,-86 1237.0786,-86 1237.0786,-122"/>
<text text-anchor="middle" x="1168" y="-99.8" font-family="Times,serif" font-size="14.00" fill="#000000">ErrorPageComponent</text>
</g>
<!-- ErrroModule -->
<g id="node2" class="node">
<title>ErrroModule</title>
<polygon fill="#8dd3c7" stroke="#000000" points="779.5842,-187 776.5842,-191 755.5842,-191 752.5842,-187 690.4158,-187 690.4158,-151 779.5842,-151 779.5842,-187"/>
<text text-anchor="middle" x="735" y="-164.8" font-family="Times,serif" font-size="14.00" fill="#000000">ErrroModule</text>
</g>
<!-- ErrorPageComponent&#45;&gt;ErrroModule -->
<g id="edge1" class="edge">
<title>ErrorPageComponent&#45;&gt;ErrroModule</title>
<path fill="none" stroke="#000000" d="M1168,-122.2921C1168,-144.2057 1168,-178 1168,-178 1168,-178 789.7077,-178 789.7077,-178"/>
<polygon fill="#000000" stroke="#000000" points="789.7078,-174.5001 779.7077,-178 789.7077,-181.5001 789.7078,-174.5001"/>
</g>
<!-- MaterialModule -->
<g id="node3" class="node">
<title>MaterialModule</title>
<polygon fill="#8dd3c7" stroke="#000000" points="1075.4706,-122 1072.4706,-126 1051.4706,-126 1048.4706,-122 968.5294,-122 968.5294,-86 1075.4706,-86 1075.4706,-122"/>
<text text-anchor="middle" x="1022" y="-99.8" font-family="Times,serif" font-size="14.00" fill="#000000">MaterialModule</text>
</g>
<!-- MaterialModule&#45;&gt;ErrroModule -->
<g id="edge2" class="edge">
<title>MaterialModule&#45;&gt;ErrroModule</title>
<path fill="none" stroke="#000000" d="M1022,-122.1061C1022,-141.3391 1022,-169 1022,-169 1022,-169 789.8438,-169 789.8438,-169"/>
<polygon fill="#000000" stroke="#000000" points="789.8438,-165.5001 779.8438,-169 789.8437,-172.5001 789.8438,-165.5001"/>
</g>
<!-- UserService -->
<g id="node4" class="node">
<title>UserService</title>
<ellipse fill="#fdb462" stroke="#000000" cx="887" cy="-104" rx="58.4415" ry="18"/>
<text text-anchor="middle" x="887" y="-99.8" font-family="Times,serif" font-size="14.00" fill="#000000">UserService</text>
</g>
<!-- UserService&#45;&gt;ErrroModule -->
<g id="edge3" class="edge">
<title>UserService&#45;&gt;ErrroModule</title>
<path fill="none" stroke="#000000" d="M887,-122.027C887,-138.3976 887,-160 887,-160 887,-160 789.7829,-160 789.7829,-160"/>
<polygon fill="#000000" stroke="#000000" points="789.7829,-156.5001 779.7829,-160 789.7829,-163.5001 789.7829,-156.5001"/>
</g>
<!-- EndpointService -->
<g id="node5" class="node">
<title>EndpointService</title>
<ellipse fill="#fdb462" stroke="#000000" cx="735" cy="-104" rx="75.3021" ry="18"/>
<text text-anchor="middle" x="735" y="-99.8" font-family="Times,serif" font-size="14.00" fill="#000000">EndpointService</text>
</g>
<!-- EndpointService&#45;&gt;ErrroModule -->
<g id="edge4" class="edge">
<title>EndpointService&#45;&gt;ErrroModule</title>
<path fill="none" stroke="#000000" d="M735,-122.1061C735,-122.1061 735,-140.991 735,-140.991"/>
<polygon fill="#000000" stroke="#000000" points="731.5001,-140.9909 735,-150.991 738.5001,-140.991 731.5001,-140.9909"/>
</g>
<!-- EventEmitterOrders -->
<g id="node6" class="node">
<title>EventEmitterOrders</title>
<ellipse fill="#fdb462" stroke="#000000" cx="553" cy="-104" rx="88.5986" ry="18"/>
<text text-anchor="middle" x="553" y="-99.8" font-family="Times,serif" font-size="14.00" fill="#000000">EventEmitterOrders</text>
</g>
<!-- EventEmitterOrders&#45;&gt;ErrroModule -->
<g id="edge5" class="edge">
<title>EventEmitterOrders&#45;&gt;ErrroModule</title>
<path fill="none" stroke="#000000" d="M553,-122.027C553,-138.3976 553,-160 553,-160 553,-160 680.0112,-160 680.0112,-160"/>
<polygon fill="#000000" stroke="#000000" points="680.0113,-163.5001 690.0112,-160 680.0112,-156.5001 680.0113,-163.5001"/>
</g>
<!-- HttpErrorHandlingService -->
<g id="node7" class="node">
<title>HttpErrorHandlingService</title>
<ellipse fill="#fdb462" stroke="#000000" cx="333" cy="-104" rx="113.4412" ry="18"/>
<text text-anchor="middle" x="333" y="-99.8" font-family="Times,serif" font-size="14.00" fill="#000000">HttpErrorHandlingService</text>
</g>
<!-- HttpErrorHandlingService&#45;&gt;ErrroModule -->
<g id="edge6" class="edge">
<title>HttpErrorHandlingService&#45;&gt;ErrroModule</title>
<path fill="none" stroke="#000000" d="M333,-122.1061C333,-141.3391 333,-169 333,-169 333,-169 680.443,-169 680.443,-169"/>
<polygon fill="#000000" stroke="#000000" points="680.443,-172.5001 690.443,-169 680.443,-165.5001 680.443,-172.5001"/>
</g>
<!-- ComponentsService -->
<g id="node8" class="node">
<title>ComponentsService</title>
<ellipse fill="#fdb462" stroke="#000000" cx="113" cy="-104" rx="88.6255" ry="18"/>
<text text-anchor="middle" x="113" y="-99.8" font-family="Times,serif" font-size="14.00" fill="#000000">ComponentsService</text>
</g>
<!-- ComponentsService&#45;&gt;ErrroModule -->
<g id="edge7" class="edge">
<title>ComponentsService&#45;&gt;ErrroModule</title>
<path fill="none" stroke="#000000" d="M113,-122.2921C113,-144.2057 113,-178 113,-178 113,-178 680.2673,-178 680.2673,-178"/>
<polygon fill="#000000" stroke="#000000" points="680.2673,-181.5001 690.2673,-178 680.2673,-174.5001 680.2673,-181.5001"/>
</g>
</g>
</svg>
