<?xml version="1.0" encoding="UTF-8" standalone="no"?>
<!DOCTYPE svg PUBLIC "-//W3C//DTD SVG 1.1//EN"
 "http://www.w3.org/Graphics/SVG/1.1/DTD/svg11.dtd">
<!-- Generated by graphviz version 2.40.1 (20161225.0304)
 -->
<!-- Title: dependencies Pages: 1 -->
<svg width="3069pt" height="284pt"
 viewBox="0.00 0.00 3069.00 284.00" xmlns="http://www.w3.org/2000/svg" xmlns:xlink="http://www.w3.org/1999/xlink">
<g id="graph0" class="graph" transform="scale(1 1) rotate(0) translate(4 280)">
<title>dependencies</title>
<polygon fill="#ffffff" stroke="transparent" points="-4,4 -4,-280 3065,-280 3065,4 -4,4"/>
<text text-anchor="start" x="1509.5091" y="-42.4" font-family="sans-serif" font-weight="bold" font-size="14.00" fill="#000000">Legend</text>
<polygon fill="#ffffb3" stroke="transparent" points="1296.5,-10 1296.5,-30 1316.5,-30 1316.5,-10 1296.5,-10"/>
<text text-anchor="start" x="1320.129" y="-15.4" font-family="sans-serif" font-size="14.00" fill="#000000"> &#160;Declarations</text>
<polygon fill="#8dd3c7" stroke="transparent" points="1409.5,-10 1409.5,-30 1429.5,-30 1429.5,-10 1409.5,-10"/>
<text text-anchor="start" x="1433.2251" y="-15.4" font-family="sans-serif" font-size="14.00" fill="#000000"> &#160;Module</text>
<polygon fill="#80b1d3" stroke="transparent" points="1495.5,-10 1495.5,-30 1515.5,-30 1515.5,-10 1495.5,-10"/>
<text text-anchor="start" x="1519.2812" y="-15.4" font-family="sans-serif" font-size="14.00" fill="#000000"> &#160;Bootstrap</text>
<polygon fill="#fdb462" stroke="transparent" points="1592.5,-10 1592.5,-30 1612.5,-30 1612.5,-10 1592.5,-10"/>
<text text-anchor="start" x="1616.1732" y="-15.4" font-family="sans-serif" font-size="14.00" fill="#000000"> &#160;Providers</text>
<polygon fill="#fb8072" stroke="transparent" points="1688.5,-10 1688.5,-30 1708.5,-30 1708.5,-10 1688.5,-10"/>
<text text-anchor="start" x="1712.2258" y="-15.4" font-family="sans-serif" font-size="14.00" fill="#000000"> &#160;Exports</text>
<g id="clust1" class="cluster">
<title>cluster_PendingDevolutionModule</title>
<polygon fill="none" stroke="#000000" stroke-dasharray="1,5" points="8,-70 8,-268 3053,-268 3053,-70 8,-70"/>
</g>
<g id="clust2" class="cluster">
<title>cluster_PendingDevolutionModule_declarations</title>
<polygon fill="none" stroke="#000000" points="1887,-78 1887,-130 3045,-130 3045,-78 1887,-78"/>
</g>
<g id="clust8" class="cluster">
<title>cluster_PendingDevolutionModule_imports</title>
<polygon fill="none" stroke="#000000" points="1210,-78 1210,-130 1879,-130 1879,-78 1210,-78"/>
</g>
<g id="clust9" class="cluster">
<title>cluster_PendingDevolutionModule_exports</title>
<polygon fill="none" stroke="#000000" points="856,-208 856,-260 2033,-260 2033,-208 856,-208"/>
</g>
<g id="clust11" class="cluster">
<title>cluster_PendingDevolutionModule_providers</title>
<polygon fill="none" stroke="#000000" points="16,-78 16,-130 1202,-130 1202,-78 16,-78"/>
</g>
<!-- PendingDevolutionComponent -->
<g id="node1" class="node">
<title>PendingDevolutionComponent</title>
<polygon fill="#ffffb3" stroke="#000000" points="3037.2133,-122 2846.7867,-122 2846.7867,-86 3037.2133,-86 3037.2133,-122"/>
<text text-anchor="middle" x="2942" y="-99.8" font-family="Times,serif" font-size="14.00" fill="#000000">PendingDevolutionComponent</text>
</g>
<!-- PendingDevolutionModule -->
<g id="node6" class="node">
<title>PendingDevolutionModule</title>
<polygon fill="#8dd3c7" stroke="#000000" points="1492.4312,-187 1489.4312,-191 1468.4312,-191 1465.4312,-187 1323.5688,-187 1323.5688,-151 1492.4312,-151 1492.4312,-187"/>
<text text-anchor="middle" x="1408" y="-164.8" font-family="Times,serif" font-size="14.00" fill="#000000">PendingDevolutionModule</text>
</g>
<!-- PendingDevolutionComponent&#45;&gt;PendingDevolutionModule -->
<g id="edge1" class="edge">
<title>PendingDevolutionComponent&#45;&gt;PendingDevolutionModule</title>
<path fill="none" stroke="#000000" d="M2942,-122.2843C2942,-143.3211 2942,-175 2942,-175 2942,-175 1502.3851,-175 1502.3851,-175"/>
<polygon fill="#000000" stroke="#000000" points="1502.3851,-171.5001 1492.3851,-175 1502.385,-178.5001 1502.3851,-171.5001"/>
</g>
<!-- ProductPendingDevolutionModalComponent -->
<g id="node2" class="node">
<title>ProductPendingDevolutionModalComponent</title>
<polygon fill="#ffffb3" stroke="#000000" points="2829.3116,-122 2558.6884,-122 2558.6884,-86 2829.3116,-86 2829.3116,-122"/>
<text text-anchor="middle" x="2694" y="-99.8" font-family="Times,serif" font-size="14.00" fill="#000000">ProductPendingDevolutionModalComponent</text>
</g>
<!-- ProductPendingDevolutionModalComponent&#45;&gt;PendingDevolutionModule -->
<g id="edge2" class="edge">
<title>ProductPendingDevolutionModalComponent&#45;&gt;PendingDevolutionModule</title>
<path fill="none" stroke="#000000" d="M2694,-122.308C2694,-142.1455 2694,-171 2694,-171 2694,-171 1502.3781,-171 1502.3781,-171"/>
<polygon fill="#000000" stroke="#000000" points="1502.3781,-167.5001 1492.3781,-171 1502.378,-174.5001 1502.3781,-167.5001"/>
</g>
<!-- ActionAcceptDevolutionComponent -->
<g id="node3" class="node">
<title>ActionAcceptDevolutionComponent</title>
<polygon fill="#ffffb3" stroke="#000000" points="2541.0688,-122 2318.9312,-122 2318.9312,-86 2541.0688,-86 2541.0688,-122"/>
<text text-anchor="middle" x="2430" y="-99.8" font-family="Times,serif" font-size="14.00" fill="#000000">ActionAcceptDevolutionComponent</text>
</g>
<!-- ActionAcceptDevolutionComponent&#45;&gt;PendingDevolutionModule -->
<g id="edge3" class="edge">
<title>ActionAcceptDevolutionComponent&#45;&gt;PendingDevolutionModule</title>
<path fill="none" stroke="#000000" d="M2430,-122.2222C2430,-140.8285 2430,-167 2430,-167 2430,-167 1502.504,-167 1502.504,-167"/>
<polygon fill="#000000" stroke="#000000" points="1502.5041,-163.5001 1492.504,-167 1502.504,-170.5001 1502.5041,-163.5001"/>
</g>
<!-- ActionRefuseDevolutionComponent -->
<g id="node4" class="node">
<title>ActionRefuseDevolutionComponent</title>
<polygon fill="#ffffb3" stroke="#000000" points="2300.799,-122 2079.201,-122 2079.201,-86 2300.799,-86 2300.799,-122"/>
<text text-anchor="middle" x="2190" y="-99.8" font-family="Times,serif" font-size="14.00" fill="#000000">ActionRefuseDevolutionComponent</text>
</g>
<!-- ActionRefuseDevolutionComponent&#45;&gt;PendingDevolutionModule -->
<g id="edge4" class="edge">
<title>ActionRefuseDevolutionComponent&#45;&gt;PendingDevolutionModule</title>
<path fill="none" stroke="#000000" d="M2190,-122.0225C2190,-139.3734 2190,-163 2190,-163 2190,-163 1502.4307,-163 1502.4307,-163"/>
<polygon fill="#000000" stroke="#000000" points="1502.4307,-159.5001 1492.4307,-163 1502.4307,-166.5001 1502.4307,-159.5001"/>
</g>
<!-- ViewCommentComponent -->
<g id="node5" class="node">
<title>ViewCommentComponent</title>
<polygon fill="#ffffb3" stroke="#000000" points="2061.3738,-122 1894.6262,-122 1894.6262,-86 2061.3738,-86 2061.3738,-122"/>
<text text-anchor="middle" x="1978" y="-99.8" font-family="Times,serif" font-size="14.00" fill="#000000">ViewCommentComponent</text>
</g>
<!-- ViewCommentComponent&#45;&gt;PendingDevolutionModule -->
<g id="edge5" class="edge">
<title>ViewCommentComponent&#45;&gt;PendingDevolutionModule</title>
<path fill="none" stroke="#000000" d="M1959.7099,-122.0091C1959.7099,-138.0494 1959.7099,-159 1959.7099,-159 1959.7099,-159 1502.3934,-159 1502.3934,-159"/>
<polygon fill="#000000" stroke="#000000" points="1502.3935,-155.5001 1492.3934,-159 1502.3934,-162.5001 1502.3935,-155.5001"/>
</g>
<!-- PendingDevolutionComponent  -->
<g id="node11" class="node">
<title>PendingDevolutionComponent </title>
<polygon fill="#fb8072" stroke="#000000" points="2024.7134,-252 1831.2866,-252 1831.2866,-216 2024.7134,-216 2024.7134,-252"/>
<text text-anchor="middle" x="1928" y="-229.8" font-family="Times,serif" font-size="14.00" fill="#000000">PendingDevolutionComponent </text>
</g>
<!-- PendingDevolutionModule&#45;&gt;PendingDevolutionComponent  -->
<g id="edge10" class="edge">
<title>PendingDevolutionModule&#45;&gt;PendingDevolutionComponent </title>
<path fill="none" stroke="#000000" stroke-dasharray="5,2" d="M1492.3598,-179C1620.8802,-179 1850.9588,-179 1850.9588,-179 1850.9588,-179 1850.9588,-205.9909 1850.9588,-205.9909"/>
<polygon fill="#000000" stroke="#000000" points="1847.4589,-205.9909 1850.9588,-215.9909 1854.4589,-205.991 1847.4589,-205.9909"/>
</g>
<!-- ProductPendingDevolutionModalComponent  -->
<g id="node12" class="node">
<title>ProductPendingDevolutionModalComponent </title>
<polygon fill="#fb8072" stroke="#000000" points="1812.8115,-252 1539.1885,-252 1539.1885,-216 1812.8115,-216 1812.8115,-252"/>
<text text-anchor="middle" x="1676" y="-229.8" font-family="Times,serif" font-size="14.00" fill="#000000">ProductPendingDevolutionModalComponent </text>
</g>
<!-- PendingDevolutionModule&#45;&gt;ProductPendingDevolutionModalComponent  -->
<g id="edge11" class="edge">
<title>PendingDevolutionModule&#45;&gt;ProductPendingDevolutionModalComponent </title>
<path fill="none" stroke="#000000" stroke-dasharray="5,2" d="M1492.4513,-183C1539.664,-183 1589.0973,-183 1589.0973,-183 1589.0973,-183 1589.0973,-205.8757 1589.0973,-205.8757"/>
<polygon fill="#000000" stroke="#000000" points="1585.5974,-205.8757 1589.0973,-215.8757 1592.5974,-205.8757 1585.5974,-205.8757"/>
</g>
<!-- ActionAcceptDevolutionComponent  -->
<g id="node13" class="node">
<title>ActionAcceptDevolutionComponent </title>
<polygon fill="#fb8072" stroke="#000000" points="1520.5692,-252 1295.4308,-252 1295.4308,-216 1520.5692,-216 1520.5692,-252"/>
<text text-anchor="middle" x="1408" y="-229.8" font-family="Times,serif" font-size="14.00" fill="#000000">ActionAcceptDevolutionComponent </text>
</g>
<!-- PendingDevolutionModule&#45;&gt;ActionAcceptDevolutionComponent  -->
<g id="edge12" class="edge">
<title>PendingDevolutionModule&#45;&gt;ActionAcceptDevolutionComponent </title>
<path fill="none" stroke="#000000" stroke-dasharray="5,2" d="M1408,-187.1061C1408,-187.1061 1408,-205.991 1408,-205.991"/>
<polygon fill="#000000" stroke="#000000" points="1404.5001,-205.9909 1408,-215.991 1411.5001,-205.991 1404.5001,-205.9909"/>
</g>
<!-- ActionRefuseDevolutionComponent  -->
<g id="node14" class="node">
<title>ActionRefuseDevolutionComponent </title>
<polygon fill="#fb8072" stroke="#000000" points="1277.2989,-252 1052.7011,-252 1052.7011,-216 1277.2989,-216 1277.2989,-252"/>
<text text-anchor="middle" x="1165" y="-229.8" font-family="Times,serif" font-size="14.00" fill="#000000">ActionRefuseDevolutionComponent </text>
</g>
<!-- PendingDevolutionModule&#45;&gt;ActionRefuseDevolutionComponent  -->
<g id="edge13" class="edge">
<title>PendingDevolutionModule&#45;&gt;ActionRefuseDevolutionComponent </title>
<path fill="none" stroke="#000000" stroke-dasharray="5,2" d="M1323.4972,-183C1284.8203,-183 1247.4571,-183 1247.4571,-183 1247.4571,-183 1247.4571,-205.8757 1247.4571,-205.8757"/>
<polygon fill="#000000" stroke="#000000" points="1243.9571,-205.8757 1247.4571,-215.8757 1250.9571,-205.8757 1243.9571,-205.8757"/>
</g>
<!-- ViewCommentComponent  -->
<g id="node15" class="node">
<title>ViewCommentComponent </title>
<polygon fill="#fb8072" stroke="#000000" points="1034.3742,-252 863.6258,-252 863.6258,-216 1034.3742,-216 1034.3742,-252"/>
<text text-anchor="middle" x="949" y="-229.8" font-family="Times,serif" font-size="14.00" fill="#000000">ViewCommentComponent </text>
</g>
<!-- PendingDevolutionModule&#45;&gt;ViewCommentComponent  -->
<g id="edge14" class="edge">
<title>PendingDevolutionModule&#45;&gt;ViewCommentComponent </title>
<path fill="none" stroke="#000000" stroke-dasharray="5,2" d="M1323.7602,-179C1204.0442,-179 999.0455,-179 999.0455,-179 999.0455,-179 999.0455,-205.9909 999.0455,-205.9909"/>
<polygon fill="#000000" stroke="#000000" points="995.5456,-205.9909 999.0455,-215.9909 1002.5456,-205.991 995.5456,-205.9909"/>
</g>
<!-- PendingDevolutionRoutingModule -->
<g id="node7" class="node">
<title>PendingDevolutionRoutingModule</title>
<polygon fill="#8dd3c7" stroke="#000000" points="1870.5489,-122 1867.5489,-126 1846.5489,-126 1843.5489,-122 1657.4511,-122 1657.4511,-86 1870.5489,-86 1870.5489,-122"/>
<text text-anchor="middle" x="1764" y="-99.8" font-family="Times,serif" font-size="14.00" fill="#000000">PendingDevolutionRoutingModule</text>
</g>
<!-- PendingDevolutionRoutingModule&#45;&gt;PendingDevolutionModule -->
<g id="edge6" class="edge">
<title>PendingDevolutionRoutingModule&#45;&gt;PendingDevolutionModule</title>
<path fill="none" stroke="#000000" d="M1735.0658,-122.1243C1735.0658,-136.7832 1735.0658,-155 1735.0658,-155 1735.0658,-155 1502.2276,-155 1502.2276,-155"/>
<polygon fill="#000000" stroke="#000000" points="1502.2276,-151.5001 1492.2276,-155 1502.2275,-158.5001 1502.2276,-151.5001"/>
</g>
<!-- ToolbarOptionsModule -->
<g id="node8" class="node">
<title>ToolbarOptionsModule</title>
<polygon fill="#8dd3c7" stroke="#000000" points="1639.2007,-122 1636.2007,-126 1615.2007,-126 1612.2007,-122 1490.7993,-122 1490.7993,-86 1639.2007,-86 1639.2007,-122"/>
<text text-anchor="middle" x="1565" y="-99.8" font-family="Times,serif" font-size="14.00" fill="#000000">ToolbarOptionsModule</text>
</g>
<!-- ToolbarOptionsModule&#45;&gt;PendingDevolutionModule -->
<g id="edge7" class="edge">
<title>ToolbarOptionsModule&#45;&gt;PendingDevolutionModule</title>
<path fill="none" stroke="#000000" d="M1490.5947,-104C1485.3207,-104 1482.0277,-104 1482.0277,-104 1482.0277,-104 1482.0277,-140.8939 1482.0277,-140.8939"/>
<polygon fill="#000000" stroke="#000000" points="1478.5278,-140.8938 1482.0277,-150.8939 1485.5278,-140.8939 1478.5278,-140.8938"/>
</g>
<!-- ToolbarLinkModule -->
<g id="node9" class="node">
<title>ToolbarLinkModule</title>
<polygon fill="#8dd3c7" stroke="#000000" points="1473.3118,-122 1470.3118,-126 1449.3118,-126 1446.3118,-122 1342.6882,-122 1342.6882,-86 1473.3118,-86 1473.3118,-122"/>
<text text-anchor="middle" x="1408" y="-99.8" font-family="Times,serif" font-size="14.00" fill="#000000">ToolbarLinkModule</text>
</g>
<!-- ToolbarLinkModule&#45;&gt;PendingDevolutionModule -->
<g id="edge8" class="edge">
<title>ToolbarLinkModule&#45;&gt;PendingDevolutionModule</title>
<path fill="none" stroke="#000000" d="M1408,-122.1061C1408,-122.1061 1408,-140.991 1408,-140.991"/>
<polygon fill="#000000" stroke="#000000" points="1404.5001,-140.9909 1408,-150.991 1411.5001,-140.991 1404.5001,-140.9909"/>
</g>
<!-- MaterialModule -->
<g id="node10" class="node">
<title>MaterialModule</title>
<polygon fill="#8dd3c7" stroke="#000000" points="1324.4706,-122 1321.4706,-126 1300.4706,-126 1297.4706,-122 1217.5294,-122 1217.5294,-86 1324.4706,-86 1324.4706,-122"/>
<text text-anchor="middle" x="1271" y="-99.8" font-family="Times,serif" font-size="14.00" fill="#000000">MaterialModule</text>
</g>
<!-- MaterialModule&#45;&gt;PendingDevolutionModule -->
<g id="edge9" class="edge">
<title>MaterialModule&#45;&gt;PendingDevolutionModule</title>
<path fill="none" stroke="#000000" d="M1324.6865,-104C1330.1068,-104 1333.6648,-104 1333.6648,-104 1333.6648,-104 1333.6648,-140.8939 1333.6648,-140.8939"/>
<polygon fill="#000000" stroke="#000000" points="1330.1649,-140.8938 1333.6648,-150.8939 1337.1649,-140.8939 1330.1649,-140.8938"/>
</g>
<!-- PendingDevolutionService -->
<g id="node16" class="node">
<title>PendingDevolutionService</title>
<ellipse fill="#fdb462" stroke="#000000" cx="1079" cy="-104" rx="115.1918" ry="18"/>
<text text-anchor="middle" x="1079" y="-99.8" font-family="Times,serif" font-size="14.00" fill="#000000">PendingDevolutionService</text>
</g>
<!-- PendingDevolutionService&#45;&gt;PendingDevolutionModule -->
<g id="edge15" class="edge">
<title>PendingDevolutionService&#45;&gt;PendingDevolutionModule</title>
<path fill="none" stroke="#000000" d="M1123.3482,-120.6993C1123.3482,-135.5731 1123.3482,-155 1123.3482,-155 1123.3482,-155 1313.7505,-155 1313.7505,-155"/>
<polygon fill="#000000" stroke="#000000" points="1313.7505,-158.5001 1323.7505,-155 1313.7504,-151.5001 1313.7505,-158.5001"/>
</g>
<!-- EndpointService -->
<g id="node17" class="node">
<title>EndpointService</title>
<ellipse fill="#fdb462" stroke="#000000" cx="871" cy="-104" rx="75.3021" ry="18"/>
<text text-anchor="middle" x="871" y="-99.8" font-family="Times,serif" font-size="14.00" fill="#000000">EndpointService</text>
</g>
<!-- EndpointService&#45;&gt;PendingDevolutionModule -->
<g id="edge16" class="edge">
<title>EndpointService&#45;&gt;PendingDevolutionModule</title>
<path fill="none" stroke="#000000" d="M905.1071,-120.2043C905.1071,-136.428 905.1071,-159 905.1071,-159 905.1071,-159 1313.5436,-159 1313.5436,-159"/>
<polygon fill="#000000" stroke="#000000" points="1313.5436,-162.5001 1323.5436,-159 1313.5435,-155.5001 1313.5436,-162.5001"/>
</g>
<!-- HttpErrorHandlingService -->
<g id="node18" class="node">
<title>HttpErrorHandlingService</title>
<ellipse fill="#fdb462" stroke="#000000" cx="664" cy="-104" rx="113.4412" ry="18"/>
<text text-anchor="middle" x="664" y="-99.8" font-family="Times,serif" font-size="14.00" fill="#000000">HttpErrorHandlingService</text>
</g>
<!-- HttpErrorHandlingService&#45;&gt;PendingDevolutionModule -->
<g id="edge17" class="edge">
<title>HttpErrorHandlingService&#45;&gt;PendingDevolutionModule</title>
<path fill="none" stroke="#000000" d="M664,-122.0225C664,-139.3734 664,-163 664,-163 664,-163 1313.7393,-163 1313.7393,-163"/>
<polygon fill="#000000" stroke="#000000" points="1313.7394,-166.5001 1323.7393,-163 1313.7393,-159.5001 1313.7394,-166.5001"/>
</g>
<!-- UserService -->
<g id="node19" class="node">
<title>UserService</title>
<ellipse fill="#fdb462" stroke="#000000" cx="474" cy="-104" rx="58.4415" ry="18"/>
<text text-anchor="middle" x="474" y="-99.8" font-family="Times,serif" font-size="14.00" fill="#000000">UserService</text>
</g>
<!-- UserService&#45;&gt;PendingDevolutionModule -->
<g id="edge18" class="edge">
<title>UserService&#45;&gt;PendingDevolutionModule</title>
<path fill="none" stroke="#000000" d="M474,-122.2222C474,-140.8285 474,-167 474,-167 474,-167 1313.4664,-167 1313.4664,-167"/>
<polygon fill="#000000" stroke="#000000" points="1313.4665,-170.5001 1323.4664,-167 1313.4664,-163.5001 1313.4665,-170.5001"/>
</g>
<!-- ComponentsService -->
<g id="node20" class="node">
<title>ComponentsService</title>
<ellipse fill="#fdb462" stroke="#000000" cx="309" cy="-104" rx="88.6255" ry="18"/>
<text text-anchor="middle" x="309" y="-99.8" font-family="Times,serif" font-size="14.00" fill="#000000">ComponentsService</text>
</g>
<!-- ComponentsService&#45;&gt;PendingDevolutionModule -->
<g id="edge19" class="edge">
<title>ComponentsService&#45;&gt;PendingDevolutionModule</title>
<path fill="none" stroke="#000000" d="M309,-122.308C309,-142.1455 309,-171 309,-171 309,-171 1313.5881,-171 1313.5881,-171"/>
<polygon fill="#000000" stroke="#000000" points="1313.5882,-174.5001 1323.5881,-171 1313.5881,-167.5001 1313.5882,-174.5001"/>
</g>
<!-- EventEmitterOrders -->
<g id="node21" class="node">
<title>EventEmitterOrders</title>
<ellipse fill="#fdb462" stroke="#000000" cx="113" cy="-104" rx="88.5986" ry="18"/>
<text text-anchor="middle" x="113" y="-99.8" font-family="Times,serif" font-size="14.00" fill="#000000">EventEmitterOrders</text>
</g>
<!-- EventEmitterOrders&#45;&gt;PendingDevolutionModule -->
<g id="edge20" class="edge">
<title>EventEmitterOrders&#45;&gt;PendingDevolutionModule</title>
<path fill="none" stroke="#000000" d="M113,-122.2843C113,-143.3211 113,-175 113,-175 113,-175 1313.531,-175 1313.531,-175"/>
<polygon fill="#000000" stroke="#000000" points="1313.531,-178.5001 1323.531,-175 1313.5309,-171.5001 1313.531,-178.5001"/>
</g>
</g>
</svg>
