<?xml version="1.0" encoding="UTF-8" standalone="no"?>
<!DOCTYPE svg PUBLIC "-//W3C//DTD SVG 1.1//EN"
 "http://www.w3.org/Graphics/SVG/1.1/DTD/svg11.dtd">
<!-- Generated by graphviz version 2.40.1 (20161225.0304)
 -->
<!-- Title: dependencies Pages: 1 -->
<svg width="1839pt" height="284pt"
 viewBox="0.00 0.00 1839.00 284.00" xmlns="http://www.w3.org/2000/svg" xmlns:xlink="http://www.w3.org/1999/xlink">
<g id="graph0" class="graph" transform="scale(1 1) rotate(0) translate(4 280)">
<title>dependencies</title>
<polygon fill="#ffffff" stroke="transparent" points="-4,4 -4,-280 1835,-280 1835,4 -4,4"/>
<text text-anchor="start" x="894.5091" y="-42.4" font-family="sans-serif" font-weight="bold" font-size="14.00" fill="#000000">Legend</text>
<polygon fill="#ffffb3" stroke="transparent" points="681.5,-10 681.5,-30 701.5,-30 701.5,-10 681.5,-10"/>
<text text-anchor="start" x="705.129" y="-15.4" font-family="sans-serif" font-size="14.00" fill="#000000"> &#160;Declarations</text>
<polygon fill="#8dd3c7" stroke="transparent" points="794.5,-10 794.5,-30 814.5,-30 814.5,-10 794.5,-10"/>
<text text-anchor="start" x="818.2251" y="-15.4" font-family="sans-serif" font-size="14.00" fill="#000000"> &#160;Module</text>
<polygon fill="#80b1d3" stroke="transparent" points="880.5,-10 880.5,-30 900.5,-30 900.5,-10 880.5,-10"/>
<text text-anchor="start" x="904.2812" y="-15.4" font-family="sans-serif" font-size="14.00" fill="#000000"> &#160;Bootstrap</text>
<polygon fill="#fdb462" stroke="transparent" points="977.5,-10 977.5,-30 997.5,-30 997.5,-10 977.5,-10"/>
<text text-anchor="start" x="1001.1732" y="-15.4" font-family="sans-serif" font-size="14.00" fill="#000000"> &#160;Providers</text>
<polygon fill="#fb8072" stroke="transparent" points="1073.5,-10 1073.5,-30 1093.5,-30 1093.5,-10 1073.5,-10"/>
<text text-anchor="start" x="1097.2258" y="-15.4" font-family="sans-serif" font-size="14.00" fill="#000000"> &#160;Exports</text>
<g id="clust1" class="cluster">
<title>cluster_LoginModule</title>
<polygon fill="none" stroke="#000000" stroke-dasharray="1,5" points="8,-70 8,-268 1823,-268 1823,-70 8,-70"/>
</g>
<g id="clust2" class="cluster">
<title>cluster_LoginModule_declarations</title>
<polygon fill="none" stroke="#000000" points="1392,-78 1392,-130 1815,-130 1815,-78 1392,-78"/>
</g>
<g id="clust6" class="cluster">
<title>cluster_LoginModule_imports</title>
<polygon fill="none" stroke="#000000" points="1105,-78 1105,-130 1384,-130 1384,-78 1105,-78"/>
</g>
<g id="clust7" class="cluster">
<title>cluster_LoginModule_exports</title>
<polygon fill="none" stroke="#000000" points="805,-208 805,-260 1239,-260 1239,-208 805,-208"/>
</g>
<g id="clust9" class="cluster">
<title>cluster_LoginModule_providers</title>
<polygon fill="none" stroke="#000000" points="16,-78 16,-130 1097,-130 1097,-78 16,-78"/>
</g>
<!-- LoginComponent -->
<g id="node1" class="node">
<title>LoginComponent</title>
<polygon fill="#ffffb3" stroke="#000000" points="1807.2758,-122 1692.7242,-122 1692.7242,-86 1807.2758,-86 1807.2758,-122"/>
<text text-anchor="middle" x="1750" y="-99.8" font-family="Times,serif" font-size="14.00" fill="#000000">LoginComponent</text>
</g>
<!-- LoginModule -->
<g id="node4" class="node">
<title>LoginModule</title>
<polygon fill="#8dd3c7" stroke="#000000" points="1072.493,-187 1069.493,-191 1048.493,-191 1045.493,-187 979.507,-187 979.507,-151 1072.493,-151 1072.493,-187"/>
<text text-anchor="middle" x="1026" y="-164.8" font-family="Times,serif" font-size="14.00" fill="#000000">LoginModule</text>
</g>
<!-- LoginComponent&#45;&gt;LoginModule -->
<g id="edge1" class="edge">
<title>LoginComponent&#45;&gt;LoginModule</title>
<path fill="none" stroke="#000000" d="M1750,-122.0449C1750,-143.6623 1750,-177 1750,-177 1750,-177 1082.668,-177 1082.668,-177"/>
<polygon fill="#000000" stroke="#000000" points="1082.668,-173.5001 1072.668,-177 1082.6679,-180.5001 1082.668,-173.5001"/>
</g>
<!-- RecoveryComponent -->
<g id="node2" class="node">
<title>RecoveryComponent</title>
<polygon fill="#ffffb3" stroke="#000000" points="1674.4734,-122 1539.5266,-122 1539.5266,-86 1674.4734,-86 1674.4734,-122"/>
<text text-anchor="middle" x="1607" y="-99.8" font-family="Times,serif" font-size="14.00" fill="#000000">RecoveryComponent</text>
</g>
<!-- RecoveryComponent&#45;&gt;LoginModule -->
<g id="edge2" class="edge">
<title>RecoveryComponent&#45;&gt;LoginModule</title>
<path fill="none" stroke="#000000" d="M1607,-122.2228C1607,-142.3652 1607,-172 1607,-172 1607,-172 1082.5635,-172 1082.5635,-172"/>
<polygon fill="#000000" stroke="#000000" points="1082.5636,-168.5001 1072.5635,-172 1082.5635,-175.5001 1082.5636,-168.5001"/>
</g>
<!-- LogoutComponent -->
<g id="node3" class="node">
<title>LogoutComponent</title>
<polygon fill="#ffffb3" stroke="#000000" points="1521.7758,-122 1400.2242,-122 1400.2242,-86 1521.7758,-86 1521.7758,-122"/>
<text text-anchor="middle" x="1461" y="-99.8" font-family="Times,serif" font-size="14.00" fill="#000000">LogoutComponent</text>
</g>
<!-- LogoutComponent&#45;&gt;LoginModule -->
<g id="edge3" class="edge">
<title>LogoutComponent&#45;&gt;LoginModule</title>
<path fill="none" stroke="#000000" d="M1461,-122.2222C1461,-140.8285 1461,-167 1461,-167 1461,-167 1082.5526,-167 1082.5526,-167"/>
<polygon fill="#000000" stroke="#000000" points="1082.5527,-163.5001 1072.5526,-167 1082.5526,-170.5001 1082.5527,-163.5001"/>
</g>
<!-- LoginComponent  -->
<g id="node7" class="node">
<title>LoginComponent </title>
<polygon fill="#fb8072" stroke="#000000" points="1231.2759,-252 1112.7241,-252 1112.7241,-216 1231.2759,-216 1231.2759,-252"/>
<text text-anchor="middle" x="1172" y="-229.8" font-family="Times,serif" font-size="14.00" fill="#000000">LoginComponent </text>
</g>
<!-- LoginModule&#45;&gt;LoginComponent  -->
<g id="edge6" class="edge">
<title>LoginModule&#45;&gt;LoginComponent </title>
<path fill="none" stroke="#000000" stroke-dasharray="5,2" d="M1072.6246,-182C1107.2157,-182 1148.4032,-182 1148.4032,-182 1148.4032,-182 1148.4032,-205.8129 1148.4032,-205.8129"/>
<polygon fill="#000000" stroke="#000000" points="1144.9033,-205.8129 1148.4032,-215.8129 1151.9033,-205.813 1144.9033,-205.8129"/>
</g>
<!-- RecoveryComponent  -->
<g id="node8" class="node">
<title>RecoveryComponent </title>
<polygon fill="#fb8072" stroke="#000000" points="1095.4742,-252 956.5258,-252 956.5258,-216 1095.4742,-216 1095.4742,-252"/>
<text text-anchor="middle" x="1026" y="-229.8" font-family="Times,serif" font-size="14.00" fill="#000000">RecoveryComponent </text>
</g>
<!-- LoginModule&#45;&gt;RecoveryComponent  -->
<g id="edge7" class="edge">
<title>LoginModule&#45;&gt;RecoveryComponent </title>
<path fill="none" stroke="#000000" stroke-dasharray="5,2" d="M1026,-187.1061C1026,-187.1061 1026,-205.991 1026,-205.991"/>
<polygon fill="#000000" stroke="#000000" points="1022.5001,-205.9909 1026,-215.991 1029.5001,-205.991 1022.5001,-205.9909"/>
</g>
<!-- LogoutComponent  -->
<g id="node9" class="node">
<title>LogoutComponent </title>
<polygon fill="#fb8072" stroke="#000000" points="938.7759,-252 813.2241,-252 813.2241,-216 938.7759,-216 938.7759,-252"/>
<text text-anchor="middle" x="876" y="-229.8" font-family="Times,serif" font-size="14.00" fill="#000000">LogoutComponent </text>
</g>
<!-- LoginModule&#45;&gt;LogoutComponent  -->
<g id="edge8" class="edge">
<title>LoginModule&#45;&gt;LogoutComponent </title>
<path fill="none" stroke="#000000" stroke-dasharray="5,2" d="M979.3845,-182C942.3994,-182 896.8793,-182 896.8793,-182 896.8793,-182 896.8793,-205.8129 896.8793,-205.8129"/>
<polygon fill="#000000" stroke="#000000" points="893.3794,-205.8129 896.8793,-215.8129 900.3794,-205.813 893.3794,-205.8129"/>
</g>
<!-- LoginRoutingModule -->
<g id="node5" class="node">
<title>LoginRoutingModule</title>
<polygon fill="#8dd3c7" stroke="#000000" points="1376.1108,-122 1373.1108,-126 1352.1108,-126 1349.1108,-122 1237.8892,-122 1237.8892,-86 1376.1108,-86 1376.1108,-122"/>
<text text-anchor="middle" x="1307" y="-99.8" font-family="Times,serif" font-size="14.00" fill="#000000">LoginRoutingModule</text>
</g>
<!-- LoginRoutingModule&#45;&gt;LoginModule -->
<g id="edge4" class="edge">
<title>LoginRoutingModule&#45;&gt;LoginModule</title>
<path fill="none" stroke="#000000" d="M1307,-122.0336C1307,-139.0597 1307,-162 1307,-162 1307,-162 1082.7169,-162 1082.7169,-162"/>
<polygon fill="#000000" stroke="#000000" points="1082.7169,-158.5001 1072.7169,-162 1082.7168,-165.5001 1082.7169,-158.5001"/>
</g>
<!-- MaterialModule -->
<g id="node6" class="node">
<title>MaterialModule</title>
<polygon fill="#8dd3c7" stroke="#000000" points="1219.4706,-122 1216.4706,-126 1195.4706,-126 1192.4706,-122 1112.5294,-122 1112.5294,-86 1219.4706,-86 1219.4706,-122"/>
<text text-anchor="middle" x="1166" y="-99.8" font-family="Times,serif" font-size="14.00" fill="#000000">MaterialModule</text>
</g>
<!-- MaterialModule&#45;&gt;LoginModule -->
<g id="edge5" class="edge">
<title>MaterialModule&#45;&gt;LoginModule</title>
<path fill="none" stroke="#000000" d="M1183.9443,-122.2396C1183.9443,-137.5706 1183.9443,-157 1183.9443,-157 1183.9443,-157 1082.5342,-157 1082.5342,-157"/>
<polygon fill="#000000" stroke="#000000" points="1082.5343,-153.5001 1072.5342,-157 1082.5342,-160.5001 1082.5343,-153.5001"/>
</g>
<!-- LoginService -->
<g id="node10" class="node">
<title>LoginService</title>
<ellipse fill="#fdb462" stroke="#000000" cx="1026" cy="-104" rx="63.1209" ry="18"/>
<text text-anchor="middle" x="1026" y="-99.8" font-family="Times,serif" font-size="14.00" fill="#000000">LoginService</text>
</g>
<!-- LoginService&#45;&gt;LoginModule -->
<g id="edge9" class="edge">
<title>LoginService&#45;&gt;LoginModule</title>
<path fill="none" stroke="#000000" d="M1026,-122.1061C1026,-122.1061 1026,-140.991 1026,-140.991"/>
<polygon fill="#000000" stroke="#000000" points="1022.5001,-140.9909 1026,-150.991 1029.5001,-140.991 1022.5001,-140.9909"/>
</g>
<!-- EventEmitterOrders -->
<g id="node11" class="node">
<title>EventEmitterOrders</title>
<ellipse fill="#fdb462" stroke="#000000" cx="856" cy="-104" rx="88.5986" ry="18"/>
<text text-anchor="middle" x="856" y="-99.8" font-family="Times,serif" font-size="14.00" fill="#000000">EventEmitterOrders</text>
</g>
<!-- EventEmitterOrders&#45;&gt;LoginModule -->
<g id="edge10" class="edge">
<title>EventEmitterOrders&#45;&gt;LoginModule</title>
<path fill="none" stroke="#000000" d="M855.1207,-122.2396C855.1207,-137.5706 855.1207,-157 855.1207,-157 855.1207,-157 969.3065,-157 969.3065,-157"/>
<polygon fill="#000000" stroke="#000000" points="969.3065,-160.5001 979.3065,-157 969.3065,-153.5001 969.3065,-160.5001"/>
</g>
<!-- EndpointService -->
<g id="node12" class="node">
<title>EndpointService</title>
<ellipse fill="#fdb462" stroke="#000000" cx="674" cy="-104" rx="75.3021" ry="18"/>
<text text-anchor="middle" x="674" y="-99.8" font-family="Times,serif" font-size="14.00" fill="#000000">EndpointService</text>
</g>
<!-- EndpointService&#45;&gt;LoginModule -->
<g id="edge11" class="edge">
<title>EndpointService&#45;&gt;LoginModule</title>
<path fill="none" stroke="#000000" d="M674,-122.0336C674,-139.0597 674,-162 674,-162 674,-162 969.2571,-162 969.2571,-162"/>
<polygon fill="#000000" stroke="#000000" points="969.2572,-165.5001 979.2571,-162 969.2571,-158.5001 969.2572,-165.5001"/>
</g>
<!-- UserService -->
<g id="node13" class="node">
<title>UserService</title>
<ellipse fill="#fdb462" stroke="#000000" cx="522" cy="-104" rx="58.4415" ry="18"/>
<text text-anchor="middle" x="522" y="-99.8" font-family="Times,serif" font-size="14.00" fill="#000000">UserService</text>
</g>
<!-- UserService&#45;&gt;LoginModule -->
<g id="edge12" class="edge">
<title>UserService&#45;&gt;LoginModule</title>
<path fill="none" stroke="#000000" d="M522,-122.2222C522,-140.8285 522,-167 522,-167 522,-167 969.4883,-167 969.4883,-167"/>
<polygon fill="#000000" stroke="#000000" points="969.4883,-170.5001 979.4883,-167 969.4882,-163.5001 969.4883,-170.5001"/>
</g>
<!-- ComponentsService -->
<g id="node14" class="node">
<title>ComponentsService</title>
<ellipse fill="#fdb462" stroke="#000000" cx="357" cy="-104" rx="88.6255" ry="18"/>
<text text-anchor="middle" x="357" y="-99.8" font-family="Times,serif" font-size="14.00" fill="#000000">ComponentsService</text>
</g>
<!-- ComponentsService&#45;&gt;LoginModule -->
<g id="edge13" class="edge">
<title>ComponentsService&#45;&gt;LoginModule</title>
<path fill="none" stroke="#000000" d="M357,-122.2228C357,-142.3652 357,-172 357,-172 357,-172 969.4884,-172 969.4884,-172"/>
<polygon fill="#000000" stroke="#000000" points="969.4884,-175.5001 979.4884,-172 969.4883,-168.5001 969.4884,-175.5001"/>
</g>
<!-- HttpErrorHandlingService -->
<g id="node15" class="node">
<title>HttpErrorHandlingService</title>
<ellipse fill="#fdb462" stroke="#000000" cx="137" cy="-104" rx="113.4412" ry="18"/>
<text text-anchor="middle" x="137" y="-99.8" font-family="Times,serif" font-size="14.00" fill="#000000">HttpErrorHandlingService</text>
</g>
<!-- HttpErrorHandlingService&#45;&gt;LoginModule -->
<g id="edge14" class="edge">
<title>HttpErrorHandlingService&#45;&gt;LoginModule</title>
<path fill="none" stroke="#000000" d="M137,-122.0449C137,-143.6623 137,-177 137,-177 137,-177 969.4552,-177 969.4552,-177"/>
<polygon fill="#000000" stroke="#000000" points="969.4552,-180.5001 979.4552,-177 969.4551,-173.5001 969.4552,-180.5001"/>
</g>
</g>
</svg>
