<?xml version="1.0" encoding="UTF-8" standalone="no"?>
<!DOCTYPE svg PUBLIC "-//W3C//DTD SVG 1.1//EN"
 "http://www.w3.org/Graphics/SVG/1.1/DTD/svg11.dtd">
<!-- Generated by graphviz version 2.40.1 (20161225.0304)
 -->
<!-- Title: dependencies Pages: 1 -->
<svg width="2509pt" height="284pt"
 viewBox="0.00 0.00 2509.00 284.00" xmlns="http://www.w3.org/2000/svg" xmlns:xlink="http://www.w3.org/1999/xlink">
<g id="graph0" class="graph" transform="scale(1 1) rotate(0) translate(4 280)">
<title>dependencies</title>
<polygon fill="#ffffff" stroke="transparent" points="-4,4 -4,-280 2505,-280 2505,4 -4,4"/>
<text text-anchor="start" x="1229.5091" y="-42.4" font-family="sans-serif" font-weight="bold" font-size="14.00" fill="#000000">Legend</text>
<polygon fill="#ffffb3" stroke="transparent" points="1016.5,-10 1016.5,-30 1036.5,-30 1036.5,-10 1016.5,-10"/>
<text text-anchor="start" x="1040.129" y="-15.4" font-family="sans-serif" font-size="14.00" fill="#000000"> &#160;Declarations</text>
<polygon fill="#8dd3c7" stroke="transparent" points="1129.5,-10 1129.5,-30 1149.5,-30 1149.5,-10 1129.5,-10"/>
<text text-anchor="start" x="1153.2251" y="-15.4" font-family="sans-serif" font-size="14.00" fill="#000000"> &#160;Module</text>
<polygon fill="#80b1d3" stroke="transparent" points="1215.5,-10 1215.5,-30 1235.5,-30 1235.5,-10 1215.5,-10"/>
<text text-anchor="start" x="1239.2812" y="-15.4" font-family="sans-serif" font-size="14.00" fill="#000000"> &#160;Bootstrap</text>
<polygon fill="#fdb462" stroke="transparent" points="1312.5,-10 1312.5,-30 1332.5,-30 1332.5,-10 1312.5,-10"/>
<text text-anchor="start" x="1336.1732" y="-15.4" font-family="sans-serif" font-size="14.00" fill="#000000"> &#160;Providers</text>
<polygon fill="#fb8072" stroke="transparent" points="1408.5,-10 1408.5,-30 1428.5,-30 1428.5,-10 1408.5,-10"/>
<text text-anchor="start" x="1432.2258" y="-15.4" font-family="sans-serif" font-size="14.00" fill="#000000"> &#160;Exports</text>
<g id="clust1" class="cluster">
<title>cluster_InDevolutionModule</title>
<polygon fill="none" stroke="#000000" stroke-dasharray="1,5" points="8,-70 8,-268 2493,-268 2493,-70 8,-70"/>
</g>
<g id="clust2" class="cluster">
<title>cluster_InDevolutionModule_declarations</title>
<polygon fill="none" stroke="#000000" points="1438,-78 1438,-130 2485,-130 2485,-78 1438,-78"/>
</g>
<g id="clust8" class="cluster">
<title>cluster_InDevolutionModule_imports</title>
<polygon fill="none" stroke="#000000" points="831,-78 831,-130 1430,-130 1430,-78 831,-78"/>
</g>
<g id="clust9" class="cluster">
<title>cluster_InDevolutionModule_exports</title>
<polygon fill="none" stroke="#000000" points="646,-208 646,-260 1712,-260 1712,-208 646,-208"/>
</g>
<g id="clust11" class="cluster">
<title>cluster_InDevolutionModule_providers</title>
<polygon fill="none" stroke="#000000" points="16,-78 16,-130 823,-130 823,-78 16,-78"/>
</g>
<!-- InDevolutionComponent -->
<g id="node1" class="node">
<title>InDevolutionComponent</title>
<polygon fill="#ffffb3" stroke="#000000" points="2476.986,-122 2321.014,-122 2321.014,-86 2476.986,-86 2476.986,-122"/>
<text text-anchor="middle" x="2399" y="-99.8" font-family="Times,serif" font-size="14.00" fill="#000000">InDevolutionComponent</text>
</g>
<!-- InDevolutionModule -->
<g id="node6" class="node">
<title>InDevolutionModule</title>
<polygon fill="#8dd3c7" stroke="#000000" points="1262.2036,-187 1259.2036,-191 1238.2036,-191 1235.2036,-187 1127.7964,-187 1127.7964,-151 1262.2036,-151 1262.2036,-187"/>
<text text-anchor="middle" x="1195" y="-164.8" font-family="Times,serif" font-size="14.00" fill="#000000">InDevolutionModule</text>
</g>
<!-- InDevolutionComponent&#45;&gt;InDevolutionModule -->
<g id="edge1" class="edge">
<title>InDevolutionComponent&#45;&gt;InDevolutionModule</title>
<path fill="none" stroke="#000000" d="M2399,-122.2843C2399,-143.3211 2399,-175 2399,-175 2399,-175 1272.3122,-175 1272.3122,-175"/>
<polygon fill="#000000" stroke="#000000" points="1272.3122,-171.5001 1262.3122,-175 1272.3121,-178.5001 1272.3122,-171.5001"/>
</g>
<!-- ActionReportNoveltyComponent -->
<g id="node2" class="node">
<title>ActionReportNoveltyComponent</title>
<polygon fill="#ffffb3" stroke="#000000" points="2303.1399,-122 2100.8601,-122 2100.8601,-86 2303.1399,-86 2303.1399,-122"/>
<text text-anchor="middle" x="2202" y="-99.8" font-family="Times,serif" font-size="14.00" fill="#000000">ActionReportNoveltyComponent</text>
</g>
<!-- ActionReportNoveltyComponent&#45;&gt;InDevolutionModule -->
<g id="edge2" class="edge">
<title>ActionReportNoveltyComponent&#45;&gt;InDevolutionModule</title>
<path fill="none" stroke="#000000" d="M2202,-122.308C2202,-142.1455 2202,-171 2202,-171 2202,-171 1272.2434,-171 1272.2434,-171"/>
<polygon fill="#000000" stroke="#000000" points="1272.2434,-167.5001 1262.2434,-171 1272.2433,-174.5001 1272.2434,-167.5001"/>
</g>
<!-- ActionConfirmReceiptComponent -->
<g id="node3" class="node">
<title>ActionConfirmReceiptComponent</title>
<polygon fill="#ffffb3" stroke="#000000" points="2082.6357,-122 1873.3643,-122 1873.3643,-86 2082.6357,-86 2082.6357,-122"/>
<text text-anchor="middle" x="1978" y="-99.8" font-family="Times,serif" font-size="14.00" fill="#000000">ActionConfirmReceiptComponent</text>
</g>
<!-- ActionConfirmReceiptComponent&#45;&gt;InDevolutionModule -->
<g id="edge3" class="edge">
<title>ActionConfirmReceiptComponent&#45;&gt;InDevolutionModule</title>
<path fill="none" stroke="#000000" d="M1978,-122.2222C1978,-140.8285 1978,-167 1978,-167 1978,-167 1272.4358,-167 1272.4358,-167"/>
<polygon fill="#000000" stroke="#000000" points="1272.4359,-163.5001 1262.4358,-167 1272.4358,-170.5001 1272.4359,-163.5001"/>
</g>
<!-- ProductDevolutionModalComponent -->
<g id="node4" class="node">
<title>ProductDevolutionModalComponent</title>
<polygon fill="#ffffb3" stroke="#000000" points="1855.424,-122 1630.576,-122 1630.576,-86 1855.424,-86 1855.424,-122"/>
<text text-anchor="middle" x="1743" y="-99.8" font-family="Times,serif" font-size="14.00" fill="#000000">ProductDevolutionModalComponent</text>
</g>
<!-- ProductDevolutionModalComponent&#45;&gt;InDevolutionModule -->
<g id="edge4" class="edge">
<title>ProductDevolutionModalComponent&#45;&gt;InDevolutionModule</title>
<path fill="none" stroke="#000000" d="M1667.2656,-122.0225C1667.2656,-139.3734 1667.2656,-163 1667.2656,-163 1667.2656,-163 1272.1626,-163 1272.1626,-163"/>
<polygon fill="#000000" stroke="#000000" points="1272.1626,-159.5001 1262.1626,-163 1272.1626,-166.5001 1272.1626,-159.5001"/>
</g>
<!-- ViewCommentComponent -->
<g id="node5" class="node">
<title>ViewCommentComponent</title>
<polygon fill="#ffffb3" stroke="#000000" points="1612.3738,-122 1445.6262,-122 1445.6262,-86 1612.3738,-86 1612.3738,-122"/>
<text text-anchor="middle" x="1529" y="-99.8" font-family="Times,serif" font-size="14.00" fill="#000000">ViewCommentComponent</text>
</g>
<!-- ViewCommentComponent&#45;&gt;InDevolutionModule -->
<g id="edge5" class="edge">
<title>ViewCommentComponent&#45;&gt;InDevolutionModule</title>
<path fill="none" stroke="#000000" d="M1485.8165,-122.0091C1485.8165,-138.0494 1485.8165,-159 1485.8165,-159 1485.8165,-159 1272.4501,-159 1272.4501,-159"/>
<polygon fill="#000000" stroke="#000000" points="1272.4501,-155.5001 1262.4501,-159 1272.4501,-162.5001 1272.4501,-155.5001"/>
</g>
<!-- InDevolutionComponent  -->
<g id="node11" class="node">
<title>InDevolutionComponent </title>
<polygon fill="#fb8072" stroke="#000000" points="1703.9867,-252 1544.0133,-252 1544.0133,-216 1703.9867,-216 1703.9867,-252"/>
<text text-anchor="middle" x="1624" y="-229.8" font-family="Times,serif" font-size="14.00" fill="#000000">InDevolutionComponent </text>
</g>
<!-- InDevolutionModule&#45;&gt;InDevolutionComponent  -->
<g id="edge10" class="edge">
<title>InDevolutionModule&#45;&gt;InDevolutionComponent </title>
<path fill="none" stroke="#000000" stroke-dasharray="5,2" d="M1262.2126,-179C1372.1549,-179 1578.347,-179 1578.347,-179 1578.347,-179 1578.347,-205.9909 1578.347,-205.9909"/>
<polygon fill="#000000" stroke="#000000" points="1574.847,-205.9909 1578.347,-215.9909 1581.847,-205.991 1574.847,-205.9909"/>
</g>
<!-- ActionReportNoveltyComponent  -->
<g id="node12" class="node">
<title>ActionReportNoveltyComponent </title>
<polygon fill="#fb8072" stroke="#000000" points="1526.1396,-252 1319.8604,-252 1319.8604,-216 1526.1396,-216 1526.1396,-252"/>
<text text-anchor="middle" x="1423" y="-229.8" font-family="Times,serif" font-size="14.00" fill="#000000">ActionReportNoveltyComponent </text>
</g>
<!-- InDevolutionModule&#45;&gt;ActionReportNoveltyComponent  -->
<g id="edge11" class="edge">
<title>InDevolutionModule&#45;&gt;ActionReportNoveltyComponent </title>
<path fill="none" stroke="#000000" stroke-dasharray="5,2" d="M1262.2366,-183C1311.8817,-183 1370.8568,-183 1370.8568,-183 1370.8568,-183 1370.8568,-205.8757 1370.8568,-205.8757"/>
<polygon fill="#000000" stroke="#000000" points="1367.3568,-205.8757 1370.8568,-215.8757 1374.3568,-205.8757 1367.3568,-205.8757"/>
</g>
<!-- ActionConfirmReceiptComponent  -->
<g id="node13" class="node">
<title>ActionConfirmReceiptComponent </title>
<polygon fill="#fb8072" stroke="#000000" points="1301.6354,-252 1088.3646,-252 1088.3646,-216 1301.6354,-216 1301.6354,-252"/>
<text text-anchor="middle" x="1195" y="-229.8" font-family="Times,serif" font-size="14.00" fill="#000000">ActionConfirmReceiptComponent </text>
</g>
<!-- InDevolutionModule&#45;&gt;ActionConfirmReceiptComponent  -->
<g id="edge12" class="edge">
<title>InDevolutionModule&#45;&gt;ActionConfirmReceiptComponent </title>
<path fill="none" stroke="#000000" stroke-dasharray="5,2" d="M1195,-187.1061C1195,-187.1061 1195,-205.991 1195,-205.991"/>
<polygon fill="#000000" stroke="#000000" points="1191.5001,-205.9909 1195,-215.991 1198.5001,-205.991 1191.5001,-205.9909"/>
</g>
<!-- ProductDevolutionModalComponent  -->
<g id="node14" class="node">
<title>ProductDevolutionModalComponent </title>
<polygon fill="#fb8072" stroke="#000000" points="1069.9236,-252 842.0764,-252 842.0764,-216 1069.9236,-216 1069.9236,-252"/>
<text text-anchor="middle" x="956" y="-229.8" font-family="Times,serif" font-size="14.00" fill="#000000">ProductDevolutionModalComponent </text>
</g>
<!-- InDevolutionModule&#45;&gt;ProductDevolutionModalComponent  -->
<g id="edge13" class="edge">
<title>InDevolutionModule&#45;&gt;ProductDevolutionModalComponent </title>
<path fill="none" stroke="#000000" stroke-dasharray="5,2" d="M1127.6797,-183C1077.2536,-183 1016.9308,-183 1016.9308,-183 1016.9308,-183 1016.9308,-205.8757 1016.9308,-205.8757"/>
<polygon fill="#000000" stroke="#000000" points="1013.4308,-205.8757 1016.9308,-215.8757 1020.4308,-205.8757 1013.4308,-205.8757"/>
</g>
<!-- ViewCommentComponent  -->
<g id="node15" class="node">
<title>ViewCommentComponent </title>
<polygon fill="#fb8072" stroke="#000000" points="824.3742,-252 653.6258,-252 653.6258,-216 824.3742,-216 824.3742,-252"/>
<text text-anchor="middle" x="739" y="-229.8" font-family="Times,serif" font-size="14.00" fill="#000000">ViewCommentComponent </text>
</g>
<!-- InDevolutionModule&#45;&gt;ViewCommentComponent  -->
<g id="edge14" class="edge">
<title>InDevolutionModule&#45;&gt;ViewCommentComponent </title>
<path fill="none" stroke="#000000" stroke-dasharray="5,2" d="M1127.495,-179C1019.4832,-179 819.8367,-179 819.8367,-179 819.8367,-179 819.8367,-205.9909 819.8367,-205.9909"/>
<polygon fill="#000000" stroke="#000000" points="816.3368,-205.9909 819.8367,-215.9909 823.3368,-205.991 816.3368,-205.9909"/>
</g>
<!-- BillingRoutingModule -->
<g id="node7" class="node">
<title>BillingRoutingModule</title>
<polygon fill="#8dd3c7" stroke="#000000" points="1421.5673,-122 1418.5673,-126 1397.5673,-126 1394.5673,-122 1278.4327,-122 1278.4327,-86 1421.5673,-86 1421.5673,-122"/>
<text text-anchor="middle" x="1350" y="-99.8" font-family="Times,serif" font-size="14.00" fill="#000000">BillingRoutingModule</text>
</g>
<!-- BillingRoutingModule&#45;&gt;InDevolutionModule -->
<g id="edge6" class="edge">
<title>BillingRoutingModule&#45;&gt;InDevolutionModule</title>
<path fill="none" stroke="#000000" d="M1289.8922,-122.1243C1289.8922,-136.7832 1289.8922,-155 1289.8922,-155 1289.8922,-155 1272.1904,-155 1272.1904,-155"/>
<polygon fill="#000000" stroke="#000000" points="1272.1904,-151.5001 1262.1904,-155 1272.1903,-158.5001 1272.1904,-151.5001"/>
</g>
<!-- ToolbarLinkModule -->
<g id="node8" class="node">
<title>ToolbarLinkModule</title>
<polygon fill="#8dd3c7" stroke="#000000" points="1260.3118,-122 1257.3118,-126 1236.3118,-126 1233.3118,-122 1129.6882,-122 1129.6882,-86 1260.3118,-86 1260.3118,-122"/>
<text text-anchor="middle" x="1195" y="-99.8" font-family="Times,serif" font-size="14.00" fill="#000000">ToolbarLinkModule</text>
</g>
<!-- ToolbarLinkModule&#45;&gt;InDevolutionModule -->
<g id="edge7" class="edge">
<title>ToolbarLinkModule&#45;&gt;InDevolutionModule</title>
<path fill="none" stroke="#000000" d="M1195,-122.1061C1195,-122.1061 1195,-140.991 1195,-140.991"/>
<polygon fill="#000000" stroke="#000000" points="1191.5001,-140.9909 1195,-150.991 1198.5001,-140.991 1191.5001,-140.9909"/>
</g>
<!-- ToolbarOptionsModule -->
<g id="node9" class="node">
<title>ToolbarOptionsModule</title>
<polygon fill="#8dd3c7" stroke="#000000" points="1112.2007,-122 1109.2007,-126 1088.2007,-126 1085.2007,-122 963.7993,-122 963.7993,-86 1112.2007,-86 1112.2007,-122"/>
<text text-anchor="middle" x="1038" y="-99.8" font-family="Times,serif" font-size="14.00" fill="#000000">ToolbarOptionsModule</text>
</g>
<!-- ToolbarOptionsModule&#45;&gt;InDevolutionModule -->
<g id="edge8" class="edge">
<title>ToolbarOptionsModule&#45;&gt;InDevolutionModule</title>
<path fill="none" stroke="#000000" d="M1100.2663,-122.1243C1100.2663,-136.7832 1100.2663,-155 1100.2663,-155 1100.2663,-155 1117.6672,-155 1117.6672,-155"/>
<polygon fill="#000000" stroke="#000000" points="1117.6672,-158.5001 1127.6672,-155 1117.6672,-151.5001 1117.6672,-158.5001"/>
</g>
<!-- MaterialModule -->
<g id="node10" class="node">
<title>MaterialModule</title>
<polygon fill="#8dd3c7" stroke="#000000" points="945.4706,-122 942.4706,-126 921.4706,-126 918.4706,-122 838.5294,-122 838.5294,-86 945.4706,-86 945.4706,-122"/>
<text text-anchor="middle" x="892" y="-99.8" font-family="Times,serif" font-size="14.00" fill="#000000">MaterialModule</text>
</g>
<!-- MaterialModule&#45;&gt;InDevolutionModule -->
<g id="edge9" class="edge">
<title>MaterialModule&#45;&gt;InDevolutionModule</title>
<path fill="none" stroke="#000000" d="M893.7618,-122.0091C893.7618,-138.0494 893.7618,-159 893.7618,-159 893.7618,-159 1117.7712,-159 1117.7712,-159"/>
<polygon fill="#000000" stroke="#000000" points="1117.7712,-162.5001 1127.7712,-159 1117.7712,-155.5001 1117.7712,-162.5001"/>
</g>
<!-- InDevolutionService -->
<g id="node16" class="node">
<title>InDevolutionService</title>
<ellipse fill="#fdb462" stroke="#000000" cx="724" cy="-104" rx="91.4732" ry="18"/>
<text text-anchor="middle" x="724" y="-99.8" font-family="Times,serif" font-size="14.00" fill="#000000">InDevolutionService</text>
</g>
<!-- InDevolutionService&#45;&gt;InDevolutionModule -->
<g id="edge15" class="edge">
<title>InDevolutionService&#45;&gt;InDevolutionModule</title>
<path fill="none" stroke="#000000" d="M734.6498,-122.0225C734.6498,-139.3734 734.6498,-163 734.6498,-163 734.6498,-163 1117.5681,-163 1117.5681,-163"/>
<polygon fill="#000000" stroke="#000000" points="1117.5682,-166.5001 1127.5681,-163 1117.5681,-159.5001 1117.5682,-166.5001"/>
</g>
<!-- EndpointService -->
<g id="node17" class="node">
<title>EndpointService</title>
<ellipse fill="#fdb462" stroke="#000000" cx="539" cy="-104" rx="75.3021" ry="18"/>
<text text-anchor="middle" x="539" y="-99.8" font-family="Times,serif" font-size="14.00" fill="#000000">EndpointService</text>
</g>
<!-- EndpointService&#45;&gt;InDevolutionModule -->
<g id="edge16" class="edge">
<title>EndpointService&#45;&gt;InDevolutionModule</title>
<path fill="none" stroke="#000000" d="M539,-122.2222C539,-140.8285 539,-167 539,-167 539,-167 1117.8793,-167 1117.8793,-167"/>
<polygon fill="#000000" stroke="#000000" points="1117.8794,-170.5001 1127.8793,-167 1117.8793,-163.5001 1117.8794,-170.5001"/>
</g>
<!-- EventEmitterOrders -->
<g id="node18" class="node">
<title>EventEmitterOrders</title>
<ellipse fill="#fdb462" stroke="#000000" cx="357" cy="-104" rx="88.5986" ry="18"/>
<text text-anchor="middle" x="357" y="-99.8" font-family="Times,serif" font-size="14.00" fill="#000000">EventEmitterOrders</text>
</g>
<!-- EventEmitterOrders&#45;&gt;InDevolutionModule -->
<g id="edge17" class="edge">
<title>EventEmitterOrders&#45;&gt;InDevolutionModule</title>
<path fill="none" stroke="#000000" d="M357,-122.308C357,-142.1455 357,-171 357,-171 357,-171 1117.8395,-171 1117.8395,-171"/>
<polygon fill="#000000" stroke="#000000" points="1117.8395,-174.5001 1127.8395,-171 1117.8395,-167.5001 1117.8395,-174.5001"/>
</g>
<!-- HttpErrorHandlingService -->
<g id="node19" class="node">
<title>HttpErrorHandlingService</title>
<ellipse fill="#fdb462" stroke="#000000" cx="137" cy="-104" rx="113.4412" ry="18"/>
<text text-anchor="middle" x="137" y="-99.8" font-family="Times,serif" font-size="14.00" fill="#000000">HttpErrorHandlingService</text>
</g>
<!-- HttpErrorHandlingService&#45;&gt;InDevolutionModule -->
<g id="edge18" class="edge">
<title>HttpErrorHandlingService&#45;&gt;InDevolutionModule</title>
<path fill="none" stroke="#000000" d="M137,-122.2843C137,-143.3211 137,-175 137,-175 137,-175 1117.6118,-175 1117.6118,-175"/>
<polygon fill="#000000" stroke="#000000" points="1117.6119,-178.5001 1127.6118,-175 1117.6118,-171.5001 1117.6119,-178.5001"/>
</g>
</g>
</svg>
