<?xml version="1.0" encoding="UTF-8" standalone="no"?>
<!DOCTYPE svg PUBLIC "-//W3C//DTD SVG 1.1//EN"
 "http://www.w3.org/Graphics/SVG/1.1/DTD/svg11.dtd">
<!-- Generated by graphviz version 2.40.1 (20161225.0304)
 -->
<!-- Title: dependencies Pages: 1 -->
<svg width="1508pt" height="349pt"
 viewBox="0.00 0.00 1508.00 349.00" xmlns="http://www.w3.org/2000/svg" xmlns:xlink="http://www.w3.org/1999/xlink">
<g id="graph0" class="graph" transform="scale(1 1) rotate(0) translate(4 345)">
<title>dependencies</title>
<polygon fill="#ffffff" stroke="transparent" points="-4,4 -4,-345 1504,-345 1504,4 -4,4"/>
<text text-anchor="start" x="729.0091" y="-42.4" font-family="sans-serif" font-weight="bold" font-size="14.00" fill="#000000">Legend</text>
<polygon fill="#ffffb3" stroke="transparent" points="516,-10 516,-30 536,-30 536,-10 516,-10"/>
<text text-anchor="start" x="539.629" y="-15.4" font-family="sans-serif" font-size="14.00" fill="#000000"> &#160;Declarations</text>
<polygon fill="#8dd3c7" stroke="transparent" points="629,-10 629,-30 649,-30 649,-10 629,-10"/>
<text text-anchor="start" x="652.7251" y="-15.4" font-family="sans-serif" font-size="14.00" fill="#000000"> &#160;Module</text>
<polygon fill="#80b1d3" stroke="transparent" points="715,-10 715,-30 735,-30 735,-10 715,-10"/>
<text text-anchor="start" x="738.7812" y="-15.4" font-family="sans-serif" font-size="14.00" fill="#000000"> &#160;Bootstrap</text>
<polygon fill="#fdb462" stroke="transparent" points="812,-10 812,-30 832,-30 832,-10 812,-10"/>
<text text-anchor="start" x="835.6732" y="-15.4" font-family="sans-serif" font-size="14.00" fill="#000000"> &#160;Providers</text>
<polygon fill="#fb8072" stroke="transparent" points="908,-10 908,-30 928,-30 928,-10 908,-10"/>
<text text-anchor="start" x="931.7258" y="-15.4" font-family="sans-serif" font-size="14.00" fill="#000000"> &#160;Exports</text>
<g id="clust1" class="cluster">
<title>cluster_ToolbarOptionsModule</title>
<polygon fill="none" stroke="#000000" stroke-dasharray="1,5" points="8,-70 8,-333 1492,-333 1492,-70 8,-70"/>
</g>
<g id="clust2" class="cluster">
<title>cluster_ToolbarOptionsModule_declarations</title>
<polygon fill="none" stroke="#000000" points="1298,-143 1298,-195 1484,-195 1484,-143 1298,-143"/>
</g>
<g id="clust3" class="cluster">
<title>cluster_ToolbarOptionsModule_ToolbarOptionsComponent_providers</title>
<polygon fill="none" stroke="#000000" points="1336,-78 1336,-130 1446,-130 1446,-78 1336,-78"/>
</g>
<g id="clust4" class="cluster">
<title>cluster_ToolbarOptionsModule_imports</title>
<polygon fill="none" stroke="#000000" points="962,-143 962,-195 1290,-195 1290,-143 962,-143"/>
</g>
<g id="clust5" class="cluster">
<title>cluster_ToolbarOptionsModule_exports</title>
<polygon fill="none" stroke="#000000" points="672,-273 672,-325 862,-325 862,-273 672,-273"/>
</g>
<g id="clust7" class="cluster">
<title>cluster_ToolbarOptionsModule_providers</title>
<polygon fill="none" stroke="#000000" points="16,-143 16,-195 954,-195 954,-143 16,-143"/>
</g>
<!-- ToolbarOptionsComponent -->
<g id="node1" class="node">
<title>ToolbarOptionsComponent</title>
<polygon fill="#ffffb3" stroke="#000000" points="1475.9832,-187 1306.0168,-187 1306.0168,-151 1475.9832,-151 1475.9832,-187"/>
<text text-anchor="middle" x="1391" y="-164.8" font-family="Times,serif" font-size="14.00" fill="#000000">ToolbarOptionsComponent</text>
</g>
<!-- ToolbarOptionsModule -->
<g id="node2" class="node">
<title>ToolbarOptionsModule</title>
<polygon fill="#8dd3c7" stroke="#000000" points="841.2007,-252 838.2007,-256 817.2007,-256 814.2007,-252 692.7993,-252 692.7993,-216 841.2007,-216 841.2007,-252"/>
<text text-anchor="middle" x="767" y="-229.8" font-family="Times,serif" font-size="14.00" fill="#000000">ToolbarOptionsModule</text>
</g>
<!-- ToolbarOptionsComponent&#45;&gt;ToolbarOptionsModule -->
<g id="edge1" class="edge">
<title>ToolbarOptionsComponent&#45;&gt;ToolbarOptionsModule</title>
<path fill="none" stroke="#000000" d="M1391,-187.2921C1391,-209.2057 1391,-243 1391,-243 1391,-243 851.34,-243 851.34,-243"/>
<polygon fill="#000000" stroke="#000000" points="851.3401,-239.5001 841.34,-243 851.34,-246.5001 851.3401,-239.5001"/>
</g>
<!-- ToolbarOptionsComponent  -->
<g id="node6" class="node">
<title>ToolbarOptionsComponent </title>
<polygon fill="#fb8072" stroke="#000000" points="853.9839,-317 680.0161,-317 680.0161,-281 853.9839,-281 853.9839,-317"/>
<text text-anchor="middle" x="767" y="-294.8" font-family="Times,serif" font-size="14.00" fill="#000000">ToolbarOptionsComponent </text>
</g>
<!-- ToolbarOptionsModule&#45;&gt;ToolbarOptionsComponent  -->
<g id="edge5" class="edge">
<title>ToolbarOptionsModule&#45;&gt;ToolbarOptionsComponent </title>
<path fill="none" stroke="#000000" stroke-dasharray="5,2" d="M767,-252.1061C767,-252.1061 767,-270.991 767,-270.991"/>
<polygon fill="#000000" stroke="#000000" points="763.5001,-270.9909 767,-280.991 770.5001,-270.991 763.5001,-270.9909"/>
</g>
<!-- { : , : () } -->
<g id="node3" class="node">
<title>{ : , : () }</title>
<ellipse fill="#fdb462" stroke="#000000" cx="1391" cy="-104" rx="46.6753" ry="18"/>
<text text-anchor="middle" x="1391" y="-99.8" font-family="Times,serif" font-size="14.00" fill="#000000">{ : , : () }</text>
</g>
<!-- { : , : () }&#45;&gt;ToolbarOptionsComponent -->
<g id="edge2" class="edge">
<title>{ : , : () }&#45;&gt;ToolbarOptionsComponent</title>
<path fill="none" stroke="#000000" d="M1391,-122.1061C1391,-122.1061 1391,-140.991 1391,-140.991"/>
<polygon fill="#000000" stroke="#000000" points="1387.5001,-140.9909 1391,-150.991 1394.5001,-140.991 1387.5001,-140.9909"/>
</g>
<!-- MaterialModule -->
<g id="node4" class="node">
<title>MaterialModule</title>
<polygon fill="#8dd3c7" stroke="#000000" points="1282.4706,-187 1279.4706,-191 1258.4706,-191 1255.4706,-187 1175.5294,-187 1175.5294,-151 1282.4706,-151 1282.4706,-187"/>
<text text-anchor="middle" x="1229" y="-164.8" font-family="Times,serif" font-size="14.00" fill="#000000">MaterialModule</text>
</g>
<!-- MaterialModule&#45;&gt;ToolbarOptionsModule -->
<g id="edge3" class="edge">
<title>MaterialModule&#45;&gt;ToolbarOptionsModule</title>
<path fill="none" stroke="#000000" d="M1229,-187.1061C1229,-206.3391 1229,-234 1229,-234 1229,-234 851.2283,-234 851.2283,-234"/>
<polygon fill="#000000" stroke="#000000" points="851.2283,-230.5001 841.2283,-234 851.2283,-237.5001 851.2283,-230.5001"/>
</g>
<!-- DownloadOrderModalModule -->
<g id="node5" class="node">
<title>DownloadOrderModalModule</title>
<polygon fill="#8dd3c7" stroke="#000000" points="1157.5604,-187 1154.5604,-191 1133.5604,-191 1130.5604,-187 970.4396,-187 970.4396,-151 1157.5604,-151 1157.5604,-187"/>
<text text-anchor="middle" x="1064" y="-164.8" font-family="Times,serif" font-size="14.00" fill="#000000">DownloadOrderModalModule</text>
</g>
<!-- DownloadOrderModalModule&#45;&gt;ToolbarOptionsModule -->
<g id="edge4" class="edge">
<title>DownloadOrderModalModule&#45;&gt;ToolbarOptionsModule</title>
<path fill="none" stroke="#000000" d="M1064,-187.027C1064,-203.3976 1064,-225 1064,-225 1064,-225 851.1795,-225 851.1795,-225"/>
<polygon fill="#000000" stroke="#000000" points="851.1795,-221.5001 841.1795,-225 851.1795,-228.5001 851.1795,-221.5001"/>
</g>
<!-- EndpointService -->
<g id="node7" class="node">
<title>EndpointService</title>
<ellipse fill="#fdb462" stroke="#000000" cx="871" cy="-169" rx="75.3021" ry="18"/>
<text text-anchor="middle" x="871" y="-164.8" font-family="Times,serif" font-size="14.00" fill="#000000">EndpointService</text>
</g>
<!-- EndpointService&#45;&gt;ToolbarOptionsModule -->
<g id="edge6" class="edge">
<title>EndpointService&#45;&gt;ToolbarOptionsModule</title>
<path fill="none" stroke="#000000" d="M818.3496,-182.1537C818.3496,-182.1537 818.3496,-205.6938 818.3496,-205.6938"/>
<polygon fill="#000000" stroke="#000000" points="814.8497,-205.6938 818.3496,-215.6938 821.8497,-205.6939 814.8497,-205.6938"/>
</g>
<!-- HttpErrorHandlingService -->
<g id="node8" class="node">
<title>HttpErrorHandlingService</title>
<ellipse fill="#fdb462" stroke="#000000" cx="664" cy="-169" rx="113.4412" ry="18"/>
<text text-anchor="middle" x="664" y="-164.8" font-family="Times,serif" font-size="14.00" fill="#000000">HttpErrorHandlingService</text>
</g>
<!-- HttpErrorHandlingService&#45;&gt;ToolbarOptionsModule -->
<g id="edge7" class="edge">
<title>HttpErrorHandlingService&#45;&gt;ToolbarOptionsModule</title>
<path fill="none" stroke="#000000" d="M735.1852,-183.104C735.1852,-183.104 735.1852,-205.7209 735.1852,-205.7209"/>
<polygon fill="#000000" stroke="#000000" points="731.6853,-205.7209 735.1852,-215.7209 738.6853,-205.7209 731.6853,-205.7209"/>
</g>
<!-- UserService -->
<g id="node9" class="node">
<title>UserService</title>
<ellipse fill="#fdb462" stroke="#000000" cx="474" cy="-169" rx="58.4415" ry="18"/>
<text text-anchor="middle" x="474" y="-164.8" font-family="Times,serif" font-size="14.00" fill="#000000">UserService</text>
</g>
<!-- UserService&#45;&gt;ToolbarOptionsModule -->
<g id="edge8" class="edge">
<title>UserService&#45;&gt;ToolbarOptionsModule</title>
<path fill="none" stroke="#000000" d="M474,-187.027C474,-203.3976 474,-225 474,-225 474,-225 682.685,-225 682.685,-225"/>
<polygon fill="#000000" stroke="#000000" points="682.685,-228.5001 692.685,-225 682.6849,-221.5001 682.685,-228.5001"/>
</g>
<!-- ComponentsService -->
<g id="node10" class="node">
<title>ComponentsService</title>
<ellipse fill="#fdb462" stroke="#000000" cx="309" cy="-169" rx="88.6255" ry="18"/>
<text text-anchor="middle" x="309" y="-164.8" font-family="Times,serif" font-size="14.00" fill="#000000">ComponentsService</text>
</g>
<!-- ComponentsService&#45;&gt;ToolbarOptionsModule -->
<g id="edge9" class="edge">
<title>ComponentsService&#45;&gt;ToolbarOptionsModule</title>
<path fill="none" stroke="#000000" d="M309,-187.1061C309,-206.3391 309,-234 309,-234 309,-234 682.6504,-234 682.6504,-234"/>
<polygon fill="#000000" stroke="#000000" points="682.6504,-237.5001 692.6504,-234 682.6503,-230.5001 682.6504,-237.5001"/>
</g>
<!-- EventEmitterOrders -->
<g id="node11" class="node">
<title>EventEmitterOrders</title>
<ellipse fill="#fdb462" stroke="#000000" cx="113" cy="-169" rx="88.5986" ry="18"/>
<text text-anchor="middle" x="113" y="-164.8" font-family="Times,serif" font-size="14.00" fill="#000000">EventEmitterOrders</text>
</g>
<!-- EventEmitterOrders&#45;&gt;ToolbarOptionsModule -->
<g id="edge10" class="edge">
<title>EventEmitterOrders&#45;&gt;ToolbarOptionsModule</title>
<path fill="none" stroke="#000000" d="M113,-187.2921C113,-209.2057 113,-243 113,-243 113,-243 682.6146,-243 682.6146,-243"/>
<polygon fill="#000000" stroke="#000000" points="682.6147,-246.5001 692.6146,-243 682.6146,-239.5001 682.6147,-246.5001"/>
</g>
</g>
</svg>
