<?xml version="1.0" encoding="UTF-8" standalone="no"?>
<!DOCTYPE svg PUBLIC "-//W3C//DTD SVG 1.1//EN"
 "http://www.w3.org/Graphics/SVG/1.1/DTD/svg11.dtd">
<!-- Generated by graphviz version 2.40.1 (20161225.0304)
 -->
<!-- Title: dependencies Pages: 1 -->
<svg width="1003pt" height="284pt"
 viewBox="0.00 0.00 1003.00 284.00" xmlns="http://www.w3.org/2000/svg" xmlns:xlink="http://www.w3.org/1999/xlink">
<g id="graph0" class="graph" transform="scale(1 1) rotate(0) translate(4 280)">
<title>dependencies</title>
<polygon fill="#ffffff" stroke="transparent" points="-4,4 -4,-280 999,-280 999,4 -4,4"/>
<text text-anchor="start" x="476.5091" y="-42.4" font-family="sans-serif" font-weight="bold" font-size="14.00" fill="#000000">Legend</text>
<polygon fill="#ffffb3" stroke="transparent" points="263.5,-10 263.5,-30 283.5,-30 283.5,-10 263.5,-10"/>
<text text-anchor="start" x="287.129" y="-15.4" font-family="sans-serif" font-size="14.00" fill="#000000"> &#160;Declarations</text>
<polygon fill="#8dd3c7" stroke="transparent" points="376.5,-10 376.5,-30 396.5,-30 396.5,-10 376.5,-10"/>
<text text-anchor="start" x="400.2251" y="-15.4" font-family="sans-serif" font-size="14.00" fill="#000000"> &#160;Module</text>
<polygon fill="#80b1d3" stroke="transparent" points="462.5,-10 462.5,-30 482.5,-30 482.5,-10 462.5,-10"/>
<text text-anchor="start" x="486.2812" y="-15.4" font-family="sans-serif" font-size="14.00" fill="#000000"> &#160;Bootstrap</text>
<polygon fill="#fdb462" stroke="transparent" points="559.5,-10 559.5,-30 579.5,-30 579.5,-10 559.5,-10"/>
<text text-anchor="start" x="583.1732" y="-15.4" font-family="sans-serif" font-size="14.00" fill="#000000"> &#160;Providers</text>
<polygon fill="#fb8072" stroke="transparent" points="655.5,-10 655.5,-30 675.5,-30 675.5,-10 655.5,-10"/>
<text text-anchor="start" x="679.2258" y="-15.4" font-family="sans-serif" font-size="14.00" fill="#000000"> &#160;Exports</text>
<g id="clust1" class="cluster">
<title>cluster_DispatchModule</title>
<polygon fill="none" stroke="#000000" stroke-dasharray="1,5" points="8,-70 8,-268 987,-268 987,-70 8,-70"/>
</g>
<g id="clust2" class="cluster">
<title>cluster_DispatchModule_declarations</title>
<polygon fill="none" stroke="#000000" points="819,-78 819,-130 979,-130 979,-78 819,-78"/>
</g>
<g id="clust4" class="cluster">
<title>cluster_DispatchModule_imports</title>
<polygon fill="none" stroke="#000000" points="202,-78 202,-130 811,-130 811,-78 202,-78"/>
</g>
<g id="clust5" class="cluster">
<title>cluster_DispatchModule_exports</title>
<polygon fill="none" stroke="#000000" points="439,-208 439,-260 603,-260 603,-208 439,-208"/>
</g>
<g id="clust7" class="cluster">
<title>cluster_DispatchModule_providers</title>
<polygon fill="none" stroke="#000000" points="16,-78 16,-130 194,-130 194,-78 16,-78"/>
</g>
<!-- DispatchedComponent -->
<g id="node1" class="node">
<title>DispatchedComponent</title>
<polygon fill="#ffffb3" stroke="#000000" points="971.3089,-122 826.6911,-122 826.6911,-86 971.3089,-86 971.3089,-122"/>
<text text-anchor="middle" x="899" y="-99.8" font-family="Times,serif" font-size="14.00" fill="#000000">DispatchedComponent</text>
</g>
<!-- DispatchModule -->
<g id="node2" class="node">
<title>DispatchModule</title>
<polygon fill="#8dd3c7" stroke="#000000" points="575.8118,-187 572.8118,-191 551.8118,-191 548.8118,-187 466.1882,-187 466.1882,-151 575.8118,-151 575.8118,-187"/>
<text text-anchor="middle" x="521" y="-164.8" font-family="Times,serif" font-size="14.00" fill="#000000">DispatchModule</text>
</g>
<!-- DispatchedComponent&#45;&gt;DispatchModule -->
<g id="edge1" class="edge">
<title>DispatchedComponent&#45;&gt;DispatchModule</title>
<path fill="none" stroke="#000000" d="M899,-122.2843C899,-143.3211 899,-175 899,-175 899,-175 585.9644,-175 585.9644,-175"/>
<polygon fill="#000000" stroke="#000000" points="585.9645,-171.5001 575.9644,-175 585.9644,-178.5001 585.9645,-171.5001"/>
</g>
<!-- DispatchedComponent  -->
<g id="node7" class="node">
<title>DispatchedComponent </title>
<polygon fill="#fb8072" stroke="#000000" points="594.8087,-252 447.1913,-252 447.1913,-216 594.8087,-216 594.8087,-252"/>
<text text-anchor="middle" x="521" y="-229.8" font-family="Times,serif" font-size="14.00" fill="#000000">DispatchedComponent </text>
</g>
<!-- DispatchModule&#45;&gt;DispatchedComponent  -->
<g id="edge6" class="edge">
<title>DispatchModule&#45;&gt;DispatchedComponent </title>
<path fill="none" stroke="#000000" stroke-dasharray="5,2" d="M521,-187.1061C521,-187.1061 521,-205.991 521,-205.991"/>
<polygon fill="#000000" stroke="#000000" points="517.5001,-205.9909 521,-215.991 524.5001,-205.991 517.5001,-205.9909"/>
</g>
<!-- MaterialModule -->
<g id="node3" class="node">
<title>MaterialModule</title>
<polygon fill="#8dd3c7" stroke="#000000" points="803.4706,-122 800.4706,-126 779.4706,-126 776.4706,-122 696.5294,-122 696.5294,-86 803.4706,-86 803.4706,-122"/>
<text text-anchor="middle" x="750" y="-99.8" font-family="Times,serif" font-size="14.00" fill="#000000">MaterialModule</text>
</g>
<!-- MaterialModule&#45;&gt;DispatchModule -->
<g id="edge2" class="edge">
<title>MaterialModule&#45;&gt;DispatchModule</title>
<path fill="none" stroke="#000000" d="M750,-122.0225C750,-139.3734 750,-163 750,-163 750,-163 585.8512,-163 585.8512,-163"/>
<polygon fill="#000000" stroke="#000000" points="585.8512,-159.5001 575.8512,-163 585.8512,-166.5001 585.8512,-159.5001"/>
</g>
<!-- DispatchRoutingModule -->
<g id="node4" class="node">
<title>DispatchRoutingModule</title>
<polygon fill="#8dd3c7" stroke="#000000" points="678.4298,-122 675.4298,-126 654.4298,-126 651.4298,-122 523.5702,-122 523.5702,-86 678.4298,-86 678.4298,-122"/>
<text text-anchor="middle" x="601" y="-99.8" font-family="Times,serif" font-size="14.00" fill="#000000">DispatchRoutingModule</text>
</g>
<!-- DispatchRoutingModule&#45;&gt;DispatchModule -->
<g id="edge3" class="edge">
<title>DispatchRoutingModule&#45;&gt;DispatchModule</title>
<path fill="none" stroke="#000000" d="M549.7206,-122.1061C549.7206,-122.1061 549.7206,-140.991 549.7206,-140.991"/>
<polygon fill="#000000" stroke="#000000" points="546.2206,-140.9909 549.7206,-150.991 553.2206,-140.991 546.2206,-140.9909"/>
</g>
<!-- ToolbarLinkModule -->
<g id="node5" class="node">
<title>ToolbarLinkModule</title>
<polygon fill="#8dd3c7" stroke="#000000" points="506.3118,-122 503.3118,-126 482.3118,-126 479.3118,-122 375.6882,-122 375.6882,-86 506.3118,-86 506.3118,-122"/>
<text text-anchor="middle" x="441" y="-99.8" font-family="Times,serif" font-size="14.00" fill="#000000">ToolbarLinkModule</text>
</g>
<!-- ToolbarLinkModule&#45;&gt;DispatchModule -->
<g id="edge4" class="edge">
<title>ToolbarLinkModule&#45;&gt;DispatchModule</title>
<path fill="none" stroke="#000000" d="M486.25,-122.1061C486.25,-122.1061 486.25,-140.991 486.25,-140.991"/>
<polygon fill="#000000" stroke="#000000" points="482.7501,-140.9909 486.25,-150.991 489.7501,-140.991 482.7501,-140.9909"/>
</g>
<!-- ToolbarOptionsModule -->
<g id="node6" class="node">
<title>ToolbarOptionsModule</title>
<polygon fill="#8dd3c7" stroke="#000000" points="358.2007,-122 355.2007,-126 334.2007,-126 331.2007,-122 209.7993,-122 209.7993,-86 358.2007,-86 358.2007,-122"/>
<text text-anchor="middle" x="284" y="-99.8" font-family="Times,serif" font-size="14.00" fill="#000000">ToolbarOptionsModule</text>
</g>
<!-- ToolbarOptionsModule&#45;&gt;DispatchModule -->
<g id="edge5" class="edge">
<title>ToolbarOptionsModule&#45;&gt;DispatchModule</title>
<path fill="none" stroke="#000000" d="M284,-122.0225C284,-139.3734 284,-163 284,-163 284,-163 456.3298,-163 456.3298,-163"/>
<polygon fill="#000000" stroke="#000000" points="456.3299,-166.5001 466.3298,-163 456.3298,-159.5001 456.3299,-166.5001"/>
</g>
<!-- ShipmentsService -->
<g id="node8" class="node">
<title>ShipmentsService</title>
<ellipse fill="#fdb462" stroke="#000000" cx="105" cy="-104" rx="80.5354" ry="18"/>
<text text-anchor="middle" x="105" y="-99.8" font-family="Times,serif" font-size="14.00" fill="#000000">ShipmentsService</text>
</g>
<!-- ShipmentsService&#45;&gt;DispatchModule -->
<g id="edge7" class="edge">
<title>ShipmentsService&#45;&gt;DispatchModule</title>
<path fill="none" stroke="#000000" d="M105,-122.2843C105,-143.3211 105,-175 105,-175 105,-175 456.1875,-175 456.1875,-175"/>
<polygon fill="#000000" stroke="#000000" points="456.1875,-178.5001 466.1875,-175 456.1875,-171.5001 456.1875,-178.5001"/>
</g>
</g>
</svg>
