<?xml version="1.0" encoding="UTF-8" standalone="no"?>
<!DOCTYPE svg PUBLIC "-//W3C//DTD SVG 1.1//EN"
 "http://www.w3.org/Graphics/SVG/1.1/DTD/svg11.dtd">
<!-- Generated by graphviz version 2.40.1 (20161225.0304)
 -->
<!-- Title: dependencies Pages: 1 -->
<svg width="1129pt" height="211pt"
 viewBox="0.00 0.00 1129.00 211.00" xmlns="http://www.w3.org/2000/svg" xmlns:xlink="http://www.w3.org/1999/xlink">
<g id="graph0" class="graph" transform="scale(1 1) rotate(0) translate(4 207)">
<title>dependencies</title>
<polygon fill="#ffffff" stroke="transparent" points="-4,4 -4,-207 1125,-207 1125,4 -4,4"/>
<text text-anchor="start" x="539.5091" y="-42.4" font-family="sans-serif" font-weight="bold" font-size="14.00" fill="#000000">Legend</text>
<polygon fill="#ffffb3" stroke="transparent" points="326.5,-10 326.5,-30 346.5,-30 346.5,-10 326.5,-10"/>
<text text-anchor="start" x="350.129" y="-15.4" font-family="sans-serif" font-size="14.00" fill="#000000"> &#160;Declarations</text>
<polygon fill="#8dd3c7" stroke="transparent" points="439.5,-10 439.5,-30 459.5,-30 459.5,-10 439.5,-10"/>
<text text-anchor="start" x="463.2251" y="-15.4" font-family="sans-serif" font-size="14.00" fill="#000000"> &#160;Module</text>
<polygon fill="#80b1d3" stroke="transparent" points="525.5,-10 525.5,-30 545.5,-30 545.5,-10 525.5,-10"/>
<text text-anchor="start" x="549.2812" y="-15.4" font-family="sans-serif" font-size="14.00" fill="#000000"> &#160;Bootstrap</text>
<polygon fill="#fdb462" stroke="transparent" points="622.5,-10 622.5,-30 642.5,-30 642.5,-10 622.5,-10"/>
<text text-anchor="start" x="646.1732" y="-15.4" font-family="sans-serif" font-size="14.00" fill="#000000"> &#160;Providers</text>
<polygon fill="#fb8072" stroke="transparent" points="718.5,-10 718.5,-30 738.5,-30 738.5,-10 718.5,-10"/>
<text text-anchor="start" x="742.2258" y="-15.4" font-family="sans-serif" font-size="14.00" fill="#000000"> &#160;Exports</text>
<g id="clust1" class="cluster">
<title>cluster_HomeModule</title>
<polygon fill="none" stroke="#000000" stroke-dasharray="1,5" points="8,-70 8,-195 1113,-195 1113,-70 8,-70"/>
</g>
<g id="clust2" class="cluster">
<title>cluster_HomeModule_declarations</title>
<polygon fill="none" stroke="#000000" points="973,-78 973,-130 1105,-130 1105,-78 973,-78"/>
</g>
<g id="clust4" class="cluster">
<title>cluster_HomeModule_imports</title>
<polygon fill="none" stroke="#000000" points="570,-78 570,-130 965,-130 965,-78 570,-78"/>
</g>
<g id="clust7" class="cluster">
<title>cluster_HomeModule_providers</title>
<polygon fill="none" stroke="#000000" points="16,-78 16,-130 562,-130 562,-78 16,-78"/>
</g>
<!-- HomeComponent -->
<g id="node1" class="node">
<title>HomeComponent</title>
<polygon fill="#ffffb3" stroke="#000000" points="1096.5451,-122 981.4549,-122 981.4549,-86 1096.5451,-86 1096.5451,-122"/>
<text text-anchor="middle" x="1039" y="-99.8" font-family="Times,serif" font-size="14.00" fill="#000000">HomeComponent</text>
</g>
<!-- HomeModule -->
<g id="node2" class="node">
<title>HomeModule</title>
<polygon fill="#8dd3c7" stroke="#000000" points="673.7619,-187 670.7619,-191 649.7619,-191 646.7619,-187 580.2381,-187 580.2381,-151 673.7619,-151 673.7619,-187"/>
<text text-anchor="middle" x="627" y="-164.8" font-family="Times,serif" font-size="14.00" fill="#000000">HomeModule</text>
</g>
<!-- HomeComponent&#45;&gt;HomeModule -->
<g id="edge1" class="edge">
<title>HomeComponent&#45;&gt;HomeModule</title>
<path fill="none" stroke="#000000" d="M1039,-122.2921C1039,-144.2057 1039,-178 1039,-178 1039,-178 683.8605,-178 683.8605,-178"/>
<polygon fill="#000000" stroke="#000000" points="683.8606,-174.5001 673.8605,-178 683.8605,-181.5001 683.8606,-174.5001"/>
</g>
<!-- MaterialModule -->
<g id="node3" class="node">
<title>MaterialModule</title>
<polygon fill="#8dd3c7" stroke="#000000" points="957.4706,-122 954.4706,-126 933.4706,-126 930.4706,-122 850.5294,-122 850.5294,-86 957.4706,-86 957.4706,-122"/>
<text text-anchor="middle" x="904" y="-99.8" font-family="Times,serif" font-size="14.00" fill="#000000">MaterialModule</text>
</g>
<!-- MaterialModule&#45;&gt;HomeModule -->
<g id="edge2" class="edge">
<title>MaterialModule&#45;&gt;HomeModule</title>
<path fill="none" stroke="#000000" d="M904,-122.1061C904,-141.3391 904,-169 904,-169 904,-169 683.9893,-169 683.9893,-169"/>
<polygon fill="#000000" stroke="#000000" points="683.9893,-165.5001 673.9893,-169 683.9892,-172.5001 683.9893,-165.5001"/>
</g>
<!-- HomeRoutingModule -->
<g id="node4" class="node">
<title>HomeRoutingModule</title>
<polygon fill="#8dd3c7" stroke="#000000" points="832.3795,-122 829.3795,-126 808.3795,-126 805.3795,-122 693.6205,-122 693.6205,-86 832.3795,-86 832.3795,-122"/>
<text text-anchor="middle" x="763" y="-99.8" font-family="Times,serif" font-size="14.00" fill="#000000">HomeRoutingModule</text>
</g>
<!-- HomeRoutingModule&#45;&gt;HomeModule -->
<g id="edge3" class="edge">
<title>HomeRoutingModule&#45;&gt;HomeModule</title>
<path fill="none" stroke="#000000" d="M763,-122.027C763,-138.3976 763,-160 763,-160 763,-160 683.8035,-160 683.8035,-160"/>
<polygon fill="#000000" stroke="#000000" points="683.8035,-156.5001 673.8035,-160 683.8034,-163.5001 683.8035,-156.5001"/>
</g>
<!-- OrdersModule -->
<g id="node5" class="node">
<title>OrdersModule</title>
<polygon fill="#8dd3c7" stroke="#000000" points="675.6375,-122 672.6375,-126 651.6375,-126 648.6375,-122 578.3625,-122 578.3625,-86 675.6375,-86 675.6375,-122"/>
<text text-anchor="middle" x="627" y="-99.8" font-family="Times,serif" font-size="14.00" fill="#000000">OrdersModule</text>
</g>
<!-- OrdersModule&#45;&gt;HomeModule -->
<g id="edge4" class="edge">
<title>OrdersModule&#45;&gt;HomeModule</title>
<path fill="none" stroke="#000000" d="M627,-122.1061C627,-122.1061 627,-140.991 627,-140.991"/>
<polygon fill="#000000" stroke="#000000" points="623.5001,-140.9909 627,-150.991 630.5001,-140.991 623.5001,-140.9909"/>
</g>
<!-- HttpErrorHandlingService -->
<g id="node6" class="node">
<title>HttpErrorHandlingService</title>
<ellipse fill="#fdb462" stroke="#000000" cx="441" cy="-104" rx="113.4412" ry="18"/>
<text text-anchor="middle" x="441" y="-99.8" font-family="Times,serif" font-size="14.00" fill="#000000">HttpErrorHandlingService</text>
</g>
<!-- HttpErrorHandlingService&#45;&gt;HomeModule -->
<g id="edge5" class="edge">
<title>HttpErrorHandlingService&#45;&gt;HomeModule</title>
<path fill="none" stroke="#000000" d="M441,-122.027C441,-138.3976 441,-160 441,-160 441,-160 570.0643,-160 570.0643,-160"/>
<polygon fill="#000000" stroke="#000000" points="570.0644,-163.5001 580.0643,-160 570.0643,-156.5001 570.0644,-163.5001"/>
</g>
<!-- EndpointService -->
<g id="node7" class="node">
<title>EndpointService</title>
<ellipse fill="#fdb462" stroke="#000000" cx="234" cy="-104" rx="75.3021" ry="18"/>
<text text-anchor="middle" x="234" y="-99.8" font-family="Times,serif" font-size="14.00" fill="#000000">EndpointService</text>
</g>
<!-- EndpointService&#45;&gt;HomeModule -->
<g id="edge6" class="edge">
<title>EndpointService&#45;&gt;HomeModule</title>
<path fill="none" stroke="#000000" d="M234,-122.1061C234,-141.3391 234,-169 234,-169 234,-169 569.9854,-169 569.9854,-169"/>
<polygon fill="#000000" stroke="#000000" points="569.9854,-172.5001 579.9854,-169 569.9853,-165.5001 569.9854,-172.5001"/>
</g>
<!-- UserService -->
<g id="node8" class="node">
<title>UserService</title>
<ellipse fill="#fdb462" stroke="#000000" cx="82" cy="-104" rx="58.4415" ry="18"/>
<text text-anchor="middle" x="82" y="-99.8" font-family="Times,serif" font-size="14.00" fill="#000000">UserService</text>
</g>
<!-- UserService&#45;&gt;HomeModule -->
<g id="edge7" class="edge">
<title>UserService&#45;&gt;HomeModule</title>
<path fill="none" stroke="#000000" d="M82,-122.2921C82,-144.2057 82,-178 82,-178 82,-178 570.0619,-178 570.0619,-178"/>
<polygon fill="#000000" stroke="#000000" points="570.0619,-181.5001 580.0619,-178 570.0619,-174.5001 570.0619,-181.5001"/>
</g>
</g>
</svg>
