<?xml version="1.0" encoding="UTF-8" standalone="no"?>
<!DOCTYPE svg PUBLIC "-//W3C//DTD SVG 1.1//EN"
 "http://www.w3.org/Graphics/SVG/1.1/DTD/svg11.dtd">
<!-- Generated by graphviz version 2.40.1 (20161225.0304)
 -->
<!-- Title: dependencies Pages: 1 -->
<svg width="2441pt" height="284pt"
 viewBox="0.00 0.00 2441.00 284.00" xmlns="http://www.w3.org/2000/svg" xmlns:xlink="http://www.w3.org/1999/xlink">
<g id="graph0" class="graph" transform="scale(1 1) rotate(0) translate(4 280)">
<title>dependencies</title>
<polygon fill="#ffffff" stroke="transparent" points="-4,4 -4,-280 2437,-280 2437,4 -4,4"/>
<text text-anchor="start" x="1195.5091" y="-42.4" font-family="sans-serif" font-weight="bold" font-size="14.00" fill="#000000">Legend</text>
<polygon fill="#ffffb3" stroke="transparent" points="982.5,-10 982.5,-30 1002.5,-30 1002.5,-10 982.5,-10"/>
<text text-anchor="start" x="1006.129" y="-15.4" font-family="sans-serif" font-size="14.00" fill="#000000"> &#160;Declarations</text>
<polygon fill="#8dd3c7" stroke="transparent" points="1095.5,-10 1095.5,-30 1115.5,-30 1115.5,-10 1095.5,-10"/>
<text text-anchor="start" x="1119.2251" y="-15.4" font-family="sans-serif" font-size="14.00" fill="#000000"> &#160;Module</text>
<polygon fill="#80b1d3" stroke="transparent" points="1181.5,-10 1181.5,-30 1201.5,-30 1201.5,-10 1181.5,-10"/>
<text text-anchor="start" x="1205.2812" y="-15.4" font-family="sans-serif" font-size="14.00" fill="#000000"> &#160;Bootstrap</text>
<polygon fill="#fdb462" stroke="transparent" points="1278.5,-10 1278.5,-30 1298.5,-30 1298.5,-10 1278.5,-10"/>
<text text-anchor="start" x="1302.1732" y="-15.4" font-family="sans-serif" font-size="14.00" fill="#000000"> &#160;Providers</text>
<polygon fill="#fb8072" stroke="transparent" points="1374.5,-10 1374.5,-30 1394.5,-30 1394.5,-10 1374.5,-10"/>
<text text-anchor="start" x="1398.2258" y="-15.4" font-family="sans-serif" font-size="14.00" fill="#000000"> &#160;Exports</text>
<g id="clust1" class="cluster">
<title>cluster_LoadGuideModule</title>
<polygon fill="none" stroke="#000000" stroke-dasharray="1,5" points="8,-70 8,-268 2425,-268 2425,-70 8,-70"/>
</g>
<g id="clust2" class="cluster">
<title>cluster_LoadGuideModule_declarations</title>
<polygon fill="none" stroke="#000000" points="1463,-78 1463,-130 2417,-130 2417,-78 1463,-78"/>
</g>
<g id="clust8" class="cluster">
<title>cluster_LoadGuideModule_imports</title>
<polygon fill="none" stroke="#000000" points="1147,-78 1147,-130 1455,-130 1455,-78 1147,-78"/>
</g>
<g id="clust9" class="cluster">
<title>cluster_LoadGuideModule_exports</title>
<polygon fill="none" stroke="#000000" points="789,-208 789,-260 1762,-260 1762,-208 789,-208"/>
</g>
<g id="clust11" class="cluster">
<title>cluster_LoadGuideModule_providers</title>
<polygon fill="none" stroke="#000000" points="16,-78 16,-130 1139,-130 1139,-78 16,-78"/>
</g>
<!-- LoadGuidePageComponent -->
<g id="node1" class="node">
<title>LoadGuidePageComponent</title>
<polygon fill="#ffffb3" stroke="#000000" points="2408.5239,-122 2237.4761,-122 2237.4761,-86 2408.5239,-86 2408.5239,-122"/>
<text text-anchor="middle" x="2323" y="-99.8" font-family="Times,serif" font-size="14.00" fill="#000000">LoadGuidePageComponent</text>
</g>
<!-- LoadGuideModule -->
<g id="node6" class="node">
<title>LoadGuideModule</title>
<polygon fill="#8dd3c7" stroke="#000000" points="1300.0297,-187 1297.0297,-191 1276.0297,-191 1273.0297,-187 1177.9703,-187 1177.9703,-151 1300.0297,-151 1300.0297,-187"/>
<text text-anchor="middle" x="1239" y="-164.8" font-family="Times,serif" font-size="14.00" fill="#000000">LoadGuideModule</text>
</g>
<!-- LoadGuidePageComponent&#45;&gt;LoadGuideModule -->
<g id="edge1" class="edge">
<title>LoadGuidePageComponent&#45;&gt;LoadGuideModule</title>
<path fill="none" stroke="#000000" d="M2323,-122.2843C2323,-143.3211 2323,-175 2323,-175 2323,-175 1310.3864,-175 1310.3864,-175"/>
<polygon fill="#000000" stroke="#000000" points="1310.3865,-171.5001 1300.3864,-175 1310.3864,-178.5001 1310.3865,-171.5001"/>
</g>
<!-- FinishUploadInformationComponent -->
<g id="node2" class="node">
<title>FinishUploadInformationComponent</title>
<polygon fill="#ffffb3" stroke="#000000" points="2219.4212,-122 1994.5788,-122 1994.5788,-86 2219.4212,-86 2219.4212,-122"/>
<text text-anchor="middle" x="2107" y="-99.8" font-family="Times,serif" font-size="14.00" fill="#000000">FinishUploadInformationComponent</text>
</g>
<!-- FinishUploadInformationComponent&#45;&gt;LoadGuideModule -->
<g id="edge2" class="edge">
<title>FinishUploadInformationComponent&#45;&gt;LoadGuideModule</title>
<path fill="none" stroke="#000000" d="M2107,-122.308C2107,-142.1455 2107,-171 2107,-171 2107,-171 1310.0361,-171 1310.0361,-171"/>
<polygon fill="#000000" stroke="#000000" points="1310.0361,-167.5001 1300.0361,-171 1310.036,-174.5001 1310.0361,-167.5001"/>
</g>
<!-- TableErrorsComponent -->
<g id="node3" class="node">
<title>TableErrorsComponent</title>
<polygon fill="#ffffb3" stroke="#000000" points="1977.1839,-122 1828.8161,-122 1828.8161,-86 1977.1839,-86 1977.1839,-122"/>
<text text-anchor="middle" x="1903" y="-99.8" font-family="Times,serif" font-size="14.00" fill="#000000">TableErrorsComponent</text>
</g>
<!-- TableErrorsComponent&#45;&gt;LoadGuideModule -->
<g id="edge3" class="edge">
<title>TableErrorsComponent&#45;&gt;LoadGuideModule</title>
<path fill="none" stroke="#000000" d="M1903,-122.2222C1903,-140.8285 1903,-167 1903,-167 1903,-167 1310.2773,-167 1310.2773,-167"/>
<polygon fill="#000000" stroke="#000000" points="1310.2774,-163.5001 1300.2773,-167 1310.2773,-170.5001 1310.2774,-163.5001"/>
</g>
<!-- DownloadFormatComponent -->
<g id="node4" class="node">
<title>DownloadFormatComponent</title>
<polygon fill="#ffffb3" stroke="#000000" points="1811.0898,-122 1630.9102,-122 1630.9102,-86 1811.0898,-86 1811.0898,-122"/>
<text text-anchor="middle" x="1721" y="-99.8" font-family="Times,serif" font-size="14.00" fill="#000000">DownloadFormatComponent</text>
</g>
<!-- DownloadFormatComponent&#45;&gt;LoadGuideModule -->
<g id="edge4" class="edge">
<title>DownloadFormatComponent&#45;&gt;LoadGuideModule</title>
<path fill="none" stroke="#000000" d="M1692.2334,-122.0225C1692.2334,-139.3734 1692.2334,-163 1692.2334,-163 1692.2334,-163 1310.1251,-163 1310.1251,-163"/>
<polygon fill="#000000" stroke="#000000" points="1310.1251,-159.5001 1300.1251,-163 1310.125,-166.5001 1310.1251,-159.5001"/>
</g>
<!-- TableLoadComponent -->
<g id="node5" class="node">
<title>TableLoadComponent</title>
<polygon fill="#ffffb3" stroke="#000000" points="1612.972,-122 1471.028,-122 1471.028,-86 1612.972,-86 1612.972,-122"/>
<text text-anchor="middle" x="1542" y="-99.8" font-family="Times,serif" font-size="14.00" fill="#000000">TableLoadComponent</text>
</g>
<!-- TableLoadComponent&#45;&gt;LoadGuideModule -->
<g id="edge5" class="edge">
<title>TableLoadComponent&#45;&gt;LoadGuideModule</title>
<path fill="none" stroke="#000000" d="M1515.9872,-122.0091C1515.9872,-138.0494 1515.9872,-159 1515.9872,-159 1515.9872,-159 1310.1289,-159 1310.1289,-159"/>
<polygon fill="#000000" stroke="#000000" points="1310.129,-155.5001 1300.1289,-159 1310.1289,-162.5001 1310.129,-155.5001"/>
</g>
<!-- LoadGuidePageComponent  -->
<g id="node9" class="node">
<title>LoadGuidePageComponent </title>
<polygon fill="#fb8072" stroke="#000000" points="1753.5232,-252 1578.4768,-252 1578.4768,-216 1753.5232,-216 1753.5232,-252"/>
<text text-anchor="middle" x="1666" y="-229.8" font-family="Times,serif" font-size="14.00" fill="#000000">LoadGuidePageComponent </text>
</g>
<!-- LoadGuideModule&#45;&gt;LoadGuidePageComponent  -->
<g id="edge8" class="edge">
<title>LoadGuideModule&#45;&gt;LoadGuidePageComponent </title>
<path fill="none" stroke="#000000" stroke-dasharray="5,2" d="M1300.3253,-179C1402.3217,-179 1595.7372,-179 1595.7372,-179 1595.7372,-179 1595.7372,-205.9909 1595.7372,-205.9909"/>
<polygon fill="#000000" stroke="#000000" points="1592.2373,-205.9909 1595.7372,-215.9909 1599.2373,-205.991 1592.2373,-205.9909"/>
</g>
<!-- FinishUploadInformationComponent  -->
<g id="node10" class="node">
<title>FinishUploadInformationComponent </title>
<polygon fill="#fb8072" stroke="#000000" points="1560.9208,-252 1333.0792,-252 1333.0792,-216 1560.9208,-216 1560.9208,-252"/>
<text text-anchor="middle" x="1447" y="-229.8" font-family="Times,serif" font-size="14.00" fill="#000000">FinishUploadInformationComponent </text>
</g>
<!-- LoadGuideModule&#45;&gt;FinishUploadInformationComponent  -->
<g id="edge9" class="edge">
<title>LoadGuideModule&#45;&gt;FinishUploadInformationComponent </title>
<path fill="none" stroke="#000000" stroke-dasharray="5,2" d="M1300.0904,-183C1319.855,-183 1336.7771,-183 1336.7771,-183 1336.7771,-183 1336.7771,-205.8757 1336.7771,-205.8757"/>
<polygon fill="#000000" stroke="#000000" points="1333.2772,-205.8757 1336.7771,-215.8757 1340.2772,-205.8757 1333.2772,-205.8757"/>
</g>
<!-- TableErrorsComponent  -->
<g id="node11" class="node">
<title>TableErrorsComponent </title>
<polygon fill="#fb8072" stroke="#000000" points="1314.6841,-252 1163.3159,-252 1163.3159,-216 1314.6841,-216 1314.6841,-252"/>
<text text-anchor="middle" x="1239" y="-229.8" font-family="Times,serif" font-size="14.00" fill="#000000">TableErrorsComponent </text>
</g>
<!-- LoadGuideModule&#45;&gt;TableErrorsComponent  -->
<g id="edge10" class="edge">
<title>LoadGuideModule&#45;&gt;TableErrorsComponent </title>
<path fill="none" stroke="#000000" stroke-dasharray="5,2" d="M1239,-187.1061C1239,-187.1061 1239,-205.991 1239,-205.991"/>
<polygon fill="#000000" stroke="#000000" points="1235.5001,-205.9909 1239,-215.991 1242.5001,-205.991 1235.5001,-205.9909"/>
</g>
<!-- DownloadFormatComponent  -->
<g id="node12" class="node">
<title>DownloadFormatComponent </title>
<polygon fill="#fb8072" stroke="#000000" points="1144.5903,-252 961.4097,-252 961.4097,-216 1144.5903,-216 1144.5903,-252"/>
<text text-anchor="middle" x="1053" y="-229.8" font-family="Times,serif" font-size="14.00" fill="#000000">DownloadFormatComponent </text>
</g>
<!-- LoadGuideModule&#45;&gt;DownloadFormatComponent  -->
<g id="edge11" class="edge">
<title>LoadGuideModule&#45;&gt;DownloadFormatComponent </title>
<path fill="none" stroke="#000000" stroke-dasharray="5,2" d="M1177.7992,-183C1156.4877,-183 1137.8037,-183 1137.8037,-183 1137.8037,-183 1137.8037,-205.8757 1137.8037,-205.8757"/>
<polygon fill="#000000" stroke="#000000" points="1134.3038,-205.8757 1137.8037,-215.8757 1141.3038,-205.8757 1134.3038,-205.8757"/>
</g>
<!-- TableLoadComponent  -->
<g id="node13" class="node">
<title>TableLoadComponent </title>
<polygon fill="#fb8072" stroke="#000000" points="942.9728,-252 797.0272,-252 797.0272,-216 942.9728,-216 942.9728,-252"/>
<text text-anchor="middle" x="870" y="-229.8" font-family="Times,serif" font-size="14.00" fill="#000000">TableLoadComponent </text>
</g>
<!-- LoadGuideModule&#45;&gt;TableLoadComponent  -->
<g id="edge12" class="edge">
<title>LoadGuideModule&#45;&gt;TableLoadComponent </title>
<path fill="none" stroke="#000000" stroke-dasharray="5,2" d="M1177.9462,-179C1090.2554,-179 939.0848,-179 939.0848,-179 939.0848,-179 939.0848,-205.9909 939.0848,-205.9909"/>
<polygon fill="#000000" stroke="#000000" points="935.5849,-205.9909 939.0848,-215.9909 942.5849,-205.991 935.5849,-205.9909"/>
</g>
<!-- MaterialModule -->
<g id="node7" class="node">
<title>MaterialModule</title>
<polygon fill="#8dd3c7" stroke="#000000" points="1447.4706,-122 1444.4706,-126 1423.4706,-126 1420.4706,-122 1340.5294,-122 1340.5294,-86 1447.4706,-86 1447.4706,-122"/>
<text text-anchor="middle" x="1394" y="-99.8" font-family="Times,serif" font-size="14.00" fill="#000000">MaterialModule</text>
</g>
<!-- MaterialModule&#45;&gt;LoadGuideModule -->
<g id="edge6" class="edge">
<title>MaterialModule&#45;&gt;LoadGuideModule</title>
<path fill="none" stroke="#000000" d="M1394,-122.1243C1394,-136.7832 1394,-155 1394,-155 1394,-155 1310.2601,-155 1310.2601,-155"/>
<polygon fill="#000000" stroke="#000000" points="1310.2601,-151.5001 1300.2601,-155 1310.2601,-158.5001 1310.2601,-151.5001"/>
</g>
<!-- LoadGuideRoutingModule -->
<g id="node8" class="node">
<title>LoadGuideRoutingModule</title>
<polygon fill="#8dd3c7" stroke="#000000" points="1322.647,-122 1319.647,-126 1298.647,-126 1295.647,-122 1155.353,-122 1155.353,-86 1322.647,-86 1322.647,-122"/>
<text text-anchor="middle" x="1239" y="-99.8" font-family="Times,serif" font-size="14.00" fill="#000000">LoadGuideRoutingModule</text>
</g>
<!-- LoadGuideRoutingModule&#45;&gt;LoadGuideModule -->
<g id="edge7" class="edge">
<title>LoadGuideRoutingModule&#45;&gt;LoadGuideModule</title>
<path fill="none" stroke="#000000" d="M1239,-122.1061C1239,-122.1061 1239,-140.991 1239,-140.991"/>
<polygon fill="#000000" stroke="#000000" points="1235.5001,-140.9909 1239,-150.991 1242.5001,-140.991 1235.5001,-140.9909"/>
</g>
<!-- ComponentsService -->
<g id="node14" class="node">
<title>ComponentsService</title>
<ellipse fill="#fdb462" stroke="#000000" cx="1042" cy="-104" rx="88.6255" ry="18"/>
<text text-anchor="middle" x="1042" y="-99.8" font-family="Times,serif" font-size="14.00" fill="#000000">ComponentsService</text>
</g>
<!-- ComponentsService&#45;&gt;LoadGuideModule -->
<g id="edge13" class="edge">
<title>ComponentsService&#45;&gt;LoadGuideModule</title>
<path fill="none" stroke="#000000" d="M1046.0088,-122.1243C1046.0088,-136.7832 1046.0088,-155 1046.0088,-155 1046.0088,-155 1167.9364,-155 1167.9364,-155"/>
<polygon fill="#000000" stroke="#000000" points="1167.9364,-158.5001 1177.9364,-155 1167.9364,-151.5001 1167.9364,-158.5001"/>
</g>
<!-- LoadGuideService -->
<g id="node15" class="node">
<title>LoadGuideService</title>
<ellipse fill="#fdb462" stroke="#000000" cx="852" cy="-104" rx="83.3674" ry="18"/>
<text text-anchor="middle" x="852" y="-99.8" font-family="Times,serif" font-size="14.00" fill="#000000">LoadGuideService</text>
</g>
<!-- LoadGuideService&#45;&gt;LoadGuideModule -->
<g id="edge14" class="edge">
<title>LoadGuideService&#45;&gt;LoadGuideModule</title>
<path fill="none" stroke="#000000" d="M866.3488,-122.0091C866.3488,-138.0494 866.3488,-159 866.3488,-159 866.3488,-159 1167.8815,-159 1167.8815,-159"/>
<polygon fill="#000000" stroke="#000000" points="1167.8816,-162.5001 1177.8815,-159 1167.8815,-155.5001 1167.8816,-162.5001"/>
</g>
<!-- HttpErrorHandlingService -->
<g id="node16" class="node">
<title>HttpErrorHandlingService</title>
<ellipse fill="#fdb462" stroke="#000000" cx="637" cy="-104" rx="113.4412" ry="18"/>
<text text-anchor="middle" x="637" y="-99.8" font-family="Times,serif" font-size="14.00" fill="#000000">HttpErrorHandlingService</text>
</g>
<!-- HttpErrorHandlingService&#45;&gt;LoadGuideModule -->
<g id="edge15" class="edge">
<title>HttpErrorHandlingService&#45;&gt;LoadGuideModule</title>
<path fill="none" stroke="#000000" d="M637,-122.0225C637,-139.3734 637,-163 637,-163 637,-163 1167.9641,-163 1167.9641,-163"/>
<polygon fill="#000000" stroke="#000000" points="1167.9642,-166.5001 1177.9641,-163 1167.9641,-159.5001 1167.9642,-166.5001"/>
</g>
<!-- EndpointService -->
<g id="node17" class="node">
<title>EndpointService</title>
<ellipse fill="#fdb462" stroke="#000000" cx="430" cy="-104" rx="75.3021" ry="18"/>
<text text-anchor="middle" x="430" y="-99.8" font-family="Times,serif" font-size="14.00" fill="#000000">EndpointService</text>
</g>
<!-- EndpointService&#45;&gt;LoadGuideModule -->
<g id="edge16" class="edge">
<title>EndpointService&#45;&gt;LoadGuideModule</title>
<path fill="none" stroke="#000000" d="M430,-122.2222C430,-140.8285 430,-167 430,-167 430,-167 1167.8619,-167 1167.8619,-167"/>
<polygon fill="#000000" stroke="#000000" points="1167.8619,-170.5001 1177.8619,-167 1167.8619,-163.5001 1167.8619,-170.5001"/>
</g>
<!-- UserService -->
<g id="node18" class="node">
<title>UserService</title>
<ellipse fill="#fdb462" stroke="#000000" cx="278" cy="-104" rx="58.4415" ry="18"/>
<text text-anchor="middle" x="278" y="-99.8" font-family="Times,serif" font-size="14.00" fill="#000000">UserService</text>
</g>
<!-- UserService&#45;&gt;LoadGuideModule -->
<g id="edge17" class="edge">
<title>UserService&#45;&gt;LoadGuideModule</title>
<path fill="none" stroke="#000000" d="M278,-122.308C278,-142.1455 278,-171 278,-171 278,-171 1167.7901,-171 1167.7901,-171"/>
<polygon fill="#000000" stroke="#000000" points="1167.7902,-174.5001 1177.7901,-171 1167.7901,-167.5001 1167.7902,-174.5001"/>
</g>
<!-- EventEmitterOrders -->
<g id="node19" class="node">
<title>EventEmitterOrders</title>
<ellipse fill="#fdb462" stroke="#000000" cx="113" cy="-104" rx="88.5986" ry="18"/>
<text text-anchor="middle" x="113" y="-99.8" font-family="Times,serif" font-size="14.00" fill="#000000">EventEmitterOrders</text>
</g>
<!-- EventEmitterOrders&#45;&gt;LoadGuideModule -->
<g id="edge18" class="edge">
<title>EventEmitterOrders&#45;&gt;LoadGuideModule</title>
<path fill="none" stroke="#000000" d="M113,-122.2843C113,-143.3211 113,-175 113,-175 113,-175 1167.6617,-175 1167.6617,-175"/>
<polygon fill="#000000" stroke="#000000" points="1167.6617,-178.5001 1177.6617,-175 1167.6617,-171.5001 1167.6617,-178.5001"/>
</g>
</g>
</svg>
