<?xml version="1.0" encoding="UTF-8" standalone="no"?>
<!DOCTYPE svg PUBLIC "-//W3C//DTD SVG 1.1//EN"
 "http://www.w3.org/Graphics/SVG/1.1/DTD/svg11.dtd">
<!-- Generated by graphviz version 2.40.1 (20161225.0304)
 -->
<!-- Title: dependencies Pages: 1 -->
<svg width="2380pt" height="284pt"
 viewBox="0.00 0.00 2380.00 284.00" xmlns="http://www.w3.org/2000/svg" xmlns:xlink="http://www.w3.org/1999/xlink">
<g id="graph0" class="graph" transform="scale(1 1) rotate(0) translate(4 280)">
<title>dependencies</title>
<polygon fill="#ffffff" stroke="transparent" points="-4,4 -4,-280 2376,-280 2376,4 -4,4"/>
<text text-anchor="start" x="1165.0091" y="-42.4" font-family="sans-serif" font-weight="bold" font-size="14.00" fill="#000000">Legend</text>
<polygon fill="#ffffb3" stroke="transparent" points="952,-10 952,-30 972,-30 972,-10 952,-10"/>
<text text-anchor="start" x="975.629" y="-15.4" font-family="sans-serif" font-size="14.00" fill="#000000"> &#160;Declarations</text>
<polygon fill="#8dd3c7" stroke="transparent" points="1065,-10 1065,-30 1085,-30 1085,-10 1065,-10"/>
<text text-anchor="start" x="1088.7251" y="-15.4" font-family="sans-serif" font-size="14.00" fill="#000000"> &#160;Module</text>
<polygon fill="#80b1d3" stroke="transparent" points="1151,-10 1151,-30 1171,-30 1171,-10 1151,-10"/>
<text text-anchor="start" x="1174.7812" y="-15.4" font-family="sans-serif" font-size="14.00" fill="#000000"> &#160;Bootstrap</text>
<polygon fill="#fdb462" stroke="transparent" points="1248,-10 1248,-30 1268,-30 1268,-10 1248,-10"/>
<text text-anchor="start" x="1271.6732" y="-15.4" font-family="sans-serif" font-size="14.00" fill="#000000"> &#160;Providers</text>
<polygon fill="#fb8072" stroke="transparent" points="1344,-10 1344,-30 1364,-30 1364,-10 1344,-10"/>
<text text-anchor="start" x="1367.7258" y="-15.4" font-family="sans-serif" font-size="14.00" fill="#000000"> &#160;Exports</text>
<g id="clust1" class="cluster">
<title>cluster_InValidationModule</title>
<polygon fill="none" stroke="#000000" stroke-dasharray="1,5" points="8,-70 8,-268 2364,-268 2364,-70 8,-70"/>
</g>
<g id="clust2" class="cluster">
<title>cluster_InValidationModule_declarations</title>
<polygon fill="none" stroke="#000000" points="1797,-78 1797,-130 2356,-130 2356,-78 1797,-78"/>
</g>
<g id="clust6" class="cluster">
<title>cluster_InValidationModule_imports</title>
<polygon fill="none" stroke="#000000" points="1158,-78 1158,-130 1789,-130 1789,-78 1158,-78"/>
</g>
<g id="clust7" class="cluster">
<title>cluster_InValidationModule_exports</title>
<polygon fill="none" stroke="#000000" points="927,-208 927,-260 1497,-260 1497,-208 927,-208"/>
</g>
<g id="clust9" class="cluster">
<title>cluster_InValidationModule_providers</title>
<polygon fill="none" stroke="#000000" points="16,-78 16,-130 1150,-130 1150,-78 16,-78"/>
</g>
<!-- InValidationComponent -->
<g id="node1" class="node">
<title>InValidationComponent</title>
<polygon fill="#ffffb3" stroke="#000000" points="2348.0912,-122 2195.9088,-122 2195.9088,-86 2348.0912,-86 2348.0912,-122"/>
<text text-anchor="middle" x="2272" y="-99.8" font-family="Times,serif" font-size="14.00" fill="#000000">InValidationComponent</text>
</g>
<!-- InValidationModule -->
<g id="node4" class="node">
<title>InValidationModule</title>
<polygon fill="#8dd3c7" stroke="#000000" points="1284.309,-187 1281.309,-191 1260.309,-191 1257.309,-187 1153.691,-187 1153.691,-151 1284.309,-151 1284.309,-187"/>
<text text-anchor="middle" x="1219" y="-164.8" font-family="Times,serif" font-size="14.00" fill="#000000">InValidationModule</text>
</g>
<!-- InValidationComponent&#45;&gt;InValidationModule -->
<g id="edge1" class="edge">
<title>InValidationComponent&#45;&gt;InValidationModule</title>
<path fill="none" stroke="#000000" d="M2272,-122.0449C2272,-143.6623 2272,-177 2272,-177 2272,-177 1294.472,-177 1294.472,-177"/>
<polygon fill="#000000" stroke="#000000" points="1294.472,-173.5001 1284.472,-177 1294.472,-180.5001 1294.472,-173.5001"/>
</g>
<!-- InValidationModalComponent -->
<g id="node2" class="node">
<title>InValidationModalComponent</title>
<polygon fill="#ffffb3" stroke="#000000" points="2178.1413,-122 1989.8587,-122 1989.8587,-86 2178.1413,-86 2178.1413,-122"/>
<text text-anchor="middle" x="2084" y="-99.8" font-family="Times,serif" font-size="14.00" fill="#000000">InValidationModalComponent</text>
</g>
<!-- InValidationModalComponent&#45;&gt;InValidationModule -->
<g id="edge2" class="edge">
<title>InValidationModalComponent&#45;&gt;InValidationModule</title>
<path fill="none" stroke="#000000" d="M2084,-122.2228C2084,-142.3652 2084,-172 2084,-172 2084,-172 1294.3702,-172 1294.3702,-172"/>
<polygon fill="#000000" stroke="#000000" points="1294.3702,-168.5001 1284.3702,-172 1294.3701,-175.5001 1294.3702,-168.5001"/>
</g>
<!-- ViewCommentComponent -->
<g id="node3" class="node">
<title>ViewCommentComponent</title>
<polygon fill="#ffffb3" stroke="#000000" points="1971.3738,-122 1804.6262,-122 1804.6262,-86 1971.3738,-86 1971.3738,-122"/>
<text text-anchor="middle" x="1888" y="-99.8" font-family="Times,serif" font-size="14.00" fill="#000000">ViewCommentComponent</text>
</g>
<!-- ViewCommentComponent&#45;&gt;InValidationModule -->
<g id="edge3" class="edge">
<title>ViewCommentComponent&#45;&gt;InValidationModule</title>
<path fill="none" stroke="#000000" d="M1888,-122.2222C1888,-140.8285 1888,-167 1888,-167 1888,-167 1294.3646,-167 1294.3646,-167"/>
<polygon fill="#000000" stroke="#000000" points="1294.3647,-163.5001 1284.3646,-167 1294.3646,-170.5001 1294.3647,-163.5001"/>
</g>
<!-- InValidationComponent  -->
<g id="node9" class="node">
<title>InValidationComponent </title>
<polygon fill="#fb8072" stroke="#000000" points="1488.5917,-252 1333.4083,-252 1333.4083,-216 1488.5917,-216 1488.5917,-252"/>
<text text-anchor="middle" x="1411" y="-229.8" font-family="Times,serif" font-size="14.00" fill="#000000">InValidationComponent </text>
</g>
<!-- InValidationModule&#45;&gt;InValidationComponent  -->
<g id="edge8" class="edge">
<title>InValidationModule&#45;&gt;InValidationComponent </title>
<path fill="none" stroke="#000000" stroke-dasharray="5,2" d="M1284.2511,-182C1327.8236,-182 1377.1801,-182 1377.1801,-182 1377.1801,-182 1377.1801,-205.8129 1377.1801,-205.8129"/>
<polygon fill="#000000" stroke="#000000" points="1373.6801,-205.8129 1377.1801,-215.8129 1380.6801,-205.813 1373.6801,-205.8129"/>
</g>
<!-- InValidationModalComponent  -->
<g id="node10" class="node">
<title>InValidationModalComponent </title>
<polygon fill="#fb8072" stroke="#000000" points="1315.1411,-252 1122.8589,-252 1122.8589,-216 1315.1411,-216 1315.1411,-252"/>
<text text-anchor="middle" x="1219" y="-229.8" font-family="Times,serif" font-size="14.00" fill="#000000">InValidationModalComponent </text>
</g>
<!-- InValidationModule&#45;&gt;InValidationModalComponent  -->
<g id="edge9" class="edge">
<title>InValidationModule&#45;&gt;InValidationModalComponent </title>
<path fill="none" stroke="#000000" stroke-dasharray="5,2" d="M1219,-187.1061C1219,-187.1061 1219,-205.991 1219,-205.991"/>
<polygon fill="#000000" stroke="#000000" points="1215.5001,-205.9909 1219,-215.991 1222.5001,-205.991 1215.5001,-205.9909"/>
</g>
<!-- ViewCommentComponent  -->
<g id="node11" class="node">
<title>ViewCommentComponent </title>
<polygon fill="#fb8072" stroke="#000000" points="1105.3742,-252 934.6258,-252 934.6258,-216 1105.3742,-216 1105.3742,-252"/>
<text text-anchor="middle" x="1020" y="-229.8" font-family="Times,serif" font-size="14.00" fill="#000000">ViewCommentComponent </text>
</g>
<!-- InValidationModule&#45;&gt;ViewCommentComponent  -->
<g id="edge10" class="edge">
<title>InValidationModule&#45;&gt;ViewCommentComponent </title>
<path fill="none" stroke="#000000" stroke-dasharray="5,2" d="M1153.761,-182C1100.7418,-182 1034.6934,-182 1034.6934,-182 1034.6934,-182 1034.6934,-205.8129 1034.6934,-205.8129"/>
<polygon fill="#000000" stroke="#000000" points="1031.1935,-205.8129 1034.6934,-215.8129 1038.1935,-205.813 1031.1935,-205.8129"/>
</g>
<!-- InValidationRoutingModule -->
<g id="node5" class="node">
<title>InValidationRoutingModule</title>
<polygon fill="#8dd3c7" stroke="#000000" points="1780.9269,-122 1777.9269,-126 1756.9269,-126 1753.9269,-122 1605.0731,-122 1605.0731,-86 1780.9269,-86 1780.9269,-122"/>
<text text-anchor="middle" x="1693" y="-99.8" font-family="Times,serif" font-size="14.00" fill="#000000">InValidationRoutingModule</text>
</g>
<!-- InValidationRoutingModule&#45;&gt;InValidationModule -->
<g id="edge4" class="edge">
<title>InValidationRoutingModule&#45;&gt;InValidationModule</title>
<path fill="none" stroke="#000000" d="M1693,-122.0336C1693,-139.0597 1693,-162 1693,-162 1693,-162 1294.41,-162 1294.41,-162"/>
<polygon fill="#000000" stroke="#000000" points="1294.41,-158.5001 1284.41,-162 1294.41,-165.5001 1294.41,-158.5001"/>
</g>
<!-- ToolbarOptionsModule -->
<g id="node6" class="node">
<title>ToolbarOptionsModule</title>
<polygon fill="#8dd3c7" stroke="#000000" points="1587.2007,-122 1584.2007,-126 1563.2007,-126 1560.2007,-122 1438.7993,-122 1438.7993,-86 1587.2007,-86 1587.2007,-122"/>
<text text-anchor="middle" x="1513" y="-99.8" font-family="Times,serif" font-size="14.00" fill="#000000">ToolbarOptionsModule</text>
</g>
<!-- ToolbarOptionsModule&#45;&gt;InValidationModule -->
<g id="edge5" class="edge">
<title>ToolbarOptionsModule&#45;&gt;InValidationModule</title>
<path fill="none" stroke="#000000" d="M1463.8477,-122.2396C1463.8477,-137.5706 1463.8477,-157 1463.8477,-157 1463.8477,-157 1294.293,-157 1294.293,-157"/>
<polygon fill="#000000" stroke="#000000" points="1294.2931,-153.5001 1284.293,-157 1294.293,-160.5001 1294.2931,-153.5001"/>
</g>
<!-- ToolbarLinkModule -->
<g id="node7" class="node">
<title>ToolbarLinkModule</title>
<polygon fill="#8dd3c7" stroke="#000000" points="1421.3118,-122 1418.3118,-126 1397.3118,-126 1394.3118,-122 1290.6882,-122 1290.6882,-86 1421.3118,-86 1421.3118,-122"/>
<text text-anchor="middle" x="1356" y="-99.8" font-family="Times,serif" font-size="14.00" fill="#000000">ToolbarLinkModule</text>
</g>
<!-- ToolbarLinkModule&#45;&gt;InValidationModule -->
<g id="edge6" class="edge">
<title>ToolbarLinkModule&#45;&gt;InValidationModule</title>
<path fill="none" stroke="#000000" d="M1290.8005,-104C1283.3277,-104 1278.3198,-104 1278.3198,-104 1278.3198,-104 1278.3198,-140.8939 1278.3198,-140.8939"/>
<polygon fill="#000000" stroke="#000000" points="1274.8199,-140.8938 1278.3198,-150.8939 1281.8199,-140.8939 1274.8199,-140.8938"/>
</g>
<!-- MaterialModule -->
<g id="node8" class="node">
<title>MaterialModule</title>
<polygon fill="#8dd3c7" stroke="#000000" points="1272.4706,-122 1269.4706,-126 1248.4706,-126 1245.4706,-122 1165.5294,-122 1165.5294,-86 1272.4706,-86 1272.4706,-122"/>
<text text-anchor="middle" x="1219" y="-99.8" font-family="Times,serif" font-size="14.00" fill="#000000">MaterialModule</text>
</g>
<!-- MaterialModule&#45;&gt;InValidationModule -->
<g id="edge7" class="edge">
<title>MaterialModule&#45;&gt;InValidationModule</title>
<path fill="none" stroke="#000000" d="M1219,-122.1061C1219,-122.1061 1219,-140.991 1219,-140.991"/>
<polygon fill="#000000" stroke="#000000" points="1215.5001,-140.9909 1219,-150.991 1222.5001,-140.991 1215.5001,-140.9909"/>
</g>
<!-- InValidationService -->
<g id="node12" class="node">
<title>InValidationService</title>
<ellipse fill="#fdb462" stroke="#000000" cx="1053" cy="-104" rx="88.6005" ry="18"/>
<text text-anchor="middle" x="1053" y="-99.8" font-family="Times,serif" font-size="14.00" fill="#000000">InValidationService</text>
</g>
<!-- InValidationService&#45;&gt;InValidationModule -->
<g id="edge11" class="edge">
<title>InValidationService&#45;&gt;InValidationModule</title>
<path fill="none" stroke="#000000" d="M1142.0641,-104C1152.5895,-104 1159.6802,-104 1159.6802,-104 1159.6802,-104 1159.6802,-140.8939 1159.6802,-140.8939"/>
<polygon fill="#000000" stroke="#000000" points="1156.1803,-140.8938 1159.6802,-150.8939 1163.1803,-140.8939 1156.1803,-140.8938"/>
</g>
<!-- EndpointService -->
<g id="node13" class="node">
<title>EndpointService</title>
<ellipse fill="#fdb462" stroke="#000000" cx="871" cy="-104" rx="75.3021" ry="18"/>
<text text-anchor="middle" x="871" y="-99.8" font-family="Times,serif" font-size="14.00" fill="#000000">EndpointService</text>
</g>
<!-- EndpointService&#45;&gt;InValidationModule -->
<g id="edge12" class="edge">
<title>EndpointService&#45;&gt;InValidationModule</title>
<path fill="none" stroke="#000000" d="M940.6071,-110.9288C940.6071,-125.2951 940.6071,-157 940.6071,-157 940.6071,-157 1143.7292,-157 1143.7292,-157"/>
<polygon fill="#000000" stroke="#000000" points="1143.7293,-160.5001 1153.7292,-157 1143.7292,-153.5001 1143.7293,-160.5001"/>
</g>
<!-- HttpErrorHandlingService -->
<g id="node14" class="node">
<title>HttpErrorHandlingService</title>
<ellipse fill="#fdb462" stroke="#000000" cx="664" cy="-104" rx="113.4412" ry="18"/>
<text text-anchor="middle" x="664" y="-99.8" font-family="Times,serif" font-size="14.00" fill="#000000">HttpErrorHandlingService</text>
</g>
<!-- HttpErrorHandlingService&#45;&gt;InValidationModule -->
<g id="edge13" class="edge">
<title>HttpErrorHandlingService&#45;&gt;InValidationModule</title>
<path fill="none" stroke="#000000" d="M664,-122.0336C664,-139.0597 664,-162 664,-162 664,-162 1143.7024,-162 1143.7024,-162"/>
<polygon fill="#000000" stroke="#000000" points="1143.7025,-165.5001 1153.7024,-162 1143.7024,-158.5001 1143.7025,-165.5001"/>
</g>
<!-- UserService -->
<g id="node15" class="node">
<title>UserService</title>
<ellipse fill="#fdb462" stroke="#000000" cx="474" cy="-104" rx="58.4415" ry="18"/>
<text text-anchor="middle" x="474" y="-99.8" font-family="Times,serif" font-size="14.00" fill="#000000">UserService</text>
</g>
<!-- UserService&#45;&gt;InValidationModule -->
<g id="edge14" class="edge">
<title>UserService&#45;&gt;InValidationModule</title>
<path fill="none" stroke="#000000" d="M474,-122.2222C474,-140.8285 474,-167 474,-167 474,-167 1143.5392,-167 1143.5392,-167"/>
<polygon fill="#000000" stroke="#000000" points="1143.5392,-170.5001 1153.5392,-167 1143.5391,-163.5001 1143.5392,-170.5001"/>
</g>
<!-- ComponentsService -->
<g id="node16" class="node">
<title>ComponentsService</title>
<ellipse fill="#fdb462" stroke="#000000" cx="309" cy="-104" rx="88.6255" ry="18"/>
<text text-anchor="middle" x="309" y="-99.8" font-family="Times,serif" font-size="14.00" fill="#000000">ComponentsService</text>
</g>
<!-- ComponentsService&#45;&gt;InValidationModule -->
<g id="edge15" class="edge">
<title>ComponentsService&#45;&gt;InValidationModule</title>
<path fill="none" stroke="#000000" d="M309,-122.2228C309,-142.3652 309,-172 309,-172 309,-172 1143.555,-172 1143.555,-172"/>
<polygon fill="#000000" stroke="#000000" points="1143.5551,-175.5001 1153.555,-172 1143.555,-168.5001 1143.5551,-175.5001"/>
</g>
<!-- EventEmitterOrders -->
<g id="node17" class="node">
<title>EventEmitterOrders</title>
<ellipse fill="#fdb462" stroke="#000000" cx="113" cy="-104" rx="88.5986" ry="18"/>
<text text-anchor="middle" x="113" y="-99.8" font-family="Times,serif" font-size="14.00" fill="#000000">EventEmitterOrders</text>
</g>
<!-- EventEmitterOrders&#45;&gt;InValidationModule -->
<g id="edge16" class="edge">
<title>EventEmitterOrders&#45;&gt;InValidationModule</title>
<path fill="none" stroke="#000000" d="M113,-122.0449C113,-143.6623 113,-177 113,-177 113,-177 1143.5359,-177 1143.5359,-177"/>
<polygon fill="#000000" stroke="#000000" points="1143.5359,-180.5001 1153.5359,-177 1143.5358,-173.5001 1143.5359,-180.5001"/>
</g>
</g>
</svg>
