<?xml version="1.0" encoding="UTF-8" standalone="no"?>
<!DOCTYPE svg PUBLIC "-//W3C//DTD SVG 1.1//EN"
 "http://www.w3.org/Graphics/SVG/1.1/DTD/svg11.dtd">
<!-- Generated by graphviz version 2.40.1 (20161225.0304)
 -->
<!-- Title: dependencies Pages: 1 -->
<svg width="2977pt" height="284pt"
 viewBox="0.00 0.00 2977.00 284.00" xmlns="http://www.w3.org/2000/svg" xmlns:xlink="http://www.w3.org/1999/xlink">
<g id="graph0" class="graph" transform="scale(1 1) rotate(0) translate(4 280)">
<title>dependencies</title>
<polygon fill="#ffffff" stroke="transparent" points="-4,4 -4,-280 2973,-280 2973,4 -4,4"/>
<text text-anchor="start" x="1463.5091" y="-42.4" font-family="sans-serif" font-weight="bold" font-size="14.00" fill="#000000">Legend</text>
<polygon fill="#ffffb3" stroke="transparent" points="1250.5,-10 1250.5,-30 1270.5,-30 1270.5,-10 1250.5,-10"/>
<text text-anchor="start" x="1274.129" y="-15.4" font-family="sans-serif" font-size="14.00" fill="#000000"> &#160;Declarations</text>
<polygon fill="#8dd3c7" stroke="transparent" points="1363.5,-10 1363.5,-30 1383.5,-30 1383.5,-10 1363.5,-10"/>
<text text-anchor="start" x="1387.2251" y="-15.4" font-family="sans-serif" font-size="14.00" fill="#000000"> &#160;Module</text>
<polygon fill="#80b1d3" stroke="transparent" points="1449.5,-10 1449.5,-30 1469.5,-30 1469.5,-10 1449.5,-10"/>
<text text-anchor="start" x="1473.2812" y="-15.4" font-family="sans-serif" font-size="14.00" fill="#000000"> &#160;Bootstrap</text>
<polygon fill="#fdb462" stroke="transparent" points="1546.5,-10 1546.5,-30 1566.5,-30 1566.5,-10 1546.5,-10"/>
<text text-anchor="start" x="1570.1732" y="-15.4" font-family="sans-serif" font-size="14.00" fill="#000000"> &#160;Providers</text>
<polygon fill="#fb8072" stroke="transparent" points="1642.5,-10 1642.5,-30 1662.5,-30 1662.5,-10 1642.5,-10"/>
<text text-anchor="start" x="1666.2258" y="-15.4" font-family="sans-serif" font-size="14.00" fill="#000000"> &#160;Exports</text>
<g id="clust1" class="cluster">
<title>cluster_OrdersModule</title>
<polygon fill="none" stroke="#000000" stroke-dasharray="1,5" points="8,-70 8,-268 2961,-268 2961,-70 8,-70"/>
</g>
<g id="clust2" class="cluster">
<title>cluster_OrdersModule_declarations</title>
<polygon fill="none" stroke="#000000" points="1690,-78 1690,-130 2953,-130 2953,-78 1690,-78"/>
</g>
<g id="clust10" class="cluster">
<title>cluster_OrdersModule_imports</title>
<polygon fill="none" stroke="#000000" points="692,-78 692,-130 1682,-130 1682,-78 692,-78"/>
</g>
<g id="clust11" class="cluster">
<title>cluster_OrdersModule_exports</title>
<polygon fill="none" stroke="#000000" points="953,-208 953,-260 2061,-260 2061,-208 953,-208"/>
</g>
<g id="clust13" class="cluster">
<title>cluster_OrdersModule_providers</title>
<polygon fill="none" stroke="#000000" points="16,-78 16,-130 684,-130 684,-78 16,-78"/>
</g>
<!-- ConfirmAlertComponent -->
<g id="node1" class="node">
<title>ConfirmAlertComponent</title>
<polygon fill="#ffffb3" stroke="#000000" points="2944.5351,-122 2787.4649,-122 2787.4649,-86 2944.5351,-86 2944.5351,-122"/>
<text text-anchor="middle" x="2866" y="-99.8" font-family="Times,serif" font-size="14.00" fill="#000000">ConfirmAlertComponent</text>
</g>
<!-- OrdersModule -->
<g id="node8" class="node">
<title>OrdersModule</title>
<polygon fill="#8dd3c7" stroke="#000000" points="1532.6375,-187 1529.6375,-191 1508.6375,-191 1505.6375,-187 1435.3625,-187 1435.3625,-151 1532.6375,-151 1532.6375,-187"/>
<text text-anchor="middle" x="1484" y="-164.8" font-family="Times,serif" font-size="14.00" fill="#000000">OrdersModule</text>
</g>
<!-- ConfirmAlertComponent&#45;&gt;OrdersModule -->
<g id="edge1" class="edge">
<title>ConfirmAlertComponent&#45;&gt;OrdersModule</title>
<path fill="none" stroke="#000000" d="M2866,-122.2921C2866,-144.2057 2866,-178 2866,-178 2866,-178 1542.7802,-178 1542.7802,-178"/>
<polygon fill="#000000" stroke="#000000" points="1542.7802,-174.5001 1532.7802,-178 1542.7801,-181.5001 1542.7802,-174.5001"/>
</g>
<!-- OrdersListComponent -->
<g id="node2" class="node">
<title>OrdersListComponent</title>
<polygon fill="#ffffb3" stroke="#000000" points="2769.6979,-122 2628.3021,-122 2628.3021,-86 2769.6979,-86 2769.6979,-122"/>
<text text-anchor="middle" x="2699" y="-99.8" font-family="Times,serif" font-size="14.00" fill="#000000">OrdersListComponent</text>
</g>
<!-- OrdersListComponent&#45;&gt;OrdersModule -->
<g id="edge2" class="edge">
<title>OrdersListComponent&#45;&gt;OrdersModule</title>
<path fill="none" stroke="#000000" d="M2699,-122.0267C2699,-142.7672 2699,-174 2699,-174 2699,-174 1542.7561,-174 1542.7561,-174"/>
<polygon fill="#000000" stroke="#000000" points="1542.7561,-170.5001 1532.7561,-174 1542.756,-177.5001 1542.7561,-170.5001"/>
</g>
<!-- OrderDetailModalComponent -->
<g id="node3" class="node">
<title>OrderDetailModalComponent</title>
<polygon fill="#ffffb3" stroke="#000000" points="2610.2324,-122 2425.7676,-122 2425.7676,-86 2610.2324,-86 2610.2324,-122"/>
<text text-anchor="middle" x="2518" y="-99.8" font-family="Times,serif" font-size="14.00" fill="#000000">OrderDetailModalComponent</text>
</g>
<!-- OrderDetailModalComponent&#45;&gt;OrdersModule -->
<g id="edge3" class="edge">
<title>OrderDetailModalComponent&#45;&gt;OrdersModule</title>
<path fill="none" stroke="#000000" d="M2518,-122.308C2518,-142.1455 2518,-171 2518,-171 2518,-171 1542.8302,-171 1542.8302,-171"/>
<polygon fill="#000000" stroke="#000000" points="1542.8302,-167.5001 1532.8302,-171 1542.8301,-174.5001 1542.8302,-167.5001"/>
</g>
<!-- ProductDetailModalComponent -->
<g id="node4" class="node">
<title>ProductDetailModalComponent</title>
<polygon fill="#ffffb3" stroke="#000000" points="2407.6385,-122 2212.3615,-122 2212.3615,-86 2407.6385,-86 2407.6385,-122"/>
<text text-anchor="middle" x="2310" y="-99.8" font-family="Times,serif" font-size="14.00" fill="#000000">ProductDetailModalComponent</text>
</g>
<!-- ProductDetailModalComponent&#45;&gt;OrdersModule -->
<g id="edge4" class="edge">
<title>ProductDetailModalComponent&#45;&gt;OrdersModule</title>
<path fill="none" stroke="#000000" d="M2310,-122.1686C2310,-141.0898 2310,-168 2310,-168 2310,-168 1542.8909,-168 1542.8909,-168"/>
<polygon fill="#000000" stroke="#000000" points="1542.891,-164.5001 1532.8909,-168 1542.8909,-171.5001 1542.891,-164.5001"/>
</g>
<!-- ProductsOrderComponent -->
<g id="node5" class="node">
<title>ProductsOrderComponent</title>
<polygon fill="#ffffb3" stroke="#000000" points="2194.4678,-122 2031.5322,-122 2031.5322,-86 2194.4678,-86 2194.4678,-122"/>
<text text-anchor="middle" x="2113" y="-99.8" font-family="Times,serif" font-size="14.00" fill="#000000">ProductsOrderComponent</text>
</g>
<!-- ProductsOrderComponent&#45;&gt;OrdersModule -->
<g id="edge5" class="edge">
<title>ProductsOrderComponent&#45;&gt;OrdersModule</title>
<path fill="none" stroke="#000000" d="M2042.4325,-122.302C2042.4325,-140.2699 2042.4325,-165 2042.4325,-165 2042.4325,-165 1543.0677,-165 1543.0677,-165"/>
<polygon fill="#000000" stroke="#000000" points="1543.0678,-161.5001 1533.0677,-165 1543.0677,-168.5001 1543.0678,-161.5001"/>
</g>
<!-- SendOrderComponent -->
<g id="node6" class="node">
<title>SendOrderComponent</title>
<polygon fill="#ffffb3" stroke="#000000" points="2013.972,-122 1872.028,-122 1872.028,-86 2013.972,-86 2013.972,-122"/>
<text text-anchor="middle" x="1943" y="-99.8" font-family="Times,serif" font-size="14.00" fill="#000000">SendOrderComponent</text>
</g>
<!-- SendOrderComponent&#45;&gt;OrdersModule -->
<g id="edge6" class="edge">
<title>SendOrderComponent&#45;&gt;OrdersModule</title>
<path fill="none" stroke="#000000" d="M1881.5651,-122.0352C1881.5651,-138.7344 1881.5651,-161 1881.5651,-161 1881.5651,-161 1542.7493,-161 1542.7493,-161"/>
<polygon fill="#000000" stroke="#000000" points="1542.7493,-157.5001 1532.7493,-161 1542.7492,-164.5001 1542.7493,-157.5001"/>
</g>
<!-- FormProductComponent -->
<g id="node7" class="node">
<title>FormProductComponent</title>
<polygon fill="#ffffb3" stroke="#000000" points="1853.7147,-122 1698.2853,-122 1698.2853,-86 1853.7147,-86 1853.7147,-122"/>
<text text-anchor="middle" x="1776" y="-99.8" font-family="Times,serif" font-size="14.00" fill="#000000">FormProductComponent</text>
</g>
<!-- FormProductComponent&#45;&gt;OrdersModule -->
<g id="edge7" class="edge">
<title>FormProductComponent&#45;&gt;OrdersModule</title>
<path fill="none" stroke="#000000" d="M1803.3662,-122.2819C1803.3662,-137.9478 1803.3662,-158 1803.3662,-158 1803.3662,-158 1542.8525,-158 1542.8525,-158"/>
<polygon fill="#000000" stroke="#000000" points="1542.8525,-154.5001 1532.8525,-158 1542.8525,-161.5001 1542.8525,-154.5001"/>
</g>
<!-- OrdersListComponent  -->
<g id="node15" class="node">
<title>OrdersListComponent </title>
<polygon fill="#fb8072" stroke="#000000" points="2053.1981,-252 1908.8019,-252 1908.8019,-216 2053.1981,-216 2053.1981,-252"/>
<text text-anchor="middle" x="1981" y="-229.8" font-family="Times,serif" font-size="14.00" fill="#000000">OrdersListComponent </text>
</g>
<!-- OrdersModule&#45;&gt;OrdersListComponent  -->
<g id="edge14" class="edge">
<title>OrdersModule&#45;&gt;OrdersListComponent </title>
<path fill="none" stroke="#000000" stroke-dasharray="5,2" d="M1532.8383,-181C1654.4907,-181 1961.3186,-181 1961.3186,-181 1961.3186,-181 1961.3186,-205.7604 1961.3186,-205.7604"/>
<polygon fill="#000000" stroke="#000000" points="1957.8186,-205.7604 1961.3186,-215.7604 1964.8186,-205.7604 1957.8186,-205.7604"/>
</g>
<!-- OrderDetailModalComponent  -->
<g id="node16" class="node">
<title>OrderDetailModalComponent </title>
<polygon fill="#fb8072" stroke="#000000" points="1891.2323,-252 1702.7677,-252 1702.7677,-216 1891.2323,-216 1891.2323,-252"/>
<text text-anchor="middle" x="1797" y="-229.8" font-family="Times,serif" font-size="14.00" fill="#000000">OrderDetailModalComponent </text>
</g>
<!-- OrdersModule&#45;&gt;OrderDetailModalComponent  -->
<g id="edge15" class="edge">
<title>OrdersModule&#45;&gt;OrderDetailModalComponent </title>
<path fill="none" stroke="#000000" stroke-dasharray="5,2" d="M1532.7365,-184C1610.291,-184 1753.125,-184 1753.125,-184 1753.125,-184 1753.125,-205.9489 1753.125,-205.9489"/>
<polygon fill="#000000" stroke="#000000" points="1749.6251,-205.9488 1753.125,-215.9489 1756.6251,-205.9489 1749.6251,-205.9488"/>
</g>
<!-- ProductDetailModalComponent  -->
<g id="node17" class="node">
<title>ProductDetailModalComponent </title>
<polygon fill="#fb8072" stroke="#000000" points="1684.6382,-252 1485.3618,-252 1485.3618,-216 1684.6382,-216 1684.6382,-252"/>
<text text-anchor="middle" x="1585" y="-229.8" font-family="Times,serif" font-size="14.00" fill="#000000">ProductDetailModalComponent </text>
</g>
<!-- OrdersModule&#45;&gt;ProductDetailModalComponent  -->
<g id="edge16" class="edge">
<title>OrdersModule&#45;&gt;ProductDetailModalComponent </title>
<path fill="none" stroke="#000000" stroke-dasharray="5,2" d="M1509.1247,-187.1061C1509.1247,-187.1061 1509.1247,-205.991 1509.1247,-205.991"/>
<polygon fill="#000000" stroke="#000000" points="1505.6247,-205.9909 1509.1247,-215.991 1512.6247,-205.991 1505.6247,-205.9909"/>
</g>
<!-- ProductsOrderComponent  -->
<g id="node18" class="node">
<title>ProductsOrderComponent </title>
<polygon fill="#fb8072" stroke="#000000" points="1467.4685,-252 1300.5315,-252 1300.5315,-216 1467.4685,-216 1467.4685,-252"/>
<text text-anchor="middle" x="1384" y="-229.8" font-family="Times,serif" font-size="14.00" fill="#000000">ProductsOrderComponent </text>
</g>
<!-- OrdersModule&#45;&gt;ProductsOrderComponent  -->
<g id="edge17" class="edge">
<title>OrdersModule&#45;&gt;ProductsOrderComponent </title>
<path fill="none" stroke="#000000" stroke-dasharray="5,2" d="M1451.2078,-187.1061C1451.2078,-187.1061 1451.2078,-205.991 1451.2078,-205.991"/>
<polygon fill="#000000" stroke="#000000" points="1447.7078,-205.9909 1451.2078,-215.991 1454.7078,-205.991 1447.7078,-205.9909"/>
</g>
<!-- SendOrderComponent  -->
<g id="node19" class="node">
<title>SendOrderComponent </title>
<polygon fill="#fb8072" stroke="#000000" points="1282.9728,-252 1137.0272,-252 1137.0272,-216 1282.9728,-216 1282.9728,-252"/>
<text text-anchor="middle" x="1210" y="-229.8" font-family="Times,serif" font-size="14.00" fill="#000000">SendOrderComponent </text>
</g>
<!-- OrdersModule&#45;&gt;SendOrderComponent  -->
<g id="edge18" class="edge">
<title>OrdersModule&#45;&gt;SendOrderComponent </title>
<path fill="none" stroke="#000000" stroke-dasharray="5,2" d="M1435.215,-184C1371.4543,-184 1267.8179,-184 1267.8179,-184 1267.8179,-184 1267.8179,-205.9489 1267.8179,-205.9489"/>
<polygon fill="#000000" stroke="#000000" points="1264.3179,-205.9488 1267.8179,-215.9489 1271.3179,-205.9489 1264.3179,-205.9488"/>
</g>
<!-- FormProductComponent  -->
<g id="node20" class="node">
<title>FormProductComponent </title>
<polygon fill="#fb8072" stroke="#000000" points="1119.2149,-252 960.7851,-252 960.7851,-216 1119.2149,-216 1119.2149,-252"/>
<text text-anchor="middle" x="1040" y="-229.8" font-family="Times,serif" font-size="14.00" fill="#000000">FormProductComponent </text>
</g>
<!-- OrdersModule&#45;&gt;FormProductComponent  -->
<g id="edge19" class="edge">
<title>OrdersModule&#45;&gt;FormProductComponent </title>
<path fill="none" stroke="#000000" stroke-dasharray="5,2" d="M1434.9885,-181C1330.8572,-181 1097.0184,-181 1097.0184,-181 1097.0184,-181 1097.0184,-205.7604 1097.0184,-205.7604"/>
<polygon fill="#000000" stroke="#000000" points="1093.5185,-205.7604 1097.0184,-215.7604 1100.5185,-205.7604 1093.5185,-205.7604"/>
</g>
<!-- MaterialModule -->
<g id="node9" class="node">
<title>MaterialModule</title>
<polygon fill="#8dd3c7" stroke="#000000" points="1674.4706,-122 1671.4706,-126 1650.4706,-126 1647.4706,-122 1567.5294,-122 1567.5294,-86 1674.4706,-86 1674.4706,-122"/>
<text text-anchor="middle" x="1621" y="-99.8" font-family="Times,serif" font-size="14.00" fill="#000000">MaterialModule</text>
</g>
<!-- MaterialModule&#45;&gt;OrdersModule -->
<g id="edge8" class="edge">
<title>MaterialModule&#45;&gt;OrdersModule</title>
<path fill="none" stroke="#000000" d="M1621,-122.1243C1621,-136.7832 1621,-155 1621,-155 1621,-155 1542.6868,-155 1542.6868,-155"/>
<polygon fill="#000000" stroke="#000000" points="1542.6869,-151.5001 1532.6868,-155 1542.6868,-158.5001 1542.6869,-151.5001"/>
</g>
<!-- ToolbarLinkModule -->
<g id="node10" class="node">
<title>ToolbarLinkModule</title>
<polygon fill="#8dd3c7" stroke="#000000" points="1549.3118,-122 1546.3118,-126 1525.3118,-126 1522.3118,-122 1418.6882,-122 1418.6882,-86 1549.3118,-86 1549.3118,-122"/>
<text text-anchor="middle" x="1484" y="-99.8" font-family="Times,serif" font-size="14.00" fill="#000000">ToolbarLinkModule</text>
</g>
<!-- ToolbarLinkModule&#45;&gt;OrdersModule -->
<g id="edge9" class="edge">
<title>ToolbarLinkModule&#45;&gt;OrdersModule</title>
<path fill="none" stroke="#000000" d="M1484,-122.1061C1484,-122.1061 1484,-140.991 1484,-140.991"/>
<polygon fill="#000000" stroke="#000000" points="1480.5001,-140.9909 1484,-150.991 1487.5001,-140.991 1480.5001,-140.9909"/>
</g>
<!-- ToolbarOptionsModule -->
<g id="node11" class="node">
<title>ToolbarOptionsModule</title>
<polygon fill="#8dd3c7" stroke="#000000" points="1401.2007,-122 1398.2007,-126 1377.2007,-126 1374.2007,-122 1252.7993,-122 1252.7993,-86 1401.2007,-86 1401.2007,-122"/>
<text text-anchor="middle" x="1327" y="-99.8" font-family="Times,serif" font-size="14.00" fill="#000000">ToolbarOptionsModule</text>
</g>
<!-- ToolbarOptionsModule&#45;&gt;OrdersModule -->
<g id="edge10" class="edge">
<title>ToolbarOptionsModule&#45;&gt;OrdersModule</title>
<path fill="none" stroke="#000000" d="M1350.9332,-122.1243C1350.9332,-136.7832 1350.9332,-155 1350.9332,-155 1350.9332,-155 1425.2064,-155 1425.2064,-155"/>
<polygon fill="#000000" stroke="#000000" points="1425.2065,-158.5001 1435.2064,-155 1425.2064,-151.5001 1425.2065,-158.5001"/>
</g>
<!-- ClientInformationModule -->
<g id="node12" class="node">
<title>ClientInformationModule</title>
<polygon fill="#8dd3c7" stroke="#000000" points="1235.1414,-122 1232.1414,-126 1211.1414,-126 1208.1414,-122 1074.8586,-122 1074.8586,-86 1235.1414,-86 1235.1414,-122"/>
<text text-anchor="middle" x="1155" y="-99.8" font-family="Times,serif" font-size="14.00" fill="#000000">ClientInformationModule</text>
</g>
<!-- ClientInformationModule&#45;&gt;OrdersModule -->
<g id="edge11" class="edge">
<title>ClientInformationModule&#45;&gt;OrdersModule</title>
<path fill="none" stroke="#000000" d="M1186.2923,-122.2819C1186.2923,-137.9478 1186.2923,-158 1186.2923,-158 1186.2923,-158 1425.173,-158 1425.173,-158"/>
<polygon fill="#000000" stroke="#000000" points="1425.173,-161.5001 1435.173,-158 1425.173,-154.5001 1425.173,-161.5001"/>
</g>
<!-- OrdersRoutingModule -->
<g id="node13" class="node">
<title>OrdersRoutingModule</title>
<polygon fill="#8dd3c7" stroke="#000000" points="1056.2548,-122 1053.2548,-126 1032.2548,-126 1029.2548,-122 913.7452,-122 913.7452,-86 1056.2548,-86 1056.2548,-122"/>
<text text-anchor="middle" x="985" y="-99.8" font-family="Times,serif" font-size="14.00" fill="#000000">OrdersRoutingModule</text>
</g>
<!-- OrdersRoutingModule&#45;&gt;OrdersModule -->
<g id="edge12" class="edge">
<title>OrdersRoutingModule&#45;&gt;OrdersModule</title>
<path fill="none" stroke="#000000" d="M1008.51,-122.0352C1008.51,-138.7344 1008.51,-161 1008.51,-161 1008.51,-161 1425.3488,-161 1425.3488,-161"/>
<polygon fill="#000000" stroke="#000000" points="1425.3488,-164.5001 1435.3488,-161 1425.3487,-157.5001 1425.3488,-164.5001"/>
</g>
<!-- CdkDetailRowDirectiveModule -->
<g id="node14" class="node">
<title>CdkDetailRowDirectiveModule</title>
<polygon fill="#8dd3c7" stroke="#000000" points="895.6204,-122 892.6204,-126 871.6204,-126 868.6204,-122 700.3796,-122 700.3796,-86 895.6204,-86 895.6204,-122"/>
<text text-anchor="middle" x="798" y="-99.8" font-family="Times,serif" font-size="14.00" fill="#000000">CdkDetailRowDirectiveModule</text>
</g>
<!-- CdkDetailRowDirectiveModule&#45;&gt;OrdersModule -->
<g id="edge13" class="edge">
<title>CdkDetailRowDirectiveModule&#45;&gt;OrdersModule</title>
<path fill="none" stroke="#000000" d="M798,-122.302C798,-140.2699 798,-165 798,-165 798,-165 1425.2145,-165 1425.2145,-165"/>
<polygon fill="#000000" stroke="#000000" points="1425.2145,-168.5001 1435.2145,-165 1425.2145,-161.5001 1425.2145,-168.5001"/>
</g>
<!-- OrderService -->
<g id="node21" class="node">
<title>OrderService</title>
<ellipse fill="#fdb462" stroke="#000000" cx="613" cy="-104" rx="62.516" ry="18"/>
<text text-anchor="middle" x="613" y="-99.8" font-family="Times,serif" font-size="14.00" fill="#000000">OrderService</text>
</g>
<!-- OrderService&#45;&gt;OrdersModule -->
<g id="edge20" class="edge">
<title>OrderService&#45;&gt;OrdersModule</title>
<path fill="none" stroke="#000000" d="M613,-122.1686C613,-141.0898 613,-168 613,-168 613,-168 1425.3049,-168 1425.3049,-168"/>
<polygon fill="#000000" stroke="#000000" points="1425.3049,-171.5001 1435.3049,-168 1425.3049,-164.5001 1425.3049,-171.5001"/>
</g>
<!-- UserService -->
<g id="node22" class="node">
<title>UserService</title>
<ellipse fill="#fdb462" stroke="#000000" cx="474" cy="-104" rx="58.4415" ry="18"/>
<text text-anchor="middle" x="474" y="-99.8" font-family="Times,serif" font-size="14.00" fill="#000000">UserService</text>
</g>
<!-- UserService&#45;&gt;OrdersModule -->
<g id="edge21" class="edge">
<title>UserService&#45;&gt;OrdersModule</title>
<path fill="none" stroke="#000000" d="M474,-122.308C474,-142.1455 474,-171 474,-171 474,-171 1425.2856,-171 1425.2856,-171"/>
<polygon fill="#000000" stroke="#000000" points="1425.2856,-174.5001 1435.2856,-171 1425.2856,-167.5001 1425.2856,-174.5001"/>
</g>
<!-- EventEmitterOrders -->
<g id="node23" class="node">
<title>EventEmitterOrders</title>
<ellipse fill="#fdb462" stroke="#000000" cx="309" cy="-104" rx="88.5986" ry="18"/>
<text text-anchor="middle" x="309" y="-99.8" font-family="Times,serif" font-size="14.00" fill="#000000">EventEmitterOrders</text>
</g>
<!-- EventEmitterOrders&#45;&gt;OrdersModule -->
<g id="edge22" class="edge">
<title>EventEmitterOrders&#45;&gt;OrdersModule</title>
<path fill="none" stroke="#000000" d="M309,-122.0267C309,-142.7672 309,-174 309,-174 309,-174 1425.0077,-174 1425.0077,-174"/>
<polygon fill="#000000" stroke="#000000" points="1425.0077,-177.5001 1435.0077,-174 1425.0076,-170.5001 1425.0077,-177.5001"/>
</g>
<!-- ComponentsService -->
<g id="node24" class="node">
<title>ComponentsService</title>
<ellipse fill="#fdb462" stroke="#000000" cx="113" cy="-104" rx="88.6255" ry="18"/>
<text text-anchor="middle" x="113" y="-99.8" font-family="Times,serif" font-size="14.00" fill="#000000">ComponentsService</text>
</g>
<!-- ComponentsService&#45;&gt;OrdersModule -->
<g id="edge23" class="edge">
<title>ComponentsService&#45;&gt;OrdersModule</title>
<path fill="none" stroke="#000000" d="M113,-122.2921C113,-144.2057 113,-178 113,-178 113,-178 1425.2054,-178 1425.2054,-178"/>
<polygon fill="#000000" stroke="#000000" points="1425.2054,-181.5001 1435.2054,-178 1425.2053,-174.5001 1425.2054,-181.5001"/>
</g>
</g>
</svg>
